<?xml version="1.0" encoding="UTF-8" standalone="no"?>
<!-- Created with Inkscape (http://www.inkscape.org/) -->
<svg
   xmlns:svg="http://www.w3.org/2000/svg"
   xmlns="http://www.w3.org/2000/svg"
   version="1.0"
   width="2376.8438"
   height="448.03125"
   id="svg2">
  <defs
     id="defs4" />
  <g
     transform="translate(816.99329,-142.63226)"
     id="layer1">
    <rect
       width="2377"
       height="448"
       x="-816.99329"
       y="142.66351"
       id="rect3351"
       style="opacity:1;fill:#381C00;fill-opacity:1;fill-rule:evenodd;stroke:none;stroke-width:2.5;stroke-linecap:butt;stroke-linejoin:round;stroke-miterlimit:4;stroke-dasharray:none;stroke-dashoffset:0;stroke-opacity:1" />
    <path
       d="M -570.38725,354.01147 C -559.46521,356.68125 -551.29297,360.95269 -545.87047,366.82596 C -538.35682,375.01297 -534.59995,385.02427 -534.59977,396.8598 C -534.59995,405.84783 -537.07875,414.45751 -542.03616,422.68896 C -546.99385,430.92045 -553.79116,436.92726 -562.42804,440.7093 C -571.06512,444.49132 -584.25304,446.38227 -601.99173,446.38227 L -676.35531,446.38227 L -676.35531,441.44347 L -670.42944,441.44347 C -663.8452,441.44347 -659.12002,439.04074 -656.25388,434.23528 C -654.47224,431.12065 -653.5815,424.49098 -653.5815,414.34623 L -653.5815,297.41427 C -653.5815,286.20184 -654.70471,279.1272 -656.95104,276.19041 C -659.9721,272.27506 -664.46491,270.31723 -670.42944,270.3171 L -676.35531,270.3171 L -676.35531,265.37817 L -608.26615,265.37817 C -595.56252,265.37832 -585.3762,266.44624 -577.70743,268.58181 C -566.08824,271.78555 -557.21883,277.45866 -551.09919,285.60103 C -544.97983,293.74371 -541.92012,303.10978 -541.91995,313.69932 C -541.92012,322.77639 -544.32136,330.89659 -549.12394,338.06014 C -553.92669,345.22392 -561.01444,350.54103 -570.38725,354.01147 L -570.38725,354.01147 z M -631.27242,346.8033 C -628.40634,347.4264 -625.13359,347.89356 -621.45406,348.20491 C -617.77468,348.51645 -613.72732,348.67224 -609.31191,348.67209 C -598.00254,348.67224 -589.50108,347.27067 -583.80754,344.46738 C -578.11414,341.66433 -573.75696,337.37062 -570.73581,331.58614 C -567.71491,325.80201 -566.20441,319.4838 -566.20426,312.6315 C -566.20441,302.04189 -569.9613,293.00956 -577.47501,285.53427 C -584.98897,278.05932 -595.94979,274.32174 -610.35766,274.32157 C -618.1039,274.32174 -625.07551,275.30062 -631.27242,277.2583 L -631.27242,346.8033 z M -631.27242,433.30095 C -622.28685,435.70362 -613.4175,436.90494 -604.66423,436.90494 C -590.64369,436.90494 -579.95386,433.2787 -572.59491,426.02602 C -565.23612,418.77342 -561.55669,409.80774 -561.55659,399.12907 C -561.55669,392.0989 -563.2221,385.33579 -566.55286,378.83947 C -569.8839,372.34332 -575.30619,367.2265 -582.81994,363.4888 C -590.33376,359.75136 -599.62927,357.88266 -610.70628,357.88255 C -615.50896,357.88266 -619.6144,357.97158 -623.02267,358.14949 C -626.43105,358.32748 -629.18095,358.639 -631.27242,359.08389 L -631.27242,433.30095 z"
       id="text2490"
       style="font-size:33.58753586px;font-style:normal;font-variant:normal;font-weight:normal;font-stretch:normal;text-align:center;line-height:100%;writing-mode:lr-tb;text-anchor:middle;fill:#ffffff;fill-opacity:1;stroke:none;stroke-width:1px;stroke-linecap:butt;stroke-linejoin:miter;stroke-opacity:1;font-family:Times New Roman;-inkscape-font-specification:Times New Roman" />
    <path
       d="M -328.35238,324.08509 C -310.15577,324.08514 -295.54597,330.70345 -284.52288,343.93993 C -275.16221,355.24969 -270.48187,368.23486 -270.48173,382.89555 C -270.48187,393.19996 -273.06259,403.62997 -278.22412,414.1857 C -283.38574,424.74141 -290.49383,432.70014 -299.54828,438.06172 C -308.60296,443.42334 -318.68544,446.10421 -329.7959,446.10421 C -347.90511,446.10421 -362.29617,439.19271 -372.96921,425.36965 C -381.98005,413.7249 -386.48551,400.65595 -386.48541,386.16273 C -386.48551,375.60708 -383.75155,365.11416 -378.28386,354.6841 C -372.81612,344.25409 -365.62059,336.54679 -356.69715,331.56205 C -347.77389,326.57751 -338.32561,324.08514 -328.35238,324.08509 L -328.35238,324.08509 z M -332.42041,332.25313 C -337.05708,332.25327 -341.71555,333.57276 -346.39594,336.2116 C -351.07636,338.85058 -354.86007,343.47918 -357.74698,350.09734 C -360.63396,356.71575 -362.07747,365.21896 -362.07744,375.60708 C -362.07747,392.36215 -358.6,406.81344 -351.64494,418.96092 C -344.69008,431.10841 -335.52615,437.18209 -324.15314,437.18209 C -315.66728,437.18209 -308.66861,433.83109 -303.15696,427.12897 C -297.64559,420.42702 -294.88987,408.90789 -294.88976,392.57161 C -294.88987,372.13045 -299.48277,356.04558 -308.66851,344.31687 C -314.87996,336.27451 -322.79723,332.25327 -332.42041,332.25313 L -332.42041,332.25313 z"
       id="text2500"
       style="font-size:34.63281631px;font-style:normal;font-variant:normal;font-weight:normal;font-stretch:normal;text-align:center;line-height:100%;writing-mode:lr-tb;text-anchor:middle;fill:#ffffff;fill-opacity:1;stroke:none;stroke-width:1px;stroke-linecap:butt;stroke-linejoin:miter;stroke-opacity:1;font-family:Times New Roman;-inkscape-font-specification:Times New Roman" />
    <path
       d="M -253.40464,324.82291 L -200.78872,324.82291 L -200.78872,329.58504 C -205.63013,329.92837 -208.80448,330.74355 -210.31162,332.0305 C -211.81889,333.31773 -212.57253,335.16256 -212.57244,337.56496 C -212.57253,340.22506 -211.79606,343.44273 -210.24308,347.218 L -183.38708,415.04692 L -156.39397,359.83134 L -163.519,342.45583 C -165.71147,337.30765 -168.5889,333.74671 -172.1513,331.77312 C -174.16103,330.57192 -177.90633,329.84257 -183.38708,329.58504 L -183.38708,324.82291 L -123.64598,324.82291 L -123.64598,329.58504 C -130.22314,329.84257 -134.88185,330.95808 -137.62213,332.93151 C -139.44917,334.30446 -140.36263,336.49252 -140.36252,339.4956 C -140.36263,341.21178 -139.99725,342.97077 -139.26632,344.77261 L -110.76604,412.47283 L -84.32098,347.218 C -82.494227,342.58462 -81.580817,338.89504 -81.58066,336.14917 C -81.580817,334.51902 -82.471457,333.0603 -84.252512,331.77312 C -86.033995,330.48612 -89.528042,329.75683 -94.73461,329.58504 L -94.73461,324.82291 L -55.135645,324.82291 L -55.135645,329.58504 C -63.08305,330.70068 -68.929225,335.76318 -72.674305,344.77261 L -114.6026,446.32291 L -120.22049,446.32291 L -151.59823,371.0289 L -188.18273,446.32291 L -193.25252,446.32291 L -233.53666,347.218 C -236.18572,340.95441 -238.7891,336.7285 -241.34684,334.5403 C -243.90452,332.3524 -247.92377,330.70068 -253.40464,329.58504 L -253.40464,324.82291 z"
       id="text2504"
       style="font-size:35.81533051px;font-style:normal;font-variant:normal;font-weight:normal;font-stretch:normal;text-align:center;line-height:100%;writing-mode:lr-tb;text-anchor:middle;fill:#ffffff;fill-opacity:1;stroke:none;stroke-width:1px;stroke-linecap:butt;stroke-linejoin:miter;stroke-opacity:1;font-family:Times New Roman;-inkscape-font-specification:Times New Roman" />
    <path
       d="M 8.1504606,349.60752 C 22.704121,332.89702 36.579841,324.54174 49.777756,324.54157 C 56.557351,324.54174 62.387836,326.1568 67.269391,329.38686 C 72.150586,332.61708 76.037641,337.93603 78.930406,345.34375 C 80.919016,350.51206 81.913321,358.4367 81.913501,369.11758 L 81.913501,419.63709 C 81.913321,427.13107 82.546111,432.21315 83.811751,434.88342 C 84.806026,437.0368 86.410546,438.71655 88.625386,439.92243 C 90.839986,441.12838 94.930336,441.73132 100.89659,441.73132 L 100.89659,446.38267 L 39.472621,446.38267 L 39.472621,441.73132 L 42.048871,441.73132 C 47.834101,441.73132 51.879391,440.89146 54.184501,439.21182 C 56.489551,437.53219 58.094026,435.05571 58.998121,431.7825 C 59.359651,430.49046 59.540416,426.442 59.540491,419.63709 L 59.540491,371.18491 C 59.540416,360.41785 58.071481,352.60086 55.133686,347.73406 C 52.195741,342.86737 47.246536,340.43398 40.286206,340.43394 C 29.529001,340.43398 18.817066,346.03297 8.1504606,357.2307 L 8.1504606,419.63709 C 8.1503706,427.6479 8.6475756,432.60073 9.6419406,434.49573 C 10.907476,436.99377 12.647581,438.82416 14.862331,439.98703 C 17.076931,441.14994 21.574171,441.73132 28.353886,441.73132 L 28.353886,446.38267 L -33.070049,446.38267 L -33.070049,441.73132 L -30.358244,441.73132 C -24.030449,441.73132 -19.759304,440.20236 -17.544554,437.14453 C -15.329909,434.08665 -14.222549,428.25082 -14.222549,419.63709 L -14.222549,375.70711 C -14.222549,361.49458 -14.561549,352.83778 -15.239504,349.73671 C -15.917474,346.6359 -16.957109,344.52556 -18.358199,343.40566 C -19.759304,342.286 -21.635054,341.72608 -23.985269,341.72599 C -26.516414,341.72608 -29.544704,342.3721 -33.070049,343.66413 L -35.104034,339.0127 L 2.3198556,324.54157 L 8.1504606,324.54157 L 8.1504606,349.60752 z"
       id="text2508"
       style="font-size:35.69724655px;font-style:normal;font-variant:normal;font-weight:normal;font-stretch:normal;text-align:center;line-height:100%;writing-mode:lr-tb;text-anchor:middle;fill:#ffffff;fill-opacity:1;stroke:none;stroke-width:1px;stroke-linecap:butt;stroke-linejoin:miter;stroke-opacity:1;font-family:Times New Roman;-inkscape-font-specification:Times New Roman" />
    <path
       d="M 326.61681,261.90072 L 326.61681,256.83529 L 389.32148,256.83529 L 389.32148,261.90072 L 382.65914,261.90072 C 375.69173,261.9009 370.33575,264.95838 366.59106,271.07316 C 364.76199,273.9027 363.84756,280.47402 363.8477,290.78725 L 363.8477,366.08404 C 363.84756,384.703 362.084,399.14629 358.55699,409.41399 C 355.02972,419.6817 348.10605,428.48914 337.78611,435.83628 C 327.46574,443.18338 313.42257,446.857 295.65632,446.857 C 276.32234,446.857 261.64764,443.34315 251.63241,436.31539 C 241.61703,429.28774 234.51921,419.84148 230.33891,407.97643 C 227.55204,399.85362 226.15859,384.61174 226.15863,362.25079 L 226.15863,289.69209 C 226.15859,278.28364 224.65629,270.79956 221.65169,267.23995 C 218.6471,263.6806 213.79182,261.9009 207.08592,261.90072 L 200.42358,261.90072 L 200.42358,256.83529 L 276.97556,256.83529 L 276.97556,261.90072 L 270.18254,261.90072 C 262.86692,261.9009 257.64158,264.31945 254.50641,269.15656 C 252.32909,272.44237 251.24045,279.28755 251.24055,289.69209 L 251.24055,370.60189 C 251.24045,377.81212 251.87189,386.07196 253.13468,395.38134 C 254.39742,404.69088 256.68356,411.94672 259.99301,417.14896 C 263.3024,422.35131 268.07055,426.64095 274.29755,430.01791 C 280.52442,433.39485 288.16652,435.08335 297.22394,435.08335 C 308.80679,435.08335 319.17053,432.4365 328.31502,427.14292 C 337.45932,421.84938 343.70807,415.0726 347.06115,406.81276 C 350.41394,398.55297 352.09041,384.56611 352.09055,364.85193 L 352.09055,289.69209 C 352.09041,278.10111 350.87118,270.84522 348.4328,267.9244 C 345.03615,263.90878 339.98496,261.9009 333.27918,261.90072 L 326.61681,261.90072 z"
       id="text2512"
       style="font-size:36.06699753px;font-style:normal;font-variant:normal;font-weight:normal;font-stretch:normal;text-align:center;line-height:100%;writing-mode:lr-tb;text-anchor:middle;fill:#ffffff;fill-opacity:1;stroke:none;stroke-width:1px;stroke-linecap:butt;stroke-linejoin:miter;stroke-opacity:1;font-family:Times New Roman;-inkscape-font-specification:Times New Roman" />
    <text
       x="391.98593"
       y="372.2561"
       transform="scale(0.9768381,1.0237111)"
       id="text2516"
       xml:space="preserve"
       style="font-size:36.06699753px;font-style:normal;font-variant:normal;font-weight:normal;font-stretch:normal;text-align:center;line-height:100%;writing-mode:lr-tb;text-anchor:middle;fill:#000000;fill-opacity:1;stroke:none;stroke-width:1px;stroke-linecap:butt;stroke-linejoin:miter;stroke-opacity:1;font-family:Times New Roman;-inkscape-font-specification:Times New Roman"><tspan
         x="391.98593"
         y="372.2561"
         id="tspan2518" /></text>
    <path
       d="M 442.8882,349.6071 C 457.44185,332.89659 471.31758,324.54126 484.5155,324.54112 C 491.29508,324.54126 497.12567,326.15638 502.00706,329.38639 C 506.88839,332.61663 510.77531,337.93563 513.66813,345.34327 C 515.65676,350.5116 516.65112,358.43623 516.65123,369.11716 L 516.65123,419.63665 C 516.65112,427.13059 517.28387,432.21271 518.54955,434.88291 C 519.54377,437.0364 521.14829,438.71602 523.36311,439.92202 C 525.57765,441.12792 529.66806,441.73084 535.63433,441.73084 L 535.63433,446.38227 L 474.21036,446.38227 L 474.21036,441.73084 L 476.78661,441.73084 C 482.57192,441.73084 486.61713,440.89099 488.92232,439.21134 C 491.22729,437.53171 492.83186,435.05523 493.73586,431.78202 C 494.09739,430.48998 494.27816,426.44155 494.27822,419.63665 L 494.27822,371.18448 C 494.27816,360.41745 492.80922,352.60045 489.87144,347.73358 C 486.93348,342.86691 481.98426,340.43358 475.02392,340.43346 C 464.26673,340.43358 453.55488,346.03245 442.8882,357.23023 L 442.8882,419.63665 C 442.88811,427.64745 443.38533,432.60033 444.37968,434.49532 C 445.64522,436.99333 447.38532,438.82374 449.60006,439.98658 C 451.81478,441.14944 456.3119,441.73084 463.09163,441.73084 L 463.09163,446.38227 L 401.66768,446.38227 L 401.66768,441.73084 L 404.37959,441.73084 C 410.70728,441.73084 414.97844,440.20195 417.19317,437.14402 C 419.40783,434.08618 420.51519,428.2504 420.51519,419.63665 L 420.51519,375.70671 C 420.51519,361.49413 420.17618,352.8373 419.49824,349.73629 C 418.82027,346.63549 417.78074,344.52508 416.3796,343.40515 C 414.97844,342.28552 413.10267,341.72559 410.75246,341.72553 C 408.22133,341.72559 405.19314,342.3717 401.66768,343.66365 L 399.6338,339.01218 L 437.05769,324.54112 L 442.8882,324.54112 L 442.8882,349.6071 z"
       id="text2520"
       style="font-size:35.69724655px;font-style:normal;font-variant:normal;font-weight:normal;font-stretch:normal;text-align:center;line-height:100%;writing-mode:lr-tb;text-anchor:middle;fill:#ffffff;fill-opacity:1;stroke:none;stroke-width:1px;stroke-linecap:butt;stroke-linejoin:miter;stroke-opacity:1;font-family:Times New Roman;-inkscape-font-specification:Times New Roman" />
    <path
       d="M 952.95767,325.01583 L 952.95767,351.52855 C 961.86579,333.8535 971.00628,325.01592 980.37927,325.01583 C 984.63956,325.01592 988.16406,326.45313 990.9528,329.32732 C 993.74136,332.20183 995.13567,335.52666 995.13578,339.30187 C 995.13567,342.64821 994.12863,345.47967 992.11475,347.79616 C 990.10068,350.11287 987.69933,351.27126 984.91082,351.27117 C 982.19954,351.27126 979.15914,349.79116 975.7896,346.83096 C 972.42,343.87087 969.92178,342.39081 968.29517,342.39069 C 966.9008,342.39081 965.39031,343.24882 963.76362,344.96472 C 960.27779,348.4827 956.67584,354.27432 952.95767,362.33958 L 952.95767,418.84002 C 952.95767,425.36095 953.69355,430.29457 955.16532,433.64077 C 956.1723,435.95743 957.95394,437.88801 960.51026,439.43238 C 963.06642,440.97685 966.74589,441.74905 971.54858,441.74905 L 971.54858,446.38239 L 917.05401,446.38239 L 917.05401,441.74905 C 922.47642,441.74905 926.50437,440.80528 929.13809,438.91762 C 931.07466,437.54484 932.4302,435.35682 933.20487,432.35379 C 933.59214,430.89519 933.78584,426.73377 933.78584,419.86962 L 933.78584,374.18026 C 933.78584,360.45201 933.53406,352.27938 933.0306,349.66237 C 932.52704,347.04556 931.59752,345.1365 930.24198,343.93509 C 928.88636,342.73398 927.20156,342.13336 925.18751,342.13332 C 922.78625,342.13336 920.07506,342.77691 917.05401,344.06379 L 915.89207,339.43054 L 948.07761,325.01583 L 952.95767,325.01583 z"
       id="text2524"
       style="font-size:32.9805069px;font-style:normal;font-variant:normal;font-weight:normal;font-stretch:normal;text-align:center;line-height:100%;writing-mode:lr-tb;text-anchor:middle;fill:#ffffff;fill-opacity:1;stroke:none;stroke-width:1px;stroke-linecap:butt;stroke-linejoin:miter;stroke-opacity:1;font-family:Times New Roman;-inkscape-font-specification:Times New Roman" />
    <path
       d="M -463.27651,325.01583 L -463.27651,351.52855 C -454.36846,333.8535 -445.22793,325.01592 -435.85501,325.01583 C -431.59461,325.01592 -428.0701,326.45313 -425.28144,329.32732 C -422.49285,332.20183 -421.0986,335.52666 -421.09849,339.30187 C -421.0986,342.64821 -422.10553,345.47967 -424.11952,347.79616 C -426.13359,350.11287 -428.53491,351.27126 -431.32347,351.27117 C -434.0347,351.27126 -437.07507,349.79116 -440.44456,346.83096 C -443.81427,343.87087 -446.31241,342.39081 -447.93909,342.39069 C -449.33347,342.39081 -450.84396,343.24882 -452.4706,344.96472 C -455.95644,348.4827 -459.5584,354.27432 -463.27651,362.33958 L -463.27651,418.84002 C -463.27662,425.36095 -462.54073,430.29457 -461.06886,433.64077 C -460.06192,435.95743 -458.28033,437.88801 -455.724,439.43238 C -453.16782,440.97685 -449.48839,441.74905 -444.68563,441.74905 L -444.68563,446.38239 L -499.1802,446.38239 L -499.1802,441.74905 C -493.75786,441.74905 -489.7299,440.80528 -487.09618,438.91762 C -485.15958,437.54484 -483.80397,435.35682 -483.02937,432.35379 C -482.6421,430.89519 -482.44843,426.73377 -482.4484,419.86962 L -482.4484,374.18026 C -482.44843,360.45201 -482.70021,352.27938 -483.20365,349.66237 C -483.70714,347.04556 -484.63672,345.1365 -485.99229,343.93509 C -487.34788,342.73398 -489.03268,342.13336 -491.04666,342.13332 C -493.44804,342.13336 -496.1592,342.77691 -499.1802,344.06379 L -500.34211,339.43054 L -468.15666,325.01583 L -463.27651,325.01583 z"
       id="text2528"
       style="font-size:32.9805069px;font-style:normal;font-variant:normal;font-weight:normal;font-stretch:normal;text-align:center;line-height:100%;writing-mode:lr-tb;text-anchor:middle;fill:#ffffff;fill-opacity:1;stroke:none;stroke-width:1px;stroke-linecap:butt;stroke-linejoin:miter;stroke-opacity:1;font-family:Times New Roman;-inkscape-font-specification:Times New Roman" />
    <path
       d="M 586.35621,262.65157 C 590.15286,262.65166 593.38449,263.92225 596.05121,266.46304 C 598.71782,269.00428 600.0512,272.08371 600.0512,275.7013 C 600.0512,279.31923 598.71782,282.42022 596.05121,285.00412 C 593.38449,287.58843 590.15286,288.88047 586.35621,288.88032 C 582.55961,288.88047 579.30534,287.58843 576.59348,285.00412 C 573.88158,282.42022 572.52566,279.31923 572.52566,275.7013 C 572.52566,272.08371 573.85899,269.00428 576.52571,266.46304 C 579.19235,263.92225 582.4692,262.65166 586.35621,262.65157 L 586.35621,262.65157 z M 597.61055,324.54112 L 597.61055,419.63665 C 597.61046,427.04451 598.17551,431.97579 599.30547,434.43072 C 600.43533,436.88569 602.10767,438.71602 604.32242,439.92202 C 606.53702,441.12792 610.58229,441.73084 616.45811,441.73084 L 616.45811,446.38227 L 556.11882,446.38227 L 556.11882,441.73084 C 562.17534,441.73084 566.24316,441.171 568.32224,440.05122 C 570.4013,438.93139 572.05107,437.07942 573.27144,434.49532 C 574.49174,431.91121 575.10186,426.95833 575.10198,419.63665 L 575.10198,374.02698 C 575.10186,361.19266 574.69511,352.8804 573.88167,349.09024 C 573.24879,346.3339 572.25449,344.41744 570.89855,343.34062 C 569.54255,342.26397 567.68946,341.72559 565.3392,341.72553 C 562.80809,341.72559 559.73462,342.3717 556.11882,343.66365 L 554.22047,339.01218 L 591.64436,324.54112 L 597.61055,324.54112 z"
       id="text2532"
       style="font-size:35.69724655px;font-style:normal;font-variant:normal;font-weight:normal;font-stretch:normal;text-align:center;line-height:100%;writing-mode:lr-tb;text-anchor:middle;fill:#ffffff;fill-opacity:1;stroke:none;stroke-width:1px;stroke-linecap:butt;stroke-linejoin:miter;stroke-opacity:1;font-family:Times New Roman;-inkscape-font-specification:Times New Roman" />
    <path
       d="M 631.92101,324.70731 L 690.36194,324.70731 L 690.36194,329.46928 L 686.56533,329.46928 C 683.03984,329.46942 680.35055,330.28447 678.49754,331.91467 C 676.64427,333.54499 675.71781,335.73294 675.71781,338.47852 C 675.71781,341.48172 676.66694,345.04243 678.56531,349.1608 L 707.44676,414.28467 L 736.46385,346.71549 C 738.54284,341.91067 739.5824,338.26414 739.58247,335.77573 C 739.5824,334.57459 739.22081,333.58792 738.4977,332.81559 C 737.50329,331.52871 736.23771,330.64918 734.70114,330.17715 C 733.16426,329.7054 730.04567,329.46942 725.34519,329.46928 L 725.34519,324.70731 L 765.88772,324.70731 L 765.88772,329.46928 C 761.18702,329.81265 757.93271,330.71353 756.12492,332.17207 C 752.96097,334.74625 750.11351,339.03628 747.58253,345.04236 L 703.51458,446.20297 L 697.95515,446.20297 L 653.61605,346.71549 C 651.62729,342.08233 649.72896,338.75743 647.92107,336.74106 C 646.11315,334.72479 643.80807,333.03024 641.0058,331.65723 C 639.4691,330.88516 636.44081,330.15585 631.92101,329.46928 L 631.92101,324.70731 z"
       id="text2536"
       style="font-size:35.62772751px;font-style:normal;font-variant:normal;font-weight:normal;font-stretch:normal;text-align:center;line-height:100%;writing-mode:lr-tb;text-anchor:middle;fill:#ffffff;fill-opacity:1;stroke:none;stroke-width:1px;stroke-linecap:butt;stroke-linejoin:miter;stroke-opacity:1;font-family:Times New Roman;-inkscape-font-specification:Times New Roman" />
    <path
       d="M 799.65978,374.06254 C 799.56945,392.16591 804.04403,406.36449 813.08358,416.65851 C 822.12311,426.95257 832.74464,432.09952 844.9481,432.09952 C 853.08372,432.09952 860.15714,429.90313 866.1686,425.5104 C 872.17976,421.11774 877.21938,413.59692 881.28731,402.94795 L 885.49062,405.61011 C 883.59225,417.76779 878.07812,428.83825 868.9482,438.82164 C 859.81815,448.80505 848.38308,453.79672 834.64299,453.79672 C 819.72765,453.79672 806.95928,448.09509 796.33775,436.69182 C 785.71622,425.28864 780.40545,409.9585 780.40554,390.70164 C 780.40545,369.84747 785.85189,353.58564 796.74458,341.91603 C 807.63725,330.24661 821.30958,324.41187 837.76164,324.41184 C 851.68251,324.41187 863.11761,328.91557 872.06688,337.92267 C 881.01599,346.93005 885.49061,358.97659 885.49062,374.06254 L 799.65978,374.06254 z M 799.65978,366.34212 L 857.15156,366.34212 C 856.69956,358.53291 855.75038,353.03098 854.30418,349.83615 C 852.0441,344.86677 848.67693,340.96216 844.2024,338.1223 C 839.72772,335.28267 835.0497,333.86286 830.16842,333.86272 C 822.66552,333.86286 815.95361,336.72474 810.03276,342.44851 C 804.11175,348.17241 800.65413,356.13693 799.65978,366.34212 L 799.65978,366.34212 z"
       id="text2540"
       style="font-size:36.23284149px;font-style:normal;font-variant:normal;font-weight:normal;font-stretch:normal;text-align:center;line-height:100%;writing-mode:lr-tb;text-anchor:middle;fill:#ffffff;fill-opacity:1;stroke:none;stroke-width:1px;stroke-linecap:butt;stroke-linejoin:miter;stroke-opacity:1;font-family:Times New Roman;-inkscape-font-specification:Times New Roman" />
    <path
       d="M 1098.2531,324.65992 L 1098.2531,363.71407 L 1093.7786,363.71407 C 1090.3433,351.44715 1085.9366,343.10227 1080.5581,338.67939 C 1075.1795,334.25667 1068.332,332.04531 1060.0157,332.04522 C 1053.6879,332.04531 1048.5806,333.58908 1044.6935,336.67659 C 1040.8065,339.76431 1038.8629,343.18575 1038.863,346.94086 C 1038.8629,351.6141 1040.3093,355.61961 1043.202,358.95753 C 1046.0043,362.37897 1051.6992,366.00901 1060.2869,369.84757 L 1080.0836,378.73489 C 1098.4338,386.99638 1107.609,397.88643 1107.609,411.40512 C 1107.609,421.83624 1103.3378,430.24374 1094.7955,436.62756 C 1086.253,443.01145 1076.6936,446.20338 1066.1174,446.20338 C 1058.524,446.20338 1049.8461,444.95161 1040.0834,442.44817 C 1037.1002,441.61366 1034.6595,441.19642 1032.7613,441.19642 C 1030.6822,441.19642 1029.055,442.28124 1027.8799,444.4509 L 1023.4053,444.4509 L 1023.4053,403.51921 L 1027.8799,403.51921 C 1030.411,415.20211 1035.2472,424.006 1042.3884,429.93084 C 1049.5297,435.85569 1057.5297,438.81816 1066.3885,438.81816 C 1072.6258,438.81816 1077.7105,437.12829 1081.6429,433.74856 C 1085.575,430.36896 1087.5411,426.30075 1087.5411,421.5442 C 1087.5411,415.78626 1085.349,410.94619 1080.9649,407.02408 C 1076.5806,403.10202 1067.8349,398.13685 1054.7276,392.12847 C 1041.6201,386.1202 1033.0324,380.69604 1028.9647,375.85596 C 1024.8968,371.09937 1022.8629,365.09107 1022.8629,357.83091 C 1022.8629,348.40134 1026.3657,340.51539 1033.3714,334.17315 C 1040.3771,327.83115 1049.4393,324.6601 1060.558,324.65992 C 1065.4393,324.6601 1071.3603,325.61976 1078.3208,327.53898 C 1082.9309,328.79079 1086.0044,329.41665 1087.5411,329.41656 C 1088.9874,329.41665 1090.1174,329.12463 1090.931,328.54041 C 1091.7445,327.95634 1092.6937,326.66286 1093.7786,324.65992 L 1098.2531,324.65992 z"
       id="text2544"
       style="font-size:35.13578033px;font-style:normal;font-variant:normal;font-weight:normal;font-stretch:normal;text-align:center;line-height:100%;writing-mode:lr-tb;text-anchor:middle;fill:#ffffff;fill-opacity:1;stroke:none;stroke-width:1px;stroke-linecap:butt;stroke-linejoin:miter;stroke-opacity:1;font-family:Times New Roman;-inkscape-font-specification:Times New Roman" />
    <path
       d="M 1258.8822,300.52929 L 1258.8822,336.17353 L 1290.3832,336.17353 L 1290.3832,344.46288 L 1258.8822,344.46288 L 1258.8822,414.80392 C 1258.8822,421.83016 1260.1333,426.56695 1262.6358,429.01423 C 1265.1381,431.46153 1268.352,432.68524 1272.2775,432.68524 C 1275.5158,432.68524 1278.6561,431.87605 1281.6983,430.2576 C 1284.7404,428.63929 1287.0956,426.25111 1288.764,423.09327 L 1294.5048,423.09327 C 1291.0701,430.83004 1286.2124,436.65232 1279.9319,440.56011 C 1273.6512,444.46795 1267.1744,446.42187 1260.5014,446.42187 C 1255.9871,446.42187 1251.5711,445.41531 1247.2532,443.40214 C 1242.9353,441.38902 1239.746,438.50757 1237.6852,434.75754 C 1235.6243,431.00766 1234.5939,425.22484 1234.5939,417.40915 L 1234.5939,344.46288 L 1213.2498,344.46288 L 1213.2498,340.55503 C 1218.6472,338.8183 1224.1672,335.8776 1229.81,331.73283 C 1235.4527,327.58825 1240.4819,322.67388 1244.8981,316.98961 C 1247.1551,313.98978 1250.2954,308.50303 1254.3189,300.52929 L 1258.8822,300.52929 z"
       id="text2552"
       style="font-size:35.60741043px;font-style:normal;font-variant:normal;font-weight:normal;font-stretch:normal;text-align:center;line-height:100%;writing-mode:lr-tb;text-anchor:middle;fill:#ffffff;fill-opacity:1;stroke:none;stroke-width:1px;stroke-linecap:butt;stroke-linejoin:miter;stroke-opacity:1;font-family:Times New Roman;-inkscape-font-specification:Times New Roman" />
    <path
       d="M 1307.0872,324.94476 L 1364.9857,324.94476 L 1364.9857,329.80948 L 1362.1383,329.80948 C 1358.0704,329.8095 1355.0194,330.66412 1352.9857,332.37322 C 1350.9517,334.08252 1349.9347,336.20809 1349.9347,338.74987 C 1349.9347,342.16839 1351.4263,346.90158 1354.4094,352.94944 L 1384.6468,413.69209 L 1412.4435,347.16442 C 1413.9802,343.57086 1414.7485,340.02094 1414.7487,336.51475 C 1414.7485,334.93711 1414.4322,333.75387 1413.7996,332.96484 C 1413.0762,332.00082 1411.9462,331.23387 1410.4098,330.66396 C 1408.8729,330.09442 1406.1609,329.8095 1402.2741,329.80948 L 1402.2741,324.94476 L 1442.6811,324.94476 L 1442.6811,329.80948 C 1439.3362,330.16014 1436.76,330.86128 1434.9522,331.91305 C 1433.1441,332.96497 1431.1554,334.93711 1428.9861,337.82952 C 1428.1723,339.05677 1426.6356,342.43132 1424.3758,347.9533 L 1373.7993,468.12379 C 1368.9178,479.7814 1362.5224,488.59042 1354.6128,494.55081 C 1346.7031,500.51104 1339.0873,503.49118 1331.7652,503.49123 C 1326.4318,503.49118 1322.0476,502.00113 1318.6126,499.021 C 1315.1776,496.0408 1313.46,492.62241 1313.46,488.76579 C 1313.46,485.08438 1314.703,482.12613 1317.189,479.89107 C 1319.6748,477.65595 1323.0871,476.53834 1327.4262,476.53837 C 1330.4092,476.53834 1334.4771,477.50247 1339.6297,479.43088 C 1343.2455,480.74562 1345.5054,481.40302 1346.4094,481.40302 C 1349.1211,481.40302 1352.0817,480.04443 1355.2908,477.32722 C 1358.4999,474.61003 1361.7313,469.35094 1364.9857,461.54992 L 1373.7993,440.64495 L 1329.189,349.794 C 1327.833,347.07685 1325.6635,343.70229 1322.6805,339.67021 C 1320.4206,336.60255 1318.5675,334.54272 1317.1212,333.49081 C 1315.042,332.08843 1311.6974,330.86128 1307.0872,329.80948 L 1307.0872,324.94476 z"
       id="text2556"
       style="font-size:36.00969315px;font-style:normal;font-variant:normal;font-weight:normal;font-stretch:normal;text-align:center;line-height:100%;writing-mode:lr-tb;text-anchor:middle;fill:#ffffff;fill-opacity:1;stroke:none;stroke-width:1px;stroke-linecap:butt;stroke-linejoin:miter;stroke-opacity:1;font-family:Times New Roman;-inkscape-font-specification:Times New Roman" />
    <path
       d="M 1167.2781,262.65157 C 1171.0747,262.65166 1174.3064,263.92225 1176.9731,266.46304 C 1179.6397,269.00428 1180.9731,272.08371 1180.9731,275.7013 C 1180.9731,279.31923 1179.6397,282.42022 1176.9731,285.00412 C 1174.3064,287.58843 1171.0747,288.88047 1167.2781,288.88032 C 1163.4814,288.88047 1160.2271,287.58843 1157.5153,285.00412 C 1154.8035,282.42022 1153.4475,279.31923 1153.4475,275.7013 C 1153.4475,272.08371 1154.7809,269.00428 1157.4476,266.46304 C 1160.1142,263.92225 1163.3911,262.65166 1167.2781,262.65157 L 1167.2781,262.65157 z M 1178.5324,324.54112 L 1178.5324,419.63665 C 1178.5323,427.04451 1179.0974,431.97579 1180.2273,434.43072 C 1181.3572,436.88569 1183.0295,438.71602 1185.2443,439.92202 C 1187.4589,441.12792 1191.5042,441.73084 1197.3799,441.73084 L 1197.3799,446.38227 L 1137.0407,446.38227 L 1137.0407,441.73084 C 1143.0972,441.73084 1147.165,441.171 1149.2441,440.05122 C 1151.3232,438.93139 1152.9729,437.07942 1154.1933,434.49532 C 1155.4136,431.91121 1156.0237,426.95833 1156.0239,419.63665 L 1156.0239,374.02698 C 1156.0237,361.19266 1155.617,352.8804 1154.8035,349.09024 C 1154.1707,346.3339 1153.1764,344.41744 1151.8204,343.34062 C 1150.4644,342.26397 1148.6113,341.72559 1146.2611,341.72553 C 1143.73,341.72559 1140.6565,342.3717 1137.0407,343.66365 L 1135.1423,339.01218 L 1172.5662,324.54112 L 1178.5324,324.54112 z"
       id="text2560"
       style="font-size:35.69724655px;font-style:normal;font-variant:normal;font-weight:normal;font-stretch:normal;text-align:center;line-height:100%;writing-mode:lr-tb;text-anchor:middle;fill:#ffffff;fill-opacity:1;stroke:none;stroke-width:1px;stroke-linecap:butt;stroke-linejoin:miter;stroke-opacity:1;font-family:Times New Roman;-inkscape-font-specification:Times New Roman" />
  </g>
</svg>
