<?xml version="1.0" encoding="UTF-8"?>
<svg width="154px" height="36px" viewBox="0 0 154 36" version="1.1" xmlns="http://www.w3.org/2000/svg" xmlns:xlink="http://www.w3.org/1999/xlink">
	<!-- Generator: Sketch 53.2 (72643) - https://sketchapp.com -->
    	<title>CUP logo 2line red</title>
    	<desc>Created with Sketch.</desc>
	<g id="logo-mobile" stroke="none" stroke-width="1" fill="#B31B1B" fill-rule="nonzero">
		<g id="CUP-logo-2line-red">
			<g id="Group" transform="translate(43.000000, 4.000000)">
				<path d="M9.39,17 C4.1,17 0.52,13.44 0.52,8.64 C0.52,3.82 4.1,0.25 9.39,0.25 C11.27,0.25 13,0.8 14.46,1.67 L13.3,4.85 C12.11,4.19 10.76,3.77 9.43,3.77 C6.4,3.77 4.52,5.63 4.52,8.64 C4.52,11.65 6.4,13.51 9.43,13.51 C10.76,13.51 12.26,13.07 13.48,12.32 L14.61,15.51 C13.19,16.42 11.24,17 9.39,17 Z" id="Path"></path>
				<path d="M25.34,17 C20.32,17 17.11,13.39 17.11,8.64 C17.11,3.86 20.47,0.25 25.5,0.25 C30.5,0.25 33.73,3.86 33.73,8.64 C33.72,13.39 30.34,17 25.34,17 Z M25.41,3.61 C22.84,3.61 21.12,5.71 21.12,8.63 C21.12,11.53 22.85,13.65 25.41,13.65 C27.98,13.65 29.7,11.53 29.7,8.63 C29.7,5.72 27.97,3.61 25.41,3.61 Z" id="Shape"></path>
				<path d="M45.96,16.73 L43.19,11.44 C42.97,11.46 42.77,11.46 42.55,11.46 C42,11.46 41.69,11.44 41.16,11.42 L41.16,16.73 L37.4,16.73 L37.4,0.67 C38.77,0.51 40.28,0.4 42.18,0.4 C47.23,0.4 49.22,2.81 49.22,5.78 C49.22,7.7 48.18,9.43 46.43,10.47 L50.24,16.73 L45.96,16.73 L45.96,16.73 Z M42.62,3.77 C42.04,3.77 41.69,3.79 41.16,3.88 L41.16,8.35 C41.65,8.39 41.91,8.42 42.35,8.42 C44.14,8.42 45.29,7.56 45.29,5.92 C45.3,4.57 44.24,3.77 42.62,3.77 Z" id="Shape"></path>
				<polygon id="Path" points="66.87 17.04 57.09 8.26 57.09 16.73 53.33 16.73 53.33 0.29 53.84 0.2 63.49 8.92 63.49 0.52 67.25 0.52 67.25 16.98"></polygon>
				<polygon id="Path" points="71.7 16.73 71.7 0.52 81.97 0.52 81.97 3.97 75.47 3.97 75.47 6.87 81.4 6.87 81.4 10.14 75.47 10.14 75.47 13.3 81.97 13.3 81.97 16.73 71.7 16.73"></polygon>
				<polygon id="Path" points="86.39 16.73 86.39 0.52 90.15 0.52 90.15 13.3 96.65 13.3 96.65 16.73"></polygon>
				<polygon id="Path" points="99.78 16.73 99.78 0.52 103.54 0.52 103.54 13.3 110.04 13.3 110.04 16.73"></polygon>
			</g>
			<g id="Group" transform="translate(45.000000, 25.000000)">
				<path d="M4.16,9.1 C1.98,9.1 0.76,7.93 0.76,5.67 L0.76,0.86 L2.64,0.86 L2.64,5.54 C2.64,6.69 3.13,7.39 4.2,7.39 C5.26,7.39 5.75,6.69 5.75,5.54 L5.75,0.86 L7.63005728,0.86 L7.63,5.67 C7.64,7.93 6.34,9.1 4.16,9.1 Z" id="Path"></path>
				<polygon id="Path" points="16.41 9.12 11.52 4.73 11.52 8.97 9.64 8.97 9.64 0.75 9.89 0.71 14.71 5.07 14.71 0.87 16.59 0.87 16.59 9.1"></polygon>
				<polygon id="Path" points="18.74 8.97 18.74 0.86 20.62 0.86 20.62 8.97"></polygon>
				<polygon id="Path" points="25.91 9.03 25.69 9.03 21.82 0.86 23.98 0.86 25.83 5.24 27.68 0.86 29.79 0.86"></polygon>
				<polygon id="Path" points="30.97 8.97 30.97 0.86 36.1 0.86 36.1 2.58 32.85 2.58 32.85 4.03 35.81 4.03 35.81 5.67 32.85 5.67 32.85 7.25 36.1 7.25 36.1 8.96 30.97 8.96"></polygon>
				<path d="M42.38,8.97 L41,6.33 C40.89,6.34 40.79,6.34 40.68,6.34 C40.4,6.34 40.25,6.33 39.98,6.32 L39.98,8.98 L38.1,8.98 L38.1,0.95 C38.79,0.87 39.54,0.82 40.49,0.82 C43.01,0.82 44.01,2.03 44.01,3.51 C44.01,4.47 43.49,5.34 42.62,5.86 L44.52,8.99 L42.38,8.99 L42.38,8.97 Z M40.71,2.48 C40.42,2.48 40.25,2.49 39.98,2.53 L39.98,4.77 C40.22,4.79 40.36,4.8 40.58,4.8 C41.48,4.8 42.05,4.37 42.05,3.55 C42.04,2.88 41.51,2.48 40.71,2.48 Z" id="Shape"></path>
				<path d="M48.06,9.1 C47.14,9.1 46.04,8.74 45.33,8.27 L45.85,6.57 C46.5,7.05 47.35,7.36 48.12,7.36 C48.78,7.36 49.04,7.05 49.04,6.65 C49.04,6.23 48.83,5.94 47.59,5.44 C46.16,4.86 45.66,4.03 45.66,3.06 C45.66,1.88 46.62,0.72 48.51,0.72 C49.4,0.72 50.3,1.03 50.78,1.35 L50.3,3.03 C49.84,2.71 49.08,2.37 48.51,2.37 C47.82,2.37 47.55,2.69 47.55,3.02 C47.55,3.55 47.96,3.73 48.98,4.16 C50.5,4.8 50.95,5.53 50.95,6.57 C50.95,7.87 50.01,9.1 48.06,9.1 Z" id="Path"></path>
				<polygon id="Path" points="52.68 8.97 52.68 0.86 54.56 0.86 54.56 8.97"></polygon>
				<polygon id="Path" points="60.27 2.58 60.27 8.96 58.39 8.96 58.39 2.58 55.96 2.58 55.96 0.86 62.71 0.86 62.71 2.58 60.27 2.58"></polygon>
				<polygon id="Path" points="68.2 5.76 68.2 8.97 66.32 8.97 66.32 5.75 63.47 0.86 65.63 0.86 67.29 3.97 68.95 0.86 71.06 0.86"></polygon>
				<path d="M76.89,6.57 C76.62,6.57 76.45,6.56 76.19,6.55 L76.19,8.97 L74.31,8.97 L74.31,0.94 C75.14,0.85 75.89,0.81 76.57,0.81 C78.92,0.81 80.18,2.06 80.18,3.7 C80.18,5.36 79.04,6.57 76.89,6.57 Z M76.89,2.56 C76.65,2.56 76.48,2.57 76.19,2.6 L76.19,4.91 C76.46,4.92 76.58,4.93 76.75,4.93 C77.75,4.93 78.24,4.5 78.24,3.71 C78.25,3.07 77.82,2.56 76.89,2.56 Z" id="Shape"></path>
				<path d="M85.94,8.97 L84.56,6.33 C84.45,6.34 84.35,6.34 84.24,6.34 C83.96,6.34 83.81,6.33 83.54,6.32 L83.54,8.98 L81.66,8.98 L81.66,0.95 C82.35,0.87 83.1,0.82 84.05,0.82 C86.57,0.82 87.57,2.03 87.57,3.51 C87.57,4.47 87.05,5.34 86.18,5.86 L88.08,8.99 L85.94,8.99 L85.94,8.97 Z M84.27,2.48 C83.98,2.48 83.81,2.49 83.54,2.53 L83.54,4.77 C83.78,4.79 83.92,4.8 84.14,4.8 C85.04,4.8 85.61,4.37 85.61,3.55 C85.61,2.88 85.08,2.48 84.27,2.48 Z" id="Shape"></path>
				<polygon id="Path" points="89.4 8.97 89.4 0.86 94.53 0.86 94.53 2.58 91.28 2.58 91.28 4.03 94.24 4.03 94.24 5.67 91.28 5.67 91.28 7.25 94.53 7.25 94.53 8.96 89.4 8.96"></polygon>
				<path d="M98.63,9.1 C97.71,9.1 96.61,8.74 95.9,8.27 L96.42,6.57 C97.07,7.05 97.92,7.36 98.69,7.36 C99.35,7.36 99.61,7.05 99.61,6.65 C99.61,6.23 99.4,5.94 98.16,5.44 C96.73,4.86 96.24,4.03 96.24,3.06 C96.24,1.88 97.2,0.72 99.09,0.72 C99.97,0.72 100.88,1.03 101.36,1.35 L100.88,3.03 C100.41,2.71 99.66,2.37 99.09,2.37 C98.4,2.37 98.13,2.69 98.13,3.02 C98.13,3.55 98.54,3.73 99.56,4.16 C101.08,4.8 101.53,5.53 101.53,6.57 C101.52,7.87 100.58,9.1 98.63,9.1 Z" id="Path"></path>
				<path d="M105.33,9.1 C104.41,9.1 103.31,8.74 102.6,8.27 L103.12,6.57 C103.77,7.05 104.62,7.36 105.39,7.36 C106.05,7.36 106.31,7.05 106.31,6.65 C106.31,6.23 106.1,5.94 104.86,5.44 C103.43,4.86 102.94,4.03 102.94,3.06 C102.94,1.88 103.9,0.72 105.79,0.72 C106.67,0.72 107.58,1.03 108.06,1.35 L107.58,3.03 C107.11,2.71 106.36,2.37 105.79,2.37 C105.1,2.37 104.83,2.69 104.83,3.02 C104.83,3.55 105.24,3.73 106.26,4.16 C107.78,4.8 108.23,5.53 108.23,6.57 C108.22,7.87 107.27,9.1 105.33,9.1 Z" id="Path"></path>
			</g>
			<path d="M17.64,0.55 C27.35,0.55 35.23,8.42 35.23,18.14 L26.58,18.14 C26.22,12.48 22.08,7.91 16.89,7.91 C11.29,7.91 7.18,13.1 7.18,18.94 C7.18,26.62 13.31,31.74 20.31,31.74 C26.83,31.74 32.91,27.07 33.29,20.39 L35.09,20.39 C33.99,29.05 26.6,35.74 17.64,35.74 C7.93,35.74 0.05,27.87 0.05,18.15 C0.05,8.42 7.92,0.55 17.64,0.55 L17.64,0.55 Z" id="Path"></path>
		</g>
	</g>
</svg>