<svg xmlns="http://www.w3.org/2000/svg" version="1.1" x="0" y="0" width="483.9" height="97.5" viewBox="0 0 483.9 97.5" enable-background="new 0 0 483.851 97.516" xml:space="preserve"><pattern x="-118.3" y="321.7" width="69" height="69" patternUnits="userSpaceOnUse" viewBox="2.1 -70.9 69 69" overflow="visible"><polygon fill="none" points="71.1 -1.9 2.1 -1.9 2.1 -70.9 71.1 -70.9 "/><polygon fill="#4E2A84" points="71.1 -1.9 2.1 -1.9 2.1 -70.9 71.1 -70.9 "/><path fill="#FFFFFF" d="M61.8-71.7c0 0.1 0 0.1 0 0.2 -0.1 0.1-0.1 0.1-0.2 0.1 0 0.1-0.1 0.3-0.1 0.4 -0.2 0.1 0 0.2 0 0.4 0 0.1 0 0.1 0 0.2 0 0.1 0 0.3 0.1 0.4 0.1 0.2 0.3 0.4 0.4 0.5 0.2 0.1 0.4 0.6 0.6 0.6 0.2 0 0.4-0.1 0.5-0.1 0.2 0 0.4 0 0.6-0.1 0.2-0.1 0.1-0.3 0.3-0.4 0.1-0.1 0.3 0 0.4-0.1 0.2-0.1 0.3-0.3 0.4-0.5 0-0.1 0-0.1 0-0.2 0-0.1 0.1-0.2 0.1-0.3 0-0.1-0.1-0.1-0.1-0.2 0-0.1 0-0.2 0-0.3 0-0.2 0-0.4-0.1-0.5 -0.4-0.7-1.2-0.9-2-0.8 -0.2 0-0.3 0.1-0.4 0.2 -0.2 0.1-0.1 0.2-0.3 0.2 -0.1 0-0.2 0.1-0.2 0.2 0 0.1 0 0.1 0 0.2 0 0 0 0 0 0M54.1-71.7c0 0.1 0 0.1 0 0.2 -0.1 0.1-0.1 0.1-0.2 0.1 0 0.1-0.1 0.3-0.1 0.4 -0.2 0.1 0 0.2 0 0.4 0 0.1 0 0.1 0 0.2 0 0.1 0 0.3 0.1 0.4 0.1 0.2 0.3 0.4 0.4 0.5 0.2 0.1 0.4 0.6 0.6 0.6 0.2 0 0.4-0.1 0.5-0.1 0.2 0 0.4 0 0.6-0.1 0.2-0.1 0.1-0.3 0.3-0.4 0.1-0.1 0.3 0 0.4-0.1 0.2-0.1 0.3-0.3 0.4-0.5 0-0.1 0-0.1 0-0.2 0-0.1 0.1-0.2 0.1-0.3 0-0.1-0.1-0.1-0.1-0.2 0-0.1 0-0.2 0-0.3 0-0.2 0-0.4-0.1-0.5 -0.4-0.7-1.2-0.9-2-0.8 -0.2 0-0.3 0.1-0.4 0.2 -0.2 0.1-0.1 0.2-0.3 0.2 -0.1 0-0.2 0.1-0.2 0.2 0 0.1 0 0.1 0 0.2 0 0 0 0 0 0M46.4-71.7c0 0.1 0 0.1 0 0.2 -0.1 0.1-0.1 0.1-0.2 0.1 0 0.1-0.1 0.3-0.1 0.4 -0.2 0.1 0 0.2 0 0.4 0 0.1 0 0.1 0 0.2 0 0.1 0 0.3 0.1 0.4 0.1 0.2 0.3 0.4 0.4 0.5 0.2 0.1 0.4 0.6 0.6 0.6 0.2 0 0.4-0.1 0.5-0.1 0.2 0 0.4 0 0.6-0.1 0.2-0.1 0.1-0.3 0.3-0.4 0.1-0.1 0.3 0 0.4-0.1 0.2-0.1 0.3-0.3 0.4-0.5 0-0.1 0-0.1 0-0.2 0-0.1 0.1-0.2 0.1-0.3 0-0.1-0.1-0.1-0.1-0.2 0-0.1 0-0.2 0-0.3 0-0.2 0-0.4-0.1-0.5 -0.4-0.7-1.2-0.9-2-0.8 -0.2 0-0.3 0.1-0.4 0.2 -0.2 0.1-0.1 0.2-0.3 0.2 -0.1 0-0.2 0.1-0.2 0.2 0 0.1 0 0.1 0 0.2 0 0 0 0 0 0M38.8-71.7c0 0.1 0 0.1 0 0.2 -0.1 0.1-0.1 0.1-0.2 0.1 0 0.1-0.1 0.3-0.1 0.4 -0.2 0.1 0 0.2 0 0.4 0 0.1 0 0.1 0 0.2 0 0.1 0 0.3 0.1 0.4 0.1 0.2 0.3 0.4 0.4 0.5 0.2 0.1 0.4 0.6 0.6 0.6 0.2 0 0.4-0.1 0.5-0.1 0.2 0 0.4 0 0.6-0.1 0.2-0.1 0.1-0.3 0.3-0.4 0.1-0.1 0.3 0 0.4-0.1 0.2-0.1 0.3-0.3 0.4-0.5 0-0.1 0-0.1 0-0.2 0-0.1 0.1-0.2 0.1-0.3 0-0.1-0.1-0.1-0.1-0.2 0-0.1 0-0.2 0-0.3 0-0.2 0-0.4-0.1-0.5 -0.4-0.7-1.2-0.9-2-0.8 -0.2 0-0.3 0.1-0.4 0.2 -0.2 0.1-0.1 0.2-0.3 0.2 -0.1 0-0.2 0.1-0.2 0.2 0 0.1 0 0.1 0 0.2 0 0 0 0 0 0M31.1-71.7c0 0.1 0 0.1 0 0.2 -0.1 0.1-0.1 0.1-0.2 0.1 0 0.1-0.1 0.3-0.1 0.4 -0.2 0.1 0 0.2 0 0.4 0 0.1 0 0.1 0 0.2 0 0.1 0 0.3 0.1 0.4 0.1 0.2 0.3 0.4 0.4 0.5 0.2 0.1 0.4 0.6 0.6 0.6 0.2 0 0.4-0.1 0.5-0.1 0.2 0 0.4 0 0.6-0.1 0.2-0.1 0.1-0.3 0.3-0.4 0.1-0.1 0.3 0 0.4-0.1 0.2-0.1 0.3-0.3 0.4-0.5 0-0.1 0-0.1 0-0.2 0-0.1 0.1-0.2 0.1-0.3 0-0.1-0.1-0.1-0.1-0.2 0-0.1 0-0.2 0-0.3 0-0.2 0-0.4-0.1-0.5 -0.4-0.7-1.2-0.9-2-0.8 -0.2 0-0.3 0.1-0.4 0.2 -0.2 0.1-0.1 0.2-0.3 0.2 -0.1 0-0.2 0.1-0.2 0.2 0 0.1 0 0.1 0 0.2 0 0 0 0 0 0M23.4-71.7c0 0.1 0 0.1 0 0.2 -0.1 0.1-0.1 0.1-0.2 0.1 0 0.1-0.1 0.3-0.1 0.4 -0.2 0.1 0 0.2 0 0.4 0 0.1 0 0.1 0 0.2 0 0.1 0 0.3 0.1 0.4 0.1 0.2 0.3 0.4 0.4 0.5 0.2 0.1 0.4 0.6 0.6 0.6 0.2 0 0.4-0.1 0.5-0.1 0.2 0 0.4 0 0.6-0.1 0.2-0.1 0.1-0.3 0.3-0.4 0.1-0.1 0.3 0 0.4-0.1 0.2-0.1 0.3-0.3 0.4-0.5 0-0.1 0-0.1 0-0.2 0-0.1 0.1-0.2 0.1-0.3 0-0.1-0.1-0.1-0.1-0.2 0-0.1 0-0.2 0-0.3 0-0.2 0-0.4-0.1-0.5 -0.4-0.7-1.2-0.9-2-0.8 -0.2 0-0.3 0.1-0.4 0.2 -0.2 0.1-0.1 0.2-0.3 0.2 -0.1 0-0.2 0.1-0.2 0.2 0 0.1 0 0.1 0 0.2 0 0 0 0 0 0M15.8-71.7c0 0.1 0 0.1 0 0.2 -0.1 0.1-0.1 0.1-0.2 0.1 0 0.1-0.1 0.3-0.1 0.4 -0.2 0.1 0 0.2 0 0.4 0 0.1 0 0.1 0 0.2 0 0.1 0 0.3 0.1 0.4 0.1 0.2 0.3 0.4 0.4 0.5 0.2 0.1 0.4 0.6 0.6 0.6 0.2 0 0.4-0.1 0.5-0.1 0.2 0 0.4 0 0.6-0.1 0.2-0.1 0.1-0.3 0.3-0.4 0.1-0.1 0.3 0 0.4-0.1 0.2-0.1 0.3-0.3 0.4-0.5 0-0.1 0-0.1 0-0.2 0-0.1 0.1-0.2 0.1-0.3 0-0.1-0.1-0.1-0.1-0.2 0-0.1 0-0.2 0-0.3 0-0.2 0-0.4-0.1-0.5 -0.4-0.7-1.2-0.9-2-0.8 -0.2 0-0.3 0.1-0.4 0.2 -0.2 0.1-0.1 0.2-0.3 0.2 -0.1 0-0.2 0.1-0.2 0.2 0 0.1 0 0.1 0 0.2 0 0 0 0 0 0M8.1-71.7c0 0.1 0 0.1 0 0.2 -0.1 0.1-0.1 0.1-0.2 0.1 0 0.1-0.1 0.3-0.1 0.4 -0.2 0.1 0 0.2 0 0.4 0 0.1 0 0.1 0 0.2 0 0.1 0 0.3 0.1 0.4 0.1 0.2 0.3 0.4 0.4 0.5 0.2 0.1 0.4 0.6 0.6 0.6 0.2 0 0.4-0.1 0.5-0.1 0.2 0 0.4 0 0.6-0.1 0.2-0.1 0.1-0.3 0.3-0.4 0.1-0.1 0.3 0 0.4-0.1 0.2-0.1 0.3-0.3 0.4-0.5 0-0.1 0-0.1 0-0.2 0-0.1 0.1-0.2 0.1-0.3 0-0.1-0.1-0.1-0.1-0.2 0-0.1 0-0.2 0-0.3 0-0.2 0-0.4-0.1-0.5 -0.4-0.7-1.2-0.9-2-0.8 -0.2 0-0.3 0.1-0.4 0.2 -0.2 0.1-0.1 0.2-0.3 0.2 -0.1 0-0.2 0.1-0.2 0.2 0 0.1 0 0.1 0 0.2 0 0 0 0 0 0M0.4-71.7c0 0.1 0 0.1 0 0.2C0.4-71.4 0.3-71.4 0.2-71.3c-0.1 0.1-0.1 0.3-0.1 0.4 -0.2 0.1 0 0.2 0 0.4 0 0.1 0 0.1 0 0.2 0 0.1 0 0.3 0.1 0.4 0.1 0.2 0.3 0.4 0.4 0.5 0.2 0.1 0.4 0.6 0.6 0.6 0.2 0 0.4-0.1 0.5-0.1 0.2 0 0.4 0 0.6-0.1 0.2-0.1 0.1-0.3 0.3-0.4 0.1-0.1 0.3 0 0.4-0.1 0.2-0.1 0.3-0.3 0.4-0.5 0-0.1 0-0.1 0-0.2 0-0.1 0.1-0.2 0.1-0.3 0-0.1-0.1-0.1-0.1-0.2 0-0.1 0-0.2 0-0.3 0-0.2 0-0.4-0.1-0.5 -0.4-0.7-1.2-0.9-2-0.8 -0.2 0-0.3 0.1-0.4 0.2 -0.2 0.1-0.1 0.2-0.3 0.2 -0.1 0-0.2 0.1-0.2 0.2 0 0.1 0 0.1 0 0.2 0 0 0 0 0 0"/><path fill="#FFFFFF" d="M69.4-71.7c0 0.1 0 0.1 0 0.2 -0.1 0.1-0.1 0.1-0.2 0.1 -0.1 0.1-0.1 0.3-0.1 0.4 -0.2 0.1 0 0.2 0 0.4 0 0.1 0 0.1 0 0.2 0 0.1 0 0.3 0.1 0.4 0.1 0.2 0.3 0.4 0.4 0.5 0.2 0.1 0.4 0.6 0.6 0.6 0.2 0 0.4-0.1 0.5-0.1 0.2 0 0.4 0 0.6-0.1 0.2-0.1 0.1-0.3 0.3-0.4 0.1-0.1 0.3 0 0.4-0.1 0.2-0.1 0.3-0.3 0.4-0.5 0-0.1 0-0.1 0-0.2 0-0.1 0.1-0.2 0.1-0.3 0-0.1-0.1-0.1-0.1-0.2 0-0.1 0-0.2 0-0.3 0-0.2 0-0.4-0.1-0.5 -0.4-0.7-1.2-0.9-2-0.8 -0.2 0-0.3 0.1-0.4 0.2 -0.2 0.1-0.1 0.2-0.3 0.2 -0.1 0-0.2 0.1-0.2 0.2 0 0.1 0 0.1 0 0.2 0 0 0 0 0 0"/><path fill="#FFFFFF" d="M0.5-71.7c0 0.1 0 0.1 0 0.2 -0.1 0.1-0.1 0.1-0.2 0.1 -0.1 0.1-0.1 0.3-0.1 0.4 -0.2 0.1 0 0.2 0 0.4 0 0.1 0 0.1 0 0.2 0 0.1 0 0.3 0.1 0.4 0.1 0.2 0.3 0.4 0.4 0.5 0.2 0.1 0.4 0.6 0.6 0.6 0.2 0 0.4-0.1 0.5-0.1 0.2 0 0.4 0 0.6-0.1 0.2-0.1 0.1-0.3 0.3-0.4 0.1-0.1 0.3 0 0.4-0.1 0.2-0.1 0.3-0.3 0.4-0.5 0-0.1 0-0.1 0-0.2 0-0.1 0.1-0.2 0.1-0.3 0-0.1-0.1-0.1-0.1-0.2 0-0.1 0-0.2 0-0.3 0-0.2 0-0.4-0.1-0.5 -0.4-0.7-1.2-0.9-2-0.8 -0.2 0-0.3 0.1-0.4 0.2 -0.2 0.1-0.1 0.2-0.3 0.2 -0.1 0-0.2 0.1-0.2 0.2C0.5-71.7 0.5-71.7 0.5-71.6c0 0 0 0 0 0"/><path fill="#FFFFFF" d="M69.4-64c0 0.1 0 0.1 0 0.2 -0.1 0.1-0.1 0.1-0.2 0.1 0 0.1-0.1 0.3-0.1 0.4 -0.2 0.1 0 0.2 0 0.4 0 0.1 0 0.1 0 0.2 0 0.1 0 0.3 0.1 0.4 0.1 0.2 0.3 0.4 0.4 0.5 0.2 0.1 0.4 0.6 0.6 0.6 0.2 0 0.4-0.1 0.5-0.1 0.2 0 0.4 0 0.6-0.1 0.2-0.1 0.1-0.3 0.3-0.4 0.1-0.1 0.3 0 0.4-0.1 0.2-0.1 0.3-0.3 0.4-0.5 0-0.1 0-0.1 0-0.2 0-0.1 0.1-0.2 0.1-0.3 0-0.1-0.1-0.1-0.1-0.2 0-0.1 0-0.2 0-0.3 0-0.2 0-0.4-0.1-0.5 -0.4-0.7-1.2-0.9-2-0.8 -0.2 0-0.3 0.1-0.4 0.2 -0.2 0.1-0.1 0.2-0.3 0.2 -0.1 0-0.2 0.1-0.2 0.2 0 0.1 0 0.1 0 0.2 0 0 0 0 0 0M61.8-64c0 0.1 0 0.1 0 0.2 -0.1 0.1-0.1 0.1-0.2 0.1 0 0.1-0.1 0.3-0.1 0.4 -0.2 0.1 0 0.2 0 0.4 0 0.1 0 0.1 0 0.2 0 0.1 0 0.3 0.1 0.4 0.1 0.2 0.3 0.4 0.4 0.5 0.2 0.1 0.4 0.6 0.6 0.6 0.2 0 0.4-0.1 0.5-0.1 0.2 0 0.4 0 0.6-0.1 0.2-0.1 0.1-0.3 0.3-0.4 0.1-0.1 0.3 0 0.4-0.1 0.2-0.1 0.3-0.3 0.4-0.5 0-0.1 0-0.1 0-0.2 0-0.1 0.1-0.2 0.1-0.3 0-0.1-0.1-0.1-0.1-0.2 0-0.1 0-0.2 0-0.3 0-0.2 0-0.4-0.1-0.5 -0.4-0.7-1.2-0.9-2-0.8 -0.2 0-0.3 0.1-0.4 0.2 -0.2 0.1-0.1 0.2-0.3 0.2 -0.1 0-0.2 0.1-0.2 0.2 0 0.1 0 0.1 0 0.2 0 0 0 0 0 0M54.1-64c0 0.1 0 0.1 0 0.2 -0.1 0.1-0.1 0.1-0.2 0.1 0 0.1-0.1 0.3-0.1 0.4 -0.2 0.1 0 0.2 0 0.4 0 0.1 0 0.1 0 0.2 0 0.1 0 0.3 0.1 0.4 0.1 0.2 0.3 0.4 0.4 0.5 0.2 0.1 0.4 0.6 0.6 0.6 0.2 0 0.4-0.1 0.5-0.1 0.2 0 0.4 0 0.6-0.1 0.2-0.1 0.1-0.3 0.3-0.4 0.1-0.1 0.3 0 0.4-0.1 0.2-0.1 0.3-0.3 0.4-0.5 0-0.1 0-0.1 0-0.2 0-0.1 0.1-0.2 0.1-0.3 0-0.1-0.1-0.1-0.1-0.2 0-0.1 0-0.2 0-0.3 0-0.2 0-0.4-0.1-0.5 -0.4-0.7-1.2-0.9-2-0.8 -0.2 0-0.3 0.1-0.4 0.2 -0.2 0.1-0.1 0.2-0.3 0.2 -0.1 0-0.2 0.1-0.2 0.2 0 0.1 0 0.1 0 0.2 0 0 0 0 0 0M46.5-64c0 0.1 0 0.1 0 0.2 -0.1 0.1-0.1 0.1-0.2 0.1 0 0.1-0.1 0.3-0.1 0.4 -0.2 0.1 0 0.2 0 0.4 0 0.1 0 0.1 0 0.2 0 0.1 0 0.3 0.1 0.4 0.1 0.2 0.3 0.4 0.4 0.5 0.2 0.1 0.4 0.6 0.6 0.6 0.2 0 0.4-0.1 0.5-0.1 0.2 0 0.4 0 0.6-0.1 0.2-0.1 0.1-0.3 0.3-0.4 0.1-0.1 0.3 0 0.4-0.1 0.2-0.1 0.3-0.3 0.4-0.5 0-0.1 0-0.1 0-0.2 0-0.1 0.1-0.2 0.1-0.3 0-0.1-0.1-0.1-0.1-0.2 0-0.1 0-0.2 0-0.3 0-0.2 0-0.4-0.1-0.5 -0.4-0.7-1.2-0.9-2-0.8 -0.2 0-0.3 0.1-0.4 0.2 -0.2 0.1-0.1 0.2-0.3 0.2 -0.1 0-0.2 0.1-0.2 0.2 0 0.1 0 0.1 0 0.2 0 0 0 0 0 0M38.8-64c0 0.1 0 0.1 0 0.2 -0.1 0.1-0.1 0.1-0.2 0.1 0 0.1-0.1 0.3-0.1 0.4 -0.2 0.1 0 0.2 0 0.4 0 0.1 0 0.1 0 0.2 0 0.1 0 0.3 0.1 0.4 0.1 0.2 0.3 0.4 0.4 0.5 0.2 0.1 0.4 0.6 0.6 0.6 0.2 0 0.4-0.1 0.5-0.1 0.2 0 0.4 0 0.6-0.1 0.2-0.1 0.1-0.3 0.3-0.4 0.1-0.1 0.3 0 0.4-0.1 0.2-0.1 0.3-0.3 0.4-0.5 0-0.1 0-0.1 0-0.2 0-0.1 0.1-0.2 0.1-0.3 0-0.1-0.1-0.1-0.1-0.2 0-0.1 0-0.2 0-0.3 0-0.2 0-0.4-0.1-0.5 -0.4-0.7-1.2-0.9-2-0.8 -0.2 0-0.3 0.1-0.4 0.2 -0.2 0.1-0.1 0.2-0.3 0.2 -0.1 0-0.2 0.1-0.2 0.2 0 0.1 0 0.1 0 0.2 0 0 0 0 0 0M31.1-64c0 0.1 0 0.1 0 0.2 -0.1 0.1-0.1 0.1-0.2 0.1 0 0.1-0.1 0.3-0.1 0.4 -0.2 0.1 0 0.2 0 0.4 0 0.1 0 0.1 0 0.2 0 0.1 0 0.3 0.1 0.4 0.1 0.2 0.3 0.4 0.4 0.5 0.2 0.1 0.4 0.6 0.6 0.6 0.2 0 0.4-0.1 0.5-0.1 0.2 0 0.4 0 0.6-0.1 0.2-0.1 0.1-0.3 0.3-0.4 0.1-0.1 0.3 0 0.4-0.1 0.2-0.1 0.3-0.3 0.4-0.5 0-0.1 0-0.1 0-0.2 0-0.1 0.1-0.2 0.1-0.3 0-0.1-0.1-0.1-0.1-0.2 0-0.1 0-0.2 0-0.3 0-0.2 0-0.4-0.1-0.5 -0.4-0.7-1.2-0.9-2-0.8 -0.2 0-0.3 0.1-0.4 0.2 -0.2 0.1-0.1 0.2-0.3 0.2 -0.1 0-0.2 0.1-0.2 0.2 0 0.1 0 0.1 0 0.2 0 0 0 0 0 0M23.5-64c0 0.1 0 0.1 0 0.2 -0.1 0.1-0.1 0.1-0.2 0.1 0 0.1-0.1 0.3-0.1 0.4 -0.2 0.1 0 0.2 0 0.4 0 0.1 0 0.1 0 0.2 0 0.1 0 0.3 0.1 0.4 0.1 0.2 0.3 0.4 0.4 0.5 0.2 0.1 0.4 0.6 0.6 0.6 0.2 0 0.4-0.1 0.5-0.1 0.2 0 0.4 0 0.6-0.1 0.2-0.1 0.1-0.3 0.3-0.4 0.1-0.1 0.3 0 0.4-0.1 0.2-0.1 0.3-0.3 0.4-0.5 0-0.1 0-0.1 0-0.2 0-0.1 0.1-0.2 0.1-0.3 0-0.1-0.1-0.1-0.1-0.2 0-0.1 0-0.2 0-0.3 0-0.2 0-0.4-0.1-0.5 -0.4-0.7-1.2-0.9-2-0.8 -0.2 0-0.3 0.1-0.4 0.2 -0.2 0.1-0.1 0.2-0.3 0.2 -0.1 0-0.2 0.1-0.2 0.2 0 0.1 0 0.1 0 0.2 0 0 0 0 0 0M15.8-64c0 0.1 0 0.1 0 0.2 -0.1 0.1-0.1 0.1-0.2 0.1 0 0.1-0.1 0.3-0.1 0.4 -0.2 0.1 0 0.2 0 0.4 0 0.1 0 0.1 0 0.2 0 0.1 0 0.3 0.1 0.4 0.1 0.2 0.3 0.4 0.4 0.5 0.2 0.1 0.4 0.6 0.6 0.6 0.2 0 0.4-0.1 0.5-0.1 0.2 0 0.4 0 0.6-0.1 0.2-0.1 0.1-0.3 0.3-0.4 0.1-0.1 0.3 0 0.4-0.1 0.2-0.1 0.3-0.3 0.4-0.5 0-0.1 0-0.1 0-0.2 0-0.1 0.1-0.2 0.1-0.3 0-0.1-0.1-0.1-0.1-0.2 0-0.1 0-0.2 0-0.3 0-0.2 0-0.4-0.1-0.5 -0.4-0.7-1.2-0.9-2-0.8 -0.2 0-0.3 0.1-0.4 0.2 -0.2 0.1-0.1 0.2-0.3 0.2 -0.1 0-0.2 0.1-0.2 0.2 0 0.1 0 0.1 0 0.2 0 0 0 0 0 0M8.2-64c0 0.1 0 0.1 0 0.2 -0.1 0.1-0.1 0.1-0.2 0.1 0 0.1-0.1 0.3-0.1 0.4 -0.2 0.1 0 0.2 0 0.4 0 0.1 0 0.1 0 0.2 0 0.1 0 0.3 0.1 0.4 0.1 0.2 0.3 0.4 0.4 0.5 0.2 0.1 0.4 0.6 0.6 0.6 0.2 0 0.4-0.1 0.5-0.1 0.2 0 0.4 0 0.6-0.1 0.2-0.1 0.1-0.3 0.3-0.4 0.1-0.1 0.3 0 0.4-0.1 0.2-0.1 0.3-0.3 0.4-0.5 0-0.1 0-0.1 0-0.2 0-0.1 0.1-0.2 0.1-0.3 0-0.1-0.1-0.1-0.1-0.2 0-0.1 0-0.2 0-0.3 0-0.2 0-0.4-0.1-0.5 -0.4-0.7-1.2-0.9-2-0.8 -0.2 0-0.3 0.1-0.4 0.2 -0.2 0.1-0.1 0.2-0.3 0.2 -0.1 0-0.2 0.1-0.2 0.2 0 0.1 0 0.1 0 0.2 0 0 0 0 0 0M0.5-64c0 0.1 0 0.1 0 0.2 -0.1 0.1-0.1 0.1-0.2 0.1 0 0.1-0.1 0.3-0.1 0.4 -0.2 0.1 0 0.2 0 0.4 0 0.1 0 0.1 0 0.2 0 0.1 0 0.3 0.1 0.4 0.1 0.2 0.3 0.4 0.4 0.5 0.2 0.1 0.4 0.6 0.6 0.6 0.2 0 0.4-0.1 0.5-0.1C2-61.4 2.2-61.4 2.4-61.5c0.2-0.1 0.1-0.3 0.3-0.4 0.1-0.1 0.3 0 0.4-0.1 0.2-0.1 0.3-0.3 0.4-0.5 0-0.1 0-0.1 0-0.2 0-0.1 0.1-0.2 0.1-0.3 0-0.1-0.1-0.1-0.1-0.2 0-0.1 0-0.2 0-0.3 0-0.2 0-0.4-0.1-0.5 -0.4-0.7-1.2-0.9-2-0.8 -0.2 0-0.3 0.1-0.4 0.2 -0.2 0.1-0.1 0.2-0.3 0.2 -0.1 0-0.2 0.1-0.2 0.2 0 0.1 0 0.1 0 0.2 0 0 0 0 0 0"/><path fill="#FFFFFF" d="M69.4-56.3c0 0.1 0 0.1 0 0.2 -0.1 0.1-0.1 0.1-0.2 0.1 0 0.1-0.1 0.3-0.1 0.4 -0.2 0.1 0 0.2 0 0.4 0 0.1 0 0.1 0 0.2 0 0.1 0 0.3 0.1 0.4 0.1 0.2 0.3 0.4 0.4 0.5 0.2 0.1 0.4 0.6 0.6 0.6 0.2 0 0.4-0.1 0.5-0.1 0.2 0 0.4 0 0.6-0.1 0.2-0.1 0.1-0.3 0.3-0.4 0.1-0.1 0.3 0 0.4-0.1 0.2-0.1 0.3-0.3 0.4-0.5 0-0.1 0-0.1 0-0.2 0-0.1 0.1-0.2 0.1-0.3 0-0.1-0.1-0.1-0.1-0.2 0-0.1 0-0.2 0-0.3 0-0.2 0-0.4-0.1-0.5 -0.4-0.7-1.2-0.9-2-0.8 -0.2 0-0.3 0.1-0.4 0.2 -0.2 0.1-0.1 0.2-0.3 0.2 -0.1 0-0.2 0.1-0.2 0.2 0 0.1 0 0.1 0 0.2 0 0 0 0 0 0M61.8-56.3c0 0.1 0 0.1 0 0.2 -0.1 0.1-0.1 0.1-0.2 0.1 0 0.1-0.1 0.3-0.1 0.4 -0.2 0.1 0 0.2 0 0.4 0 0.1 0 0.1 0 0.2 0 0.1 0 0.3 0.1 0.4 0.1 0.2 0.3 0.4 0.4 0.5 0.2 0.1 0.4 0.6 0.6 0.6 0.2 0 0.4-0.1 0.5-0.1 0.2 0 0.4 0 0.6-0.1 0.2-0.1 0.1-0.3 0.3-0.4 0.1-0.1 0.3 0 0.4-0.1 0.2-0.1 0.3-0.3 0.4-0.5 0-0.1 0-0.1 0-0.2 0-0.1 0.1-0.2 0.1-0.3 0-0.1-0.1-0.1-0.1-0.2 0-0.1 0-0.2 0-0.3 0-0.2 0-0.4-0.1-0.5 -0.4-0.7-1.2-0.9-2-0.8 -0.2 0-0.3 0.1-0.4 0.2 -0.2 0.1-0.1 0.2-0.3 0.2 -0.1 0-0.2 0.1-0.2 0.2 0 0.1 0 0.1 0 0.2 0 0 0 0 0 0M54.1-56.3c0 0.1 0 0.1 0 0.2 -0.1 0.1-0.1 0.1-0.2 0.1 0 0.1-0.1 0.3-0.1 0.4 -0.2 0.1 0 0.2 0 0.4 0 0.1 0 0.1 0 0.2 0 0.1 0 0.3 0.1 0.4 0.1 0.2 0.3 0.4 0.4 0.5 0.2 0.1 0.4 0.6 0.6 0.6 0.2 0 0.4-0.1 0.5-0.1 0.2 0 0.4 0 0.6-0.1 0.2-0.1 0.1-0.3 0.3-0.4 0.1-0.1 0.3 0 0.4-0.1 0.2-0.1 0.3-0.3 0.4-0.5 0-0.1 0-0.1 0-0.2 0-0.1 0.1-0.2 0.1-0.3 0-0.1-0.1-0.1-0.1-0.2 0-0.1 0-0.2 0-0.3 0-0.2 0-0.4-0.1-0.5 -0.4-0.7-1.2-0.9-2-0.8 -0.2 0-0.3 0.1-0.4 0.2 -0.2 0.1-0.1 0.2-0.3 0.2 -0.1 0-0.2 0.1-0.2 0.2 0 0.1 0 0.1 0 0.2 0 0 0 0 0 0M46.5-56.3c0 0.1 0 0.1 0 0.2 -0.1 0.1-0.1 0.1-0.2 0.1 0 0.1-0.1 0.3-0.1 0.4 -0.2 0.1 0 0.2 0 0.4 0 0.1 0 0.1 0 0.2 0 0.1 0 0.3 0.1 0.4 0.1 0.2 0.3 0.4 0.4 0.5 0.2 0.1 0.4 0.6 0.6 0.6 0.2 0 0.4-0.1 0.5-0.1 0.2 0 0.4 0 0.6-0.1 0.2-0.1 0.1-0.3 0.3-0.4 0.1-0.1 0.3 0 0.4-0.1 0.2-0.1 0.3-0.3 0.4-0.5 0-0.1 0-0.1 0-0.2 0-0.1 0.1-0.2 0.1-0.3 0-0.1-0.1-0.1-0.1-0.2 0-0.1 0-0.2 0-0.3 0-0.2 0-0.4-0.1-0.5 -0.4-0.7-1.2-0.9-2-0.8 -0.2 0-0.3 0.1-0.4 0.2 -0.2 0.1-0.1 0.2-0.3 0.2 -0.1 0-0.2 0.1-0.2 0.2 0 0.1 0 0.1 0 0.2 0 0 0 0 0 0M38.8-56.3c0 0.1 0 0.1 0 0.2 -0.1 0.1-0.1 0.1-0.2 0.1 0 0.1-0.1 0.3-0.1 0.4 -0.2 0.1 0 0.2 0 0.4 0 0.1 0 0.1 0 0.2 0 0.1 0 0.3 0.1 0.4 0.1 0.2 0.3 0.4 0.4 0.5 0.2 0.1 0.4 0.6 0.6 0.6 0.2 0 0.4-0.1 0.5-0.1 0.2 0 0.4 0 0.6-0.1 0.2-0.1 0.1-0.3 0.3-0.4 0.1-0.1 0.3 0 0.4-0.1 0.2-0.1 0.3-0.3 0.4-0.5 0-0.1 0-0.1 0-0.2 0-0.1 0.1-0.2 0.1-0.3 0-0.1-0.1-0.1-0.1-0.2 0-0.1 0-0.2 0-0.3 0-0.2 0-0.4-0.1-0.5 -0.4-0.7-1.2-0.9-2-0.8 -0.2 0-0.3 0.1-0.4 0.2 -0.2 0.1-0.1 0.2-0.3 0.2 -0.1 0-0.2 0.1-0.2 0.2 0 0.1 0 0.1 0 0.2 0 0 0 0 0 0M31.1-56.3c0 0.1 0 0.1 0 0.2 -0.1 0.1-0.1 0.1-0.2 0.1 0 0.1-0.1 0.3-0.1 0.4 -0.2 0.1 0 0.2 0 0.4 0 0.1 0 0.1 0 0.2 0 0.1 0 0.3 0.1 0.4 0.1 0.2 0.3 0.4 0.4 0.5 0.2 0.1 0.4 0.6 0.6 0.6 0.2 0 0.4-0.1 0.5-0.1 0.2 0 0.4 0 0.6-0.1 0.2-0.1 0.1-0.3 0.3-0.4 0.1-0.1 0.3 0 0.4-0.1 0.2-0.1 0.3-0.3 0.4-0.5 0-0.1 0-0.1 0-0.2 0-0.1 0.1-0.2 0.1-0.3 0-0.1-0.1-0.1-0.1-0.2 0-0.1 0-0.2 0-0.3 0-0.2 0-0.4-0.1-0.5 -0.4-0.7-1.2-0.9-2-0.8 -0.2 0-0.3 0.1-0.4 0.2 -0.2 0.1-0.1 0.2-0.3 0.2 -0.1 0-0.2 0.1-0.2 0.2 0 0.1 0 0.1 0 0.2 0 0 0 0 0 0M23.5-56.3c0 0.1 0 0.1 0 0.2 -0.1 0.1-0.1 0.1-0.2 0.1 0 0.1-0.1 0.3-0.1 0.4 -0.2 0.1 0 0.2 0 0.4 0 0.1 0 0.1 0 0.2 0 0.1 0 0.3 0.1 0.4 0.1 0.2 0.3 0.4 0.4 0.5 0.2 0.1 0.4 0.6 0.6 0.6 0.2 0 0.4-0.1 0.5-0.1 0.2 0 0.4 0 0.6-0.1 0.2-0.1 0.1-0.3 0.3-0.4 0.1-0.1 0.3 0 0.4-0.1 0.2-0.1 0.3-0.3 0.4-0.5 0-0.1 0-0.1 0-0.2 0-0.1 0.1-0.2 0.1-0.3 0-0.1-0.1-0.1-0.1-0.2 0-0.1 0-0.2 0-0.3 0-0.2 0-0.4-0.1-0.5 -0.4-0.7-1.2-0.9-2-0.8 -0.2 0-0.3 0.1-0.4 0.2 -0.2 0.1-0.1 0.2-0.3 0.2 -0.1 0-0.2 0.1-0.2 0.2 0 0.1 0 0.1 0 0.2 0 0 0 0 0 0M15.8-56.3c0 0.1 0 0.1 0 0.2 -0.1 0.1-0.1 0.1-0.2 0.1 0 0.1-0.1 0.3-0.1 0.4 -0.2 0.1 0 0.2 0 0.4 0 0.1 0 0.1 0 0.2 0 0.1 0 0.3 0.1 0.4 0.1 0.2 0.3 0.4 0.4 0.5 0.2 0.1 0.4 0.6 0.6 0.6 0.2 0 0.4-0.1 0.5-0.1 0.2 0 0.4 0 0.6-0.1 0.2-0.1 0.1-0.3 0.3-0.4 0.1-0.1 0.3 0 0.4-0.1 0.2-0.1 0.3-0.3 0.4-0.5 0-0.1 0-0.1 0-0.2 0-0.1 0.1-0.2 0.1-0.3 0-0.1-0.1-0.1-0.1-0.2 0-0.1 0-0.2 0-0.3 0-0.2 0-0.4-0.1-0.5 -0.4-0.7-1.2-0.9-2-0.8 -0.2 0-0.3 0.1-0.4 0.2 -0.2 0.1-0.1 0.2-0.3 0.2 -0.1 0-0.2 0.1-0.2 0.2 0 0.1 0 0.1 0 0.2 0 0 0 0 0 0M8.2-56.3c0 0.1 0 0.1 0 0.2 -0.1 0.1-0.1 0.1-0.2 0.1 0 0.1-0.1 0.3-0.1 0.4 -0.2 0.1 0 0.2 0 0.4 0 0.1 0 0.1 0 0.2 0 0.1 0 0.3 0.1 0.4 0.1 0.2 0.3 0.4 0.4 0.5 0.2 0.1 0.4 0.6 0.6 0.6 0.2 0 0.4-0.1 0.5-0.1 0.2 0 0.4 0 0.6-0.1 0.2-0.1 0.1-0.3 0.3-0.4 0.1-0.1 0.3 0 0.4-0.1 0.2-0.1 0.3-0.3 0.4-0.5 0-0.1 0-0.1 0-0.2 0-0.1 0.1-0.2 0.1-0.3 0-0.1-0.1-0.1-0.1-0.2 0-0.1 0-0.2 0-0.3 0-0.2 0-0.4-0.1-0.5 -0.4-0.7-1.2-0.9-2-0.8 -0.2 0-0.3 0.1-0.4 0.2 -0.2 0.1-0.1 0.2-0.3 0.2 -0.1 0-0.2 0.1-0.2 0.2 0 0.1 0 0.1 0 0.2 0 0 0 0 0 0M0.5-56.3c0 0.1 0 0.1 0 0.2 -0.1 0.1-0.1 0.1-0.2 0.1 0 0.1-0.1 0.3-0.1 0.4 -0.2 0.1 0 0.2 0 0.4 0 0.1 0 0.1 0 0.2 0 0.1 0 0.3 0.1 0.4 0.1 0.2 0.3 0.4 0.4 0.5 0.2 0.1 0.4 0.6 0.6 0.6 0.2 0 0.4-0.1 0.5-0.1 0.2 0 0.4 0 0.6-0.1 0.2-0.1 0.1-0.3 0.3-0.4 0.1-0.1 0.3 0 0.4-0.1 0.2-0.1 0.3-0.3 0.4-0.5 0-0.1 0-0.1 0-0.2 0-0.1 0.1-0.2 0.1-0.3 0-0.1-0.1-0.1-0.1-0.2 0-0.1 0-0.2 0-0.3 0-0.2 0-0.4-0.1-0.5 -0.4-0.7-1.2-0.9-2-0.8 -0.2 0-0.3 0.1-0.4 0.2 -0.2 0.1-0.1 0.2-0.3 0.2 -0.1 0-0.2 0.1-0.2 0.2C0.5-56.4 0.5-56.4 0.5-56.3c0 0 0 0 0 0"/><path fill="#FFFFFF" d="M69.4-48.7c0 0.1 0 0.1 0 0.2 -0.1 0.1-0.1 0.1-0.2 0.1 0 0.1-0.1 0.3-0.1 0.4 -0.2 0.1 0 0.2 0 0.4 0 0.1 0 0.1 0 0.2 0 0.1 0 0.3 0.1 0.4 0.1 0.2 0.3 0.4 0.4 0.5 0.2 0.1 0.4 0.6 0.6 0.6 0.2 0 0.4-0.1 0.5-0.1 0.2 0 0.4 0 0.6-0.1 0.2-0.1 0.1-0.3 0.3-0.4 0.1-0.1 0.3 0 0.4-0.1 0.2-0.1 0.3-0.3 0.4-0.5 0-0.1 0-0.1 0-0.2 0-0.1 0.1-0.2 0.1-0.3 0-0.1-0.1-0.1-0.1-0.2 0-0.1 0-0.2 0-0.3 0-0.2 0-0.4-0.1-0.5 -0.4-0.7-1.2-0.9-2-0.8 -0.2 0-0.3 0.1-0.4 0.2 -0.2 0.1-0.1 0.2-0.3 0.2 -0.1 0-0.2 0.1-0.2 0.2 0 0.1 0 0.1 0 0.2 0 0 0 0 0 0M61.8-48.7c0 0.1 0 0.1 0 0.2 -0.1 0.1-0.1 0.1-0.2 0.1 0 0.1-0.1 0.3-0.1 0.4 -0.2 0.1 0 0.2 0 0.4 0 0.1 0 0.1 0 0.2 0 0.1 0 0.3 0.1 0.4 0.1 0.2 0.3 0.4 0.4 0.5 0.2 0.1 0.4 0.6 0.6 0.6 0.2 0 0.4-0.1 0.5-0.1 0.2 0 0.4 0 0.6-0.1 0.2-0.1 0.1-0.3 0.3-0.4 0.1-0.1 0.3 0 0.4-0.1 0.2-0.1 0.3-0.3 0.4-0.5 0-0.1 0-0.1 0-0.2 0-0.1 0.1-0.2 0.1-0.3 0-0.1-0.1-0.1-0.1-0.2 0-0.1 0-0.2 0-0.3 0-0.2 0-0.4-0.1-0.5 -0.4-0.7-1.2-0.9-2-0.8 -0.2 0-0.3 0.1-0.4 0.2 -0.2 0.1-0.1 0.2-0.3 0.2 -0.1 0-0.2 0.1-0.2 0.2 0 0.1 0 0.1 0 0.2 0 0 0 0 0 0M54.1-48.7c0 0.1 0 0.1 0 0.2 -0.1 0.1-0.1 0.1-0.2 0.1 0 0.1-0.1 0.3-0.1 0.4 -0.2 0.1 0 0.2 0 0.4 0 0.1 0 0.1 0 0.2 0 0.1 0 0.3 0.1 0.4 0.1 0.2 0.3 0.4 0.4 0.5 0.2 0.1 0.4 0.6 0.6 0.6 0.2 0 0.4-0.1 0.5-0.1 0.2 0 0.4 0 0.6-0.1 0.2-0.1 0.1-0.3 0.3-0.4 0.1-0.1 0.3 0 0.4-0.1 0.2-0.1 0.3-0.3 0.4-0.5 0-0.1 0-0.1 0-0.2 0-0.1 0.1-0.2 0.1-0.3 0-0.1-0.1-0.1-0.1-0.2 0-0.1 0-0.2 0-0.3 0-0.2 0-0.4-0.1-0.5 -0.4-0.7-1.2-0.9-2-0.8 -0.2 0-0.3 0.1-0.4 0.2 -0.2 0.1-0.1 0.2-0.3 0.2 -0.1 0-0.2 0.1-0.2 0.2 0 0.1 0 0.1 0 0.2 0 0 0 0 0 0M46.5-48.7c0 0.1 0 0.1 0 0.2 -0.1 0.1-0.1 0.1-0.2 0.1 0 0.1-0.1 0.3-0.1 0.4 -0.2 0.1 0 0.2 0 0.4 0 0.1 0 0.1 0 0.2 0 0.1 0 0.3 0.1 0.4 0.1 0.2 0.3 0.4 0.4 0.5 0.2 0.1 0.4 0.6 0.6 0.6 0.2 0 0.4-0.1 0.5-0.1 0.2 0 0.4 0 0.6-0.1 0.2-0.1 0.1-0.3 0.3-0.4 0.1-0.1 0.3 0 0.4-0.1 0.2-0.1 0.3-0.3 0.4-0.5 0-0.1 0-0.1 0-0.2 0-0.1 0.1-0.2 0.1-0.3 0-0.1-0.1-0.1-0.1-0.2 0-0.1 0-0.2 0-0.3 0-0.2 0-0.4-0.1-0.5 -0.4-0.7-1.2-0.9-2-0.8 -0.2 0-0.3 0.1-0.4 0.2 -0.2 0.1-0.1 0.2-0.3 0.2 -0.1 0-0.2 0.1-0.2 0.2 0 0.1 0 0.1 0 0.2 0 0 0 0 0 0M38.8-48.7c0 0.1 0 0.1 0 0.2 -0.1 0.1-0.1 0.1-0.2 0.1 0 0.1-0.1 0.3-0.1 0.4 -0.2 0.1 0 0.2 0 0.4 0 0.1 0 0.1 0 0.2 0 0.1 0 0.3 0.1 0.4 0.1 0.2 0.3 0.4 0.4 0.5 0.2 0.1 0.4 0.6 0.6 0.6 0.2 0 0.4-0.1 0.5-0.1 0.2 0 0.4 0 0.6-0.1 0.2-0.1 0.1-0.3 0.3-0.4 0.1-0.1 0.3 0 0.4-0.1 0.2-0.1 0.3-0.3 0.4-0.5 0-0.1 0-0.1 0-0.2 0-0.1 0.1-0.2 0.1-0.3 0-0.1-0.1-0.1-0.1-0.2 0-0.1 0-0.2 0-0.3 0-0.2 0-0.4-0.1-0.5 -0.4-0.7-1.2-0.9-2-0.8 -0.2 0-0.3 0.1-0.4 0.2 -0.2 0.1-0.1 0.2-0.3 0.2 -0.1 0-0.2 0.1-0.2 0.2 0 0.1 0 0.1 0 0.2 0 0 0 0 0 0M31.1-48.7c0 0.1 0 0.1 0 0.2 -0.1 0.1-0.1 0.1-0.2 0.1 0 0.1-0.1 0.3-0.1 0.4 -0.2 0.1 0 0.2 0 0.4 0 0.1 0 0.1 0 0.2 0 0.1 0 0.3 0.1 0.4 0.1 0.2 0.3 0.4 0.4 0.5 0.2 0.1 0.4 0.6 0.6 0.6 0.2 0 0.4-0.1 0.5-0.1 0.2 0 0.4 0 0.6-0.1 0.2-0.1 0.1-0.3 0.3-0.4 0.1-0.1 0.3 0 0.4-0.1 0.2-0.1 0.3-0.3 0.4-0.5 0-0.1 0-0.1 0-0.2 0-0.1 0.1-0.2 0.1-0.3 0-0.1-0.1-0.1-0.1-0.2 0-0.1 0-0.2 0-0.3 0-0.2 0-0.4-0.1-0.5 -0.4-0.7-1.2-0.9-2-0.8 -0.2 0-0.3 0.1-0.4 0.2 -0.2 0.1-0.1 0.2-0.3 0.2 -0.1 0-0.2 0.1-0.2 0.2 0 0.1 0 0.1 0 0.2 0 0 0 0 0 0M23.5-48.7c0 0.1 0 0.1 0 0.2 -0.1 0.1-0.1 0.1-0.2 0.1 0 0.1-0.1 0.3-0.1 0.4 -0.2 0.1 0 0.2 0 0.4 0 0.1 0 0.1 0 0.2 0 0.1 0 0.3 0.1 0.4 0.1 0.2 0.3 0.4 0.4 0.5 0.2 0.1 0.4 0.6 0.6 0.6 0.2 0 0.4-0.1 0.5-0.1 0.2 0 0.4 0 0.6-0.1 0.2-0.1 0.1-0.3 0.3-0.4 0.1-0.1 0.3 0 0.4-0.1 0.2-0.1 0.3-0.3 0.4-0.5 0-0.1 0-0.1 0-0.2 0-0.1 0.1-0.2 0.1-0.3 0-0.1-0.1-0.1-0.1-0.2 0-0.1 0-0.2 0-0.3 0-0.2 0-0.4-0.1-0.5 -0.4-0.7-1.2-0.9-2-0.8 -0.2 0-0.3 0.1-0.4 0.2 -0.2 0.1-0.1 0.2-0.3 0.2 -0.1 0-0.2 0.1-0.2 0.2 0 0.1 0 0.1 0 0.2 0 0 0 0 0 0M15.8-48.7c0 0.1 0 0.1 0 0.2 -0.1 0.1-0.1 0.1-0.2 0.1 0 0.1-0.1 0.3-0.1 0.4 -0.2 0.1 0 0.2 0 0.4 0 0.1 0 0.1 0 0.2 0 0.1 0 0.3 0.1 0.4 0.1 0.2 0.3 0.4 0.4 0.5 0.2 0.1 0.4 0.6 0.6 0.6 0.2 0 0.4-0.1 0.5-0.1 0.2 0 0.4 0 0.6-0.1 0.2-0.1 0.1-0.3 0.3-0.4 0.1-0.1 0.3 0 0.4-0.1 0.2-0.1 0.3-0.3 0.4-0.5 0-0.1 0-0.1 0-0.2 0-0.1 0.1-0.2 0.1-0.3 0-0.1-0.1-0.1-0.1-0.2 0-0.1 0-0.2 0-0.3 0-0.2 0-0.4-0.1-0.5 -0.4-0.7-1.2-0.9-2-0.8 -0.2 0-0.3 0.1-0.4 0.2 -0.2 0.1-0.1 0.2-0.3 0.2 -0.1 0-0.2 0.1-0.2 0.2 0 0.1 0 0.1 0 0.2 0 0 0 0 0 0M8.2-48.7c0 0.1 0 0.1 0 0.2 -0.1 0.1-0.1 0.1-0.2 0.1 0 0.1-0.1 0.3-0.1 0.4 -0.2 0.1 0 0.2 0 0.4 0 0.1 0 0.1 0 0.2 0 0.1 0 0.3 0.1 0.4 0.1 0.2 0.3 0.4 0.4 0.5 0.2 0.1 0.4 0.6 0.6 0.6 0.2 0 0.4-0.1 0.5-0.1 0.2 0 0.4 0 0.6-0.1 0.2-0.1 0.1-0.3 0.3-0.4 0.1-0.1 0.3 0 0.4-0.1 0.2-0.1 0.3-0.3 0.4-0.5 0-0.1 0-0.1 0-0.2 0-0.1 0.1-0.2 0.1-0.3 0-0.1-0.1-0.1-0.1-0.2 0-0.1 0-0.2 0-0.3 0-0.2 0-0.4-0.1-0.5 -0.4-0.7-1.2-0.9-2-0.8 -0.2 0-0.3 0.1-0.4 0.2 -0.2 0.1-0.1 0.2-0.3 0.2 -0.1 0-0.2 0.1-0.2 0.2 0 0.1 0 0.1 0 0.2 0 0 0 0 0 0M0.5-48.7c0 0.1 0 0.1 0 0.2 -0.1 0.1-0.1 0.1-0.2 0.1 0 0.1-0.1 0.3-0.1 0.4 -0.2 0.1 0 0.2 0 0.4 0 0.1 0 0.1 0 0.2 0 0.1 0 0.3 0.1 0.4 0.1 0.2 0.3 0.4 0.4 0.5 0.2 0.1 0.4 0.6 0.6 0.6 0.2 0 0.4-0.1 0.5-0.1 0.2 0 0.4 0 0.6-0.1 0.2-0.1 0.1-0.3 0.3-0.4 0.1-0.1 0.3 0 0.4-0.1 0.2-0.1 0.3-0.3 0.4-0.5 0-0.1 0-0.1 0-0.2 0-0.1 0.1-0.2 0.1-0.3 0-0.1-0.1-0.1-0.1-0.2 0-0.1 0-0.2 0-0.3 0-0.2 0-0.4-0.1-0.5 -0.4-0.7-1.2-0.9-2-0.8 -0.2 0-0.3 0.1-0.4 0.2 -0.2 0.1-0.1 0.2-0.3 0.2 -0.1 0-0.2 0.1-0.2 0.2 0 0.1 0 0.1 0 0.2 0 0 0 0 0 0"/><path fill="#FFFFFF" d="M69.4-41c0 0.1 0 0.1 0 0.2 -0.1 0.1-0.1 0.1-0.2 0.1 0 0.1-0.1 0.3-0.1 0.4 -0.2 0.1 0 0.2 0 0.4 0 0.1 0 0.1 0 0.2 0 0.1 0 0.3 0.1 0.4 0.1 0.2 0.3 0.4 0.4 0.5 0.2 0.1 0.4 0.6 0.6 0.6 0.2 0 0.4-0.1 0.5-0.1 0.2 0 0.4 0 0.6-0.1 0.2-0.1 0.1-0.3 0.3-0.4 0.1-0.1 0.3 0 0.4-0.1 0.2-0.1 0.3-0.3 0.4-0.5 0-0.1 0-0.1 0-0.2 0-0.1 0.1-0.2 0.1-0.3 0-0.1-0.1-0.1-0.1-0.2 0-0.1 0-0.2 0-0.3 0-0.2 0-0.4-0.1-0.5 -0.4-0.7-1.2-0.9-2-0.8 -0.2 0-0.3 0.1-0.4 0.2 -0.2 0.1-0.1 0.2-0.3 0.2 -0.1 0-0.2 0.1-0.2 0.2 0 0.1 0 0.1 0 0.2 0 0 0 0 0 0M61.8-41c0 0.1 0 0.1 0 0.2 -0.1 0.1-0.1 0.1-0.2 0.1 0 0.1-0.1 0.3-0.1 0.4 -0.2 0.1 0 0.2 0 0.4 0 0.1 0 0.1 0 0.2 0 0.1 0 0.3 0.1 0.4 0.1 0.2 0.3 0.4 0.4 0.5 0.2 0.1 0.4 0.6 0.6 0.6 0.2 0 0.4-0.1 0.5-0.1 0.2 0 0.4 0 0.6-0.1 0.2-0.1 0.1-0.3 0.3-0.4 0.1-0.1 0.3 0 0.4-0.1 0.2-0.1 0.3-0.3 0.4-0.5 0-0.1 0-0.1 0-0.2 0-0.1 0.1-0.2 0.1-0.3 0-0.1-0.1-0.1-0.1-0.2 0-0.1 0-0.2 0-0.3 0-0.2 0-0.4-0.1-0.5 -0.4-0.7-1.2-0.9-2-0.8 -0.2 0-0.3 0.1-0.4 0.2 -0.2 0.1-0.1 0.2-0.3 0.2 -0.1 0-0.2 0.1-0.2 0.2 0 0.1 0 0.1 0 0.2 0 0 0 0 0 0M54.1-41c0 0.1 0 0.1 0 0.2 -0.1 0.1-0.1 0.1-0.2 0.1 0 0.1-0.1 0.3-0.1 0.4 -0.2 0.1 0 0.2 0 0.4 0 0.1 0 0.1 0 0.2 0 0.1 0 0.3 0.1 0.4 0.1 0.2 0.3 0.4 0.4 0.5 0.2 0.1 0.4 0.6 0.6 0.6 0.2 0 0.4-0.1 0.5-0.1 0.2 0 0.4 0 0.6-0.1 0.2-0.1 0.1-0.3 0.3-0.4 0.1-0.1 0.3 0 0.4-0.1 0.2-0.1 0.3-0.3 0.4-0.5 0-0.1 0-0.1 0-0.2 0-0.1 0.1-0.2 0.1-0.3 0-0.1-0.1-0.1-0.1-0.2 0-0.1 0-0.2 0-0.3 0-0.2 0-0.4-0.1-0.5 -0.4-0.7-1.2-0.9-2-0.8 -0.2 0-0.3 0.1-0.4 0.2 -0.2 0.1-0.1 0.2-0.3 0.2 -0.1 0-0.2 0.1-0.2 0.2 0 0.1 0 0.1 0 0.2 0 0 0 0 0 0M46.5-41c0 0.1 0 0.1 0 0.2 -0.1 0.1-0.1 0.1-0.2 0.1 0 0.1-0.1 0.3-0.1 0.4 -0.2 0.1 0 0.2 0 0.4 0 0.1 0 0.1 0 0.2 0 0.1 0 0.3 0.1 0.4 0.1 0.2 0.3 0.4 0.4 0.5 0.2 0.1 0.4 0.6 0.6 0.6 0.2 0 0.4-0.1 0.5-0.1 0.2 0 0.4 0 0.6-0.1 0.2-0.1 0.1-0.3 0.3-0.4 0.1-0.1 0.3 0 0.4-0.1 0.2-0.1 0.3-0.3 0.4-0.5 0-0.1 0-0.1 0-0.2 0-0.1 0.1-0.2 0.1-0.3 0-0.1-0.1-0.1-0.1-0.2 0-0.1 0-0.2 0-0.3 0-0.2 0-0.4-0.1-0.5 -0.4-0.7-1.2-0.9-2-0.8 -0.2 0-0.3 0.1-0.4 0.2 -0.2 0.1-0.1 0.2-0.3 0.2 -0.1 0-0.2 0.1-0.2 0.2 0 0.1 0 0.1 0 0.2 0 0 0 0 0 0M38.8-41c0 0.1 0 0.1 0 0.2 -0.1 0.1-0.1 0.1-0.2 0.1 0 0.1-0.1 0.3-0.1 0.4 -0.2 0.1 0 0.2 0 0.4 0 0.1 0 0.1 0 0.2 0 0.1 0 0.3 0.1 0.4 0.1 0.2 0.3 0.4 0.4 0.5 0.2 0.1 0.4 0.6 0.6 0.6 0.2 0 0.4-0.1 0.5-0.1 0.2 0 0.4 0 0.6-0.1 0.2-0.1 0.1-0.3 0.3-0.4 0.1-0.1 0.3 0 0.4-0.1 0.2-0.1 0.3-0.3 0.4-0.5 0-0.1 0-0.1 0-0.2 0-0.1 0.1-0.2 0.1-0.3 0-0.1-0.1-0.1-0.1-0.2 0-0.1 0-0.2 0-0.3 0-0.2 0-0.4-0.1-0.5 -0.4-0.7-1.2-0.9-2-0.8 -0.2 0-0.3 0.1-0.4 0.2 -0.2 0.1-0.1 0.2-0.3 0.2 -0.1 0-0.2 0.1-0.2 0.2 0 0.1 0 0.1 0 0.2 0 0 0 0 0 0M31.1-41c0 0.1 0 0.1 0 0.2 -0.1 0.1-0.1 0.1-0.2 0.1 0 0.1-0.1 0.3-0.1 0.4 -0.2 0.1 0 0.2 0 0.4 0 0.1 0 0.1 0 0.2 0 0.1 0 0.3 0.1 0.4 0.1 0.2 0.3 0.4 0.4 0.5 0.2 0.1 0.4 0.6 0.6 0.6 0.2 0 0.4-0.1 0.5-0.1 0.2 0 0.4 0 0.6-0.1 0.2-0.1 0.1-0.3 0.3-0.4 0.1-0.1 0.3 0 0.4-0.1 0.2-0.1 0.3-0.3 0.4-0.5 0-0.1 0-0.1 0-0.2 0-0.1 0.1-0.2 0.1-0.3 0-0.1-0.1-0.1-0.1-0.2 0-0.1 0-0.2 0-0.3 0-0.2 0-0.4-0.1-0.5 -0.4-0.7-1.2-0.9-2-0.8 -0.2 0-0.3 0.1-0.4 0.2 -0.2 0.1-0.1 0.2-0.3 0.2 -0.1 0-0.2 0.1-0.2 0.2 0 0.1 0 0.1 0 0.2 0 0 0 0 0 0M23.5-41c0 0.1 0 0.1 0 0.2 -0.1 0.1-0.1 0.1-0.2 0.1 0 0.1-0.1 0.3-0.1 0.4 -0.2 0.1 0 0.2 0 0.4 0 0.1 0 0.1 0 0.2 0 0.1 0 0.3 0.1 0.4 0.1 0.2 0.3 0.4 0.4 0.5 0.2 0.1 0.4 0.6 0.6 0.6 0.2 0 0.4-0.1 0.5-0.1 0.2 0 0.4 0 0.6-0.1 0.2-0.1 0.1-0.3 0.3-0.4 0.1-0.1 0.3 0 0.4-0.1 0.2-0.1 0.3-0.3 0.4-0.5 0-0.1 0-0.1 0-0.2 0-0.1 0.1-0.2 0.1-0.3 0-0.1-0.1-0.1-0.1-0.2 0-0.1 0-0.2 0-0.3 0-0.2 0-0.4-0.1-0.5 -0.4-0.7-1.2-0.9-2-0.8 -0.2 0-0.3 0.1-0.4 0.2 -0.2 0.1-0.1 0.2-0.3 0.2 -0.1 0-0.2 0.1-0.2 0.2 0 0.1 0 0.1 0 0.2 0 0 0 0 0 0M15.8-41c0 0.1 0 0.1 0 0.2 -0.1 0.1-0.1 0.1-0.2 0.1 0 0.1-0.1 0.3-0.1 0.4 -0.2 0.1 0 0.2 0 0.4 0 0.1 0 0.1 0 0.2 0 0.1 0 0.3 0.1 0.4 0.1 0.2 0.3 0.4 0.4 0.5 0.2 0.1 0.4 0.6 0.6 0.6 0.2 0 0.4-0.1 0.5-0.1 0.2 0 0.4 0 0.6-0.1 0.2-0.1 0.1-0.3 0.3-0.4 0.1-0.1 0.3 0 0.4-0.1 0.2-0.1 0.3-0.3 0.4-0.5 0-0.1 0-0.1 0-0.2 0-0.1 0.1-0.2 0.1-0.3 0-0.1-0.1-0.1-0.1-0.2 0-0.1 0-0.2 0-0.3 0-0.2 0-0.4-0.1-0.5 -0.4-0.7-1.2-0.9-2-0.8 -0.2 0-0.3 0.1-0.4 0.2 -0.2 0.1-0.1 0.2-0.3 0.2 -0.1 0-0.2 0.1-0.2 0.2 0 0.1 0 0.1 0 0.2 0 0 0 0 0 0M8.2-41c0 0.1 0 0.1 0 0.2 -0.1 0.1-0.1 0.1-0.2 0.1 0 0.1-0.1 0.3-0.1 0.4 -0.2 0.1 0 0.2 0 0.4 0 0.1 0 0.1 0 0.2 0 0.1 0 0.3 0.1 0.4 0.1 0.2 0.3 0.4 0.4 0.5 0.2 0.1 0.4 0.6 0.6 0.6 0.2 0 0.4-0.1 0.5-0.1 0.2 0 0.4 0 0.6-0.1 0.2-0.1 0.1-0.3 0.3-0.4 0.1-0.1 0.3 0 0.4-0.1 0.2-0.1 0.3-0.3 0.4-0.5 0-0.1 0-0.1 0-0.2 0-0.1 0.1-0.2 0.1-0.3 0-0.1-0.1-0.1-0.1-0.2 0-0.1 0-0.2 0-0.3 0-0.2 0-0.4-0.1-0.5 -0.4-0.7-1.2-0.9-2-0.8 -0.2 0-0.3 0.1-0.4 0.2 -0.2 0.1-0.1 0.2-0.3 0.2 -0.1 0-0.2 0.1-0.2 0.2 0 0.1 0 0.1 0 0.2C8.2-41 8.1-41 8.1-41M0.5-41c0 0.1 0 0.1 0 0.2 -0.1 0.1-0.1 0.1-0.2 0.1 0 0.1-0.1 0.3-0.1 0.4 -0.2 0.1 0 0.2 0 0.4 0 0.1 0 0.1 0 0.2 0 0.1 0 0.3 0.1 0.4 0.1 0.2 0.3 0.4 0.4 0.5 0.2 0.1 0.4 0.6 0.6 0.6 0.2 0 0.4-0.1 0.5-0.1 0.2 0 0.4 0 0.6-0.1 0.2-0.1 0.1-0.3 0.3-0.4 0.1-0.1 0.3 0 0.4-0.1 0.2-0.1 0.3-0.3 0.4-0.5 0-0.1 0-0.1 0-0.2 0-0.1 0.1-0.2 0.1-0.3 0-0.1-0.1-0.1-0.1-0.2 0-0.1 0-0.2 0-0.3 0-0.2 0-0.4-0.1-0.5 -0.4-0.7-1.2-0.9-2-0.8 -0.2 0-0.3 0.1-0.4 0.2 -0.2 0.1-0.1 0.2-0.3 0.2 -0.1 0-0.2 0.1-0.2 0.2 0 0.1 0 0.1 0 0.2 0 0 0 0 0 0"/><path fill="#FFFFFF" d="M69.4-33.4c0 0.1 0 0.1 0 0.2 -0.1 0.1-0.1 0.1-0.2 0.1 0 0.1-0.1 0.3-0.1 0.4 -0.2 0.1 0 0.2 0 0.4 0 0.1 0 0.1 0 0.2 0 0.1 0 0.3 0.1 0.4 0.1 0.2 0.3 0.4 0.4 0.5 0.2 0.1 0.4 0.6 0.6 0.6 0.2 0 0.4-0.1 0.5-0.1 0.2 0 0.4 0 0.6-0.1 0.2-0.1 0.1-0.3 0.3-0.4 0.1-0.1 0.3 0 0.4-0.1 0.2-0.1 0.3-0.3 0.4-0.5 0-0.1 0-0.1 0-0.2 0-0.1 0.1-0.2 0.1-0.3 0-0.1-0.1-0.1-0.1-0.2 0-0.1 0-0.2 0-0.3 0-0.2 0-0.4-0.1-0.5 -0.4-0.7-1.2-0.9-2-0.8 -0.2 0-0.3 0.1-0.4 0.2 -0.2 0.1-0.1 0.2-0.3 0.2 -0.1 0-0.2 0.1-0.2 0.2 0 0.1 0 0.1 0 0.2 0 0 0 0 0 0M61.8-33.4c0 0.1 0 0.1 0 0.2 -0.1 0.1-0.1 0.1-0.2 0.1 0 0.1-0.1 0.3-0.1 0.4 -0.2 0.1 0 0.2 0 0.4 0 0.1 0 0.1 0 0.2 0 0.1 0 0.3 0.1 0.4 0.1 0.2 0.3 0.4 0.4 0.5 0.2 0.1 0.4 0.6 0.6 0.6 0.2 0 0.4-0.1 0.5-0.1 0.2 0 0.4 0 0.6-0.1 0.2-0.1 0.1-0.3 0.3-0.4 0.1-0.1 0.3 0 0.4-0.1 0.2-0.1 0.3-0.3 0.4-0.5 0-0.1 0-0.1 0-0.2 0-0.1 0.1-0.2 0.1-0.3 0-0.1-0.1-0.1-0.1-0.2 0-0.1 0-0.2 0-0.3 0-0.2 0-0.4-0.1-0.5 -0.4-0.7-1.2-0.9-2-0.8 -0.2 0-0.3 0.1-0.4 0.2 -0.2 0.1-0.1 0.2-0.3 0.2 -0.1 0-0.2 0.1-0.2 0.2 0 0.1 0 0.1 0 0.2 0 0 0 0 0 0M54.1-33.4c0 0.1 0 0.1 0 0.2 -0.1 0.1-0.1 0.1-0.2 0.1 0 0.1-0.1 0.3-0.1 0.4 -0.2 0.1 0 0.2 0 0.4 0 0.1 0 0.1 0 0.2 0 0.1 0 0.3 0.1 0.4 0.1 0.2 0.3 0.4 0.4 0.5 0.2 0.1 0.4 0.6 0.6 0.6 0.2 0 0.4-0.1 0.5-0.1 0.2 0 0.4 0 0.6-0.1 0.2-0.1 0.1-0.3 0.3-0.4 0.1-0.1 0.3 0 0.4-0.1 0.2-0.1 0.3-0.3 0.4-0.5 0-0.1 0-0.1 0-0.2 0-0.1 0.1-0.2 0.1-0.3 0-0.1-0.1-0.1-0.1-0.2 0-0.1 0-0.2 0-0.3 0-0.2 0-0.4-0.1-0.5 -0.4-0.7-1.2-0.9-2-0.8 -0.2 0-0.3 0.1-0.4 0.2 -0.2 0.1-0.1 0.2-0.3 0.2 -0.1 0-0.2 0.1-0.2 0.2 0 0.1 0 0.1 0 0.2 0 0 0 0 0 0M46.5-33.4c0 0.1 0 0.1 0 0.2 -0.1 0.1-0.1 0.1-0.2 0.1 0 0.1-0.1 0.3-0.1 0.4 -0.2 0.1 0 0.2 0 0.4 0 0.1 0 0.1 0 0.2 0 0.1 0 0.3 0.1 0.4 0.1 0.2 0.3 0.4 0.4 0.5 0.2 0.1 0.4 0.6 0.6 0.6 0.2 0 0.4-0.1 0.5-0.1 0.2 0 0.4 0 0.6-0.1 0.2-0.1 0.1-0.3 0.3-0.4 0.1-0.1 0.3 0 0.4-0.1 0.2-0.1 0.3-0.3 0.4-0.5 0-0.1 0-0.1 0-0.2 0-0.1 0.1-0.2 0.1-0.3 0-0.1-0.1-0.1-0.1-0.2 0-0.1 0-0.2 0-0.3 0-0.2 0-0.4-0.1-0.5 -0.4-0.7-1.2-0.9-2-0.8 -0.2 0-0.3 0.1-0.4 0.2 -0.2 0.1-0.1 0.2-0.3 0.2 -0.1 0-0.2 0.1-0.2 0.2 0 0.1 0 0.1 0 0.2 0 0 0 0 0 0M38.8-33.4c0 0.1 0 0.1 0 0.2 -0.1 0.1-0.1 0.1-0.2 0.1 0 0.1-0.1 0.3-0.1 0.4 -0.2 0.1 0 0.2 0 0.4 0 0.1 0 0.1 0 0.2 0 0.1 0 0.3 0.1 0.4 0.1 0.2 0.3 0.4 0.4 0.5 0.2 0.1 0.4 0.6 0.6 0.6 0.2 0 0.4-0.1 0.5-0.1 0.2 0 0.4 0 0.6-0.1 0.2-0.1 0.1-0.3 0.3-0.4 0.1-0.1 0.3 0 0.4-0.1 0.2-0.1 0.3-0.3 0.4-0.5 0-0.1 0-0.1 0-0.2 0-0.1 0.1-0.2 0.1-0.3 0-0.1-0.1-0.1-0.1-0.2 0-0.1 0-0.2 0-0.3 0-0.2 0-0.4-0.1-0.5 -0.4-0.7-1.2-0.9-2-0.8 -0.2 0-0.3 0.1-0.4 0.2 -0.2 0.1-0.1 0.2-0.3 0.2 -0.1 0-0.2 0.1-0.2 0.2 0 0.1 0 0.1 0 0.2 0 0 0 0 0 0M31.1-33.4c0 0.1 0 0.1 0 0.2 -0.1 0.1-0.1 0.1-0.2 0.1 0 0.1-0.1 0.3-0.1 0.4 -0.2 0.1 0 0.2 0 0.4 0 0.1 0 0.1 0 0.2 0 0.1 0 0.3 0.1 0.4 0.1 0.2 0.3 0.4 0.4 0.5 0.2 0.1 0.4 0.6 0.6 0.6 0.2 0 0.4-0.1 0.5-0.1 0.2 0 0.4 0 0.6-0.1 0.2-0.1 0.1-0.3 0.3-0.4 0.1-0.1 0.3 0 0.4-0.1 0.2-0.1 0.3-0.3 0.4-0.5 0-0.1 0-0.1 0-0.2 0-0.1 0.1-0.2 0.1-0.3 0-0.1-0.1-0.1-0.1-0.2 0-0.1 0-0.2 0-0.3 0-0.2 0-0.4-0.1-0.5 -0.4-0.7-1.2-0.9-2-0.8 -0.2 0-0.3 0.1-0.4 0.2 -0.2 0.1-0.1 0.2-0.3 0.2 -0.1 0-0.2 0.1-0.2 0.2 0 0.1 0 0.1 0 0.2 0 0 0 0 0 0M23.5-33.4c0 0.1 0 0.1 0 0.2 -0.1 0.1-0.1 0.1-0.2 0.1 0 0.1-0.1 0.3-0.1 0.4 -0.2 0.1 0 0.2 0 0.4 0 0.1 0 0.1 0 0.2 0 0.1 0 0.3 0.1 0.4 0.1 0.2 0.3 0.4 0.4 0.5 0.2 0.1 0.4 0.6 0.6 0.6 0.2 0 0.4-0.1 0.5-0.1 0.2 0 0.4 0 0.6-0.1 0.2-0.1 0.1-0.3 0.3-0.4 0.1-0.1 0.3 0 0.4-0.1 0.2-0.1 0.3-0.3 0.4-0.5 0-0.1 0-0.1 0-0.2 0-0.1 0.1-0.2 0.1-0.3 0-0.1-0.1-0.1-0.1-0.2 0-0.1 0-0.2 0-0.3 0-0.2 0-0.4-0.1-0.5 -0.4-0.7-1.2-0.9-2-0.8 -0.2 0-0.3 0.1-0.4 0.2 -0.2 0.1-0.1 0.2-0.3 0.2 -0.1 0-0.2 0.1-0.2 0.2 0 0.1 0 0.1 0 0.2 0 0 0 0 0 0M15.8-33.4c0 0.1 0 0.1 0 0.2 -0.1 0.1-0.1 0.1-0.2 0.1 0 0.1-0.1 0.3-0.1 0.4 -0.2 0.1 0 0.2 0 0.4 0 0.1 0 0.1 0 0.2 0 0.1 0 0.3 0.1 0.4 0.1 0.2 0.3 0.4 0.4 0.5 0.2 0.1 0.4 0.6 0.6 0.6 0.2 0 0.4-0.1 0.5-0.1 0.2 0 0.4 0 0.6-0.1 0.2-0.1 0.1-0.3 0.3-0.4 0.1-0.1 0.3 0 0.4-0.1 0.2-0.1 0.3-0.3 0.4-0.5 0-0.1 0-0.1 0-0.2 0-0.1 0.1-0.2 0.1-0.3 0-0.1-0.1-0.1-0.1-0.2 0-0.1 0-0.2 0-0.3 0-0.2 0-0.4-0.1-0.5 -0.4-0.7-1.2-0.9-2-0.8 -0.2 0-0.3 0.1-0.4 0.2 -0.2 0.1-0.1 0.2-0.3 0.2 -0.1 0-0.2 0.1-0.2 0.2 0 0.1 0 0.1 0 0.2 0 0 0 0 0 0M8.2-33.4c0 0.1 0 0.1 0 0.2 -0.1 0.1-0.1 0.1-0.2 0.1 0 0.1-0.1 0.3-0.1 0.4 -0.2 0.1 0 0.2 0 0.4 0 0.1 0 0.1 0 0.2 0 0.1 0 0.3 0.1 0.4 0.1 0.2 0.3 0.4 0.4 0.5 0.2 0.1 0.4 0.6 0.6 0.6 0.2 0 0.4-0.1 0.5-0.1 0.2 0 0.4 0 0.6-0.1 0.2-0.1 0.1-0.3 0.3-0.4 0.1-0.1 0.3 0 0.4-0.1 0.2-0.1 0.3-0.3 0.4-0.5 0-0.1 0-0.1 0-0.2 0-0.1 0.1-0.2 0.1-0.3 0-0.1-0.1-0.1-0.1-0.2 0-0.1 0-0.2 0-0.3 0-0.2 0-0.4-0.1-0.5 -0.4-0.7-1.2-0.9-2-0.8 -0.2 0-0.3 0.1-0.4 0.2 -0.2 0.1-0.1 0.2-0.3 0.2 -0.1 0-0.2 0.1-0.2 0.2 0 0.1 0 0.1 0 0.2 0 0 0 0 0 0M0.5-33.4c0 0.1 0 0.1 0 0.2 -0.1 0.1-0.1 0.1-0.2 0.1 0 0.1-0.1 0.3-0.1 0.4 -0.2 0.1 0 0.2 0 0.4 0 0.1 0 0.1 0 0.2 0 0.1 0 0.3 0.1 0.4 0.1 0.2 0.3 0.4 0.4 0.5 0.2 0.1 0.4 0.6 0.6 0.6 0.2 0 0.4-0.1 0.5-0.1 0.2 0 0.4 0 0.6-0.1 0.2-0.1 0.1-0.3 0.3-0.4 0.1-0.1 0.3 0 0.4-0.1 0.2-0.1 0.3-0.3 0.4-0.5 0-0.1 0-0.1 0-0.2 0-0.1 0.1-0.2 0.1-0.3 0-0.1-0.1-0.1-0.1-0.2 0-0.1 0-0.2 0-0.3 0-0.2 0-0.4-0.1-0.5 -0.4-0.7-1.2-0.9-2-0.8 -0.2 0-0.3 0.1-0.4 0.2 -0.2 0.1-0.1 0.2-0.3 0.2 -0.1 0-0.2 0.1-0.2 0.2C0.5-33.4 0.5-33.5 0.5-33.4c0 0 0 0 0 0"/><path fill="#FFFFFF" d="M69.4-25.7c0 0.1 0 0.1 0 0.2 -0.1 0.1-0.1 0.1-0.2 0.1 0 0.1-0.1 0.3-0.1 0.4 -0.2 0.1 0 0.2 0 0.4 0 0.1 0 0.1 0 0.2 0 0.1 0 0.3 0.1 0.4 0.1 0.2 0.3 0.4 0.4 0.5 0.2 0.1 0.4 0.6 0.6 0.6 0.2 0 0.4-0.1 0.5-0.1 0.2 0 0.4 0 0.6-0.1 0.2-0.1 0.1-0.3 0.3-0.4 0.1-0.1 0.3 0 0.4-0.1 0.2-0.1 0.3-0.3 0.4-0.5 0-0.1 0-0.1 0-0.2 0-0.1 0.1-0.2 0.1-0.3 0-0.1-0.1-0.1-0.1-0.2 0-0.1 0-0.2 0-0.3 0-0.2 0-0.4-0.1-0.5 -0.4-0.7-1.2-0.9-2-0.8 -0.2 0-0.3 0.1-0.4 0.2 -0.2 0.1-0.1 0.2-0.3 0.2 -0.1 0-0.2 0.1-0.2 0.2 0 0.1 0 0.1 0 0.2 0 0 0 0 0 0M61.8-25.7c0 0.1 0 0.1 0 0.2 -0.1 0.1-0.1 0.1-0.2 0.1 0 0.1-0.1 0.3-0.1 0.4 -0.2 0.1 0 0.2 0 0.4 0 0.1 0 0.1 0 0.2 0 0.1 0 0.3 0.1 0.4 0.1 0.2 0.3 0.4 0.4 0.5 0.2 0.1 0.4 0.6 0.6 0.6 0.2 0 0.4-0.1 0.5-0.1 0.2 0 0.4 0 0.6-0.1 0.2-0.1 0.1-0.3 0.3-0.4 0.1-0.1 0.3 0 0.4-0.1 0.2-0.1 0.3-0.3 0.4-0.5 0-0.1 0-0.1 0-0.2 0-0.1 0.1-0.2 0.1-0.3 0-0.1-0.1-0.1-0.1-0.2 0-0.1 0-0.2 0-0.3 0-0.2 0-0.4-0.1-0.5 -0.4-0.7-1.2-0.9-2-0.8 -0.2 0-0.3 0.1-0.4 0.2 -0.2 0.1-0.1 0.2-0.3 0.2 -0.1 0-0.2 0.1-0.2 0.2 0 0.1 0 0.1 0 0.2 0 0 0 0 0 0M54.1-25.7c0 0.1 0 0.1 0 0.2 -0.1 0.1-0.1 0.1-0.2 0.1 0 0.1-0.1 0.3-0.1 0.4 -0.2 0.1 0 0.2 0 0.4 0 0.1 0 0.1 0 0.2 0 0.1 0 0.3 0.1 0.4 0.1 0.2 0.3 0.4 0.4 0.5 0.2 0.1 0.4 0.6 0.6 0.6 0.2 0 0.4-0.1 0.5-0.1 0.2 0 0.4 0 0.6-0.1 0.2-0.1 0.1-0.3 0.3-0.4 0.1-0.1 0.3 0 0.4-0.1 0.2-0.1 0.3-0.3 0.4-0.5 0-0.1 0-0.1 0-0.2 0-0.1 0.1-0.2 0.1-0.3 0-0.1-0.1-0.1-0.1-0.2 0-0.1 0-0.2 0-0.3 0-0.2 0-0.4-0.1-0.5 -0.4-0.7-1.2-0.9-2-0.8 -0.2 0-0.3 0.1-0.4 0.2 -0.2 0.1-0.1 0.2-0.3 0.2 -0.1 0-0.2 0.1-0.2 0.2 0 0.1 0 0.1 0 0.2 0 0 0 0 0 0M46.5-25.7c0 0.1 0 0.1 0 0.2 -0.1 0.1-0.1 0.1-0.2 0.1 0 0.1-0.1 0.3-0.1 0.4 -0.2 0.1 0 0.2 0 0.4 0 0.1 0 0.1 0 0.2 0 0.1 0 0.3 0.1 0.4 0.1 0.2 0.3 0.4 0.4 0.5 0.2 0.1 0.4 0.6 0.6 0.6 0.2 0 0.4-0.1 0.5-0.1 0.2 0 0.4 0 0.6-0.1 0.2-0.1 0.1-0.3 0.3-0.4 0.1-0.1 0.3 0 0.4-0.1 0.2-0.1 0.3-0.3 0.4-0.5 0-0.1 0-0.1 0-0.2 0-0.1 0.1-0.2 0.1-0.3 0-0.1-0.1-0.1-0.1-0.2 0-0.1 0-0.2 0-0.3 0-0.2 0-0.4-0.1-0.5 -0.4-0.7-1.2-0.9-2-0.8 -0.2 0-0.3 0.1-0.4 0.2 -0.2 0.1-0.1 0.2-0.3 0.2 -0.1 0-0.2 0.1-0.2 0.2 0 0.1 0 0.1 0 0.2 0 0 0 0 0 0M38.8-25.7c0 0.1 0 0.1 0 0.2 -0.1 0.1-0.1 0.1-0.2 0.1 0 0.1-0.1 0.3-0.1 0.4 -0.2 0.1 0 0.2 0 0.4 0 0.1 0 0.1 0 0.2 0 0.1 0 0.3 0.1 0.4 0.1 0.2 0.3 0.4 0.4 0.5 0.2 0.1 0.4 0.6 0.6 0.6 0.2 0 0.4-0.1 0.5-0.1 0.2 0 0.4 0 0.6-0.1 0.2-0.1 0.1-0.3 0.3-0.4 0.1-0.1 0.3 0 0.4-0.1 0.2-0.1 0.3-0.3 0.4-0.5 0-0.1 0-0.1 0-0.2 0-0.1 0.1-0.2 0.1-0.3 0-0.1-0.1-0.1-0.1-0.2 0-0.1 0-0.2 0-0.3 0-0.2 0-0.4-0.1-0.5 -0.4-0.7-1.2-0.9-2-0.8 -0.2 0-0.3 0.1-0.4 0.2 -0.2 0.1-0.1 0.2-0.3 0.2 -0.1 0-0.2 0.1-0.2 0.2 0 0.1 0 0.1 0 0.2 0 0 0 0 0 0M31.1-25.7c0 0.1 0 0.1 0 0.2 -0.1 0.1-0.1 0.1-0.2 0.1 0 0.1-0.1 0.3-0.1 0.4 -0.2 0.1 0 0.2 0 0.4 0 0.1 0 0.1 0 0.2 0 0.1 0 0.3 0.1 0.4 0.1 0.2 0.3 0.4 0.4 0.5 0.2 0.1 0.4 0.6 0.6 0.6 0.2 0 0.4-0.1 0.5-0.1 0.2 0 0.4 0 0.6-0.1 0.2-0.1 0.1-0.3 0.3-0.4 0.1-0.1 0.3 0 0.4-0.1 0.2-0.1 0.3-0.3 0.4-0.5 0-0.1 0-0.1 0-0.2 0-0.1 0.1-0.2 0.1-0.3 0-0.1-0.1-0.1-0.1-0.2 0-0.1 0-0.2 0-0.3 0-0.2 0-0.4-0.1-0.5 -0.4-0.7-1.2-0.9-2-0.8 -0.2 0-0.3 0.1-0.4 0.2 -0.2 0.1-0.1 0.2-0.3 0.2 -0.1 0-0.2 0.1-0.2 0.2 0 0.1 0 0.1 0 0.2 0 0 0 0 0 0M23.5-25.7c0 0.1 0 0.1 0 0.2 -0.1 0.1-0.1 0.1-0.2 0.1 0 0.1-0.1 0.3-0.1 0.4 -0.2 0.1 0 0.2 0 0.4 0 0.1 0 0.1 0 0.2 0 0.1 0 0.3 0.1 0.4 0.1 0.2 0.3 0.4 0.4 0.5 0.2 0.1 0.4 0.6 0.6 0.6 0.2 0 0.4-0.1 0.5-0.1 0.2 0 0.4 0 0.6-0.1 0.2-0.1 0.1-0.3 0.3-0.4 0.1-0.1 0.3 0 0.4-0.1 0.2-0.1 0.3-0.3 0.4-0.5 0-0.1 0-0.1 0-0.2 0-0.1 0.1-0.2 0.1-0.3 0-0.1-0.1-0.1-0.1-0.2 0-0.1 0-0.2 0-0.3 0-0.2 0-0.4-0.1-0.5 -0.4-0.7-1.2-0.9-2-0.8 -0.2 0-0.3 0.1-0.4 0.2 -0.2 0.1-0.1 0.2-0.3 0.2 -0.1 0-0.2 0.1-0.2 0.2 0 0.1 0 0.1 0 0.2 0 0 0 0 0 0M15.8-25.7c0 0.1 0 0.1 0 0.2 -0.1 0.1-0.1 0.1-0.2 0.1 0 0.1-0.1 0.3-0.1 0.4 -0.2 0.1 0 0.2 0 0.4 0 0.1 0 0.1 0 0.2 0 0.1 0 0.3 0.1 0.4 0.1 0.2 0.3 0.4 0.4 0.5 0.2 0.1 0.4 0.6 0.6 0.6 0.2 0 0.4-0.1 0.5-0.1 0.2 0 0.4 0 0.6-0.1 0.2-0.1 0.1-0.3 0.3-0.4 0.1-0.1 0.3 0 0.4-0.1 0.2-0.1 0.3-0.3 0.4-0.5 0-0.1 0-0.1 0-0.2 0-0.1 0.1-0.2 0.1-0.3 0-0.1-0.1-0.1-0.1-0.2 0-0.1 0-0.2 0-0.3 0-0.2 0-0.4-0.1-0.5 -0.4-0.7-1.2-0.9-2-0.8 -0.2 0-0.3 0.1-0.4 0.2 -0.2 0.1-0.1 0.2-0.3 0.2 -0.1 0-0.2 0.1-0.2 0.2 0 0.1 0 0.1 0 0.2 0 0 0 0 0 0M8.2-25.7c0 0.1 0 0.1 0 0.2 -0.1 0.1-0.1 0.1-0.2 0.1 0 0.1-0.1 0.3-0.1 0.4 -0.2 0.1 0 0.2 0 0.4 0 0.1 0 0.1 0 0.2 0 0.1 0 0.3 0.1 0.4 0.1 0.2 0.3 0.4 0.4 0.5 0.2 0.1 0.4 0.6 0.6 0.6 0.2 0 0.4-0.1 0.5-0.1 0.2 0 0.4 0 0.6-0.1 0.2-0.1 0.1-0.3 0.3-0.4 0.1-0.1 0.3 0 0.4-0.1 0.2-0.1 0.3-0.3 0.4-0.5 0-0.1 0-0.1 0-0.2 0-0.1 0.1-0.2 0.1-0.3 0-0.1-0.1-0.1-0.1-0.2 0-0.1 0-0.2 0-0.3 0-0.2 0-0.4-0.1-0.5 -0.4-0.7-1.2-0.9-2-0.8 -0.2 0-0.3 0.1-0.4 0.2 -0.2 0.1-0.1 0.2-0.3 0.2 -0.1 0-0.2 0.1-0.2 0.2 0 0.1 0 0.1 0 0.2 0 0 0 0 0 0M0.5-25.7c0 0.1 0 0.1 0 0.2 -0.1 0.1-0.1 0.1-0.2 0.1 0 0.1-0.1 0.3-0.1 0.4 -0.2 0.1 0 0.2 0 0.4 0 0.1 0 0.1 0 0.2 0 0.1 0 0.3 0.1 0.4 0.1 0.2 0.3 0.4 0.4 0.5 0.2 0.1 0.4 0.6 0.6 0.6 0.2 0 0.4-0.1 0.5-0.1 0.2 0 0.4 0 0.6-0.1 0.2-0.1 0.1-0.3 0.3-0.4 0.1-0.1 0.3 0 0.4-0.1 0.2-0.1 0.3-0.3 0.4-0.5 0-0.1 0-0.1 0-0.2 0-0.1 0.1-0.2 0.1-0.3 0-0.1-0.1-0.1-0.1-0.2 0-0.1 0-0.2 0-0.3 0-0.2 0-0.4-0.1-0.5 -0.4-0.7-1.2-0.9-2-0.8 -0.2 0-0.3 0.1-0.4 0.2 -0.2 0.1-0.1 0.2-0.3 0.2 -0.1 0-0.2 0.1-0.2 0.2 0 0.1 0 0.1 0 0.2 0 0 0 0 0 0"/><path fill="#FFFFFF" d="M69.4-18.1c0 0.1 0 0.1 0 0.2 -0.1 0.1-0.1 0.1-0.2 0.1 0 0.1-0.1 0.3-0.1 0.4 -0.2 0.1 0 0.2 0 0.4 0 0.1 0 0.1 0 0.2 0 0.1 0 0.3 0.1 0.4 0.1 0.2 0.3 0.4 0.4 0.5 0.2 0.1 0.4 0.6 0.6 0.6 0.2 0 0.4-0.1 0.5-0.1 0.2 0 0.4 0 0.6-0.1 0.2-0.1 0.1-0.3 0.3-0.4 0.1-0.1 0.3 0 0.4-0.1 0.2-0.1 0.3-0.3 0.4-0.5 0-0.1 0-0.1 0-0.2 0-0.1 0.1-0.2 0.1-0.3 0-0.1-0.1-0.1-0.1-0.2 0-0.1 0-0.2 0-0.3 0-0.2 0-0.4-0.1-0.5 -0.4-0.7-1.2-0.9-2-0.8 -0.2 0-0.3 0.1-0.4 0.2 -0.2 0.1-0.1 0.2-0.3 0.2 -0.1 0-0.2 0.1-0.2 0.2 0 0.1 0 0.1 0 0.2 0 0 0 0 0 0M61.8-18.1c0 0.1 0 0.1 0 0.2 -0.1 0.1-0.1 0.1-0.2 0.1 0 0.1-0.1 0.3-0.1 0.4 -0.2 0.1 0 0.2 0 0.4 0 0.1 0 0.1 0 0.2 0 0.1 0 0.3 0.1 0.4 0.1 0.2 0.3 0.4 0.4 0.5 0.2 0.1 0.4 0.6 0.6 0.6 0.2 0 0.4-0.1 0.5-0.1 0.2 0 0.4 0 0.6-0.1 0.2-0.1 0.1-0.3 0.3-0.4 0.1-0.1 0.3 0 0.4-0.1 0.2-0.1 0.3-0.3 0.4-0.5 0-0.1 0-0.1 0-0.2 0-0.1 0.1-0.2 0.1-0.3 0-0.1-0.1-0.1-0.1-0.2 0-0.1 0-0.2 0-0.3 0-0.2 0-0.4-0.1-0.5 -0.4-0.7-1.2-0.9-2-0.8 -0.2 0-0.3 0.1-0.4 0.2 -0.2 0.1-0.1 0.2-0.3 0.2 -0.1 0-0.2 0.1-0.2 0.2 0 0.1 0 0.1 0 0.2 0 0 0 0 0 0M54.1-18.1c0 0.1 0 0.1 0 0.2 -0.1 0.1-0.1 0.1-0.2 0.1 0 0.1-0.1 0.3-0.1 0.4 -0.2 0.1 0 0.2 0 0.4 0 0.1 0 0.1 0 0.2 0 0.1 0 0.3 0.1 0.4 0.1 0.2 0.3 0.4 0.4 0.5 0.2 0.1 0.4 0.6 0.6 0.6 0.2 0 0.4-0.1 0.5-0.1 0.2 0 0.4 0 0.6-0.1 0.2-0.1 0.1-0.3 0.3-0.4 0.1-0.1 0.3 0 0.4-0.1 0.2-0.1 0.3-0.3 0.4-0.5 0-0.1 0-0.1 0-0.2 0-0.1 0.1-0.2 0.1-0.3 0-0.1-0.1-0.1-0.1-0.2 0-0.1 0-0.2 0-0.3 0-0.2 0-0.4-0.1-0.5 -0.4-0.7-1.2-0.9-2-0.8 -0.2 0-0.3 0.1-0.4 0.2 -0.2 0.1-0.1 0.2-0.3 0.2 -0.1 0-0.2 0.1-0.2 0.2 0 0.1 0 0.1 0 0.2 0 0 0 0 0 0M46.5-18.1c0 0.1 0 0.1 0 0.2 -0.1 0.1-0.1 0.1-0.2 0.1 0 0.1-0.1 0.3-0.1 0.4 -0.2 0.1 0 0.2 0 0.4 0 0.1 0 0.1 0 0.2 0 0.1 0 0.3 0.1 0.4 0.1 0.2 0.3 0.4 0.4 0.5 0.2 0.1 0.4 0.6 0.6 0.6 0.2 0 0.4-0.1 0.5-0.1 0.2 0 0.4 0 0.6-0.1 0.2-0.1 0.1-0.3 0.3-0.4 0.1-0.1 0.3 0 0.4-0.1 0.2-0.1 0.3-0.3 0.4-0.5 0-0.1 0-0.1 0-0.2 0-0.1 0.1-0.2 0.1-0.3 0-0.1-0.1-0.1-0.1-0.2 0-0.1 0-0.2 0-0.3 0-0.2 0-0.4-0.1-0.5 -0.4-0.7-1.2-0.9-2-0.8 -0.2 0-0.3 0.1-0.4 0.2 -0.2 0.1-0.1 0.2-0.3 0.2 -0.1 0-0.2 0.1-0.2 0.2 0 0.1 0 0.1 0 0.2 0 0 0 0 0 0M38.8-18.1c0 0.1 0 0.1 0 0.2 -0.1 0.1-0.1 0.1-0.2 0.1 0 0.1-0.1 0.3-0.1 0.4 -0.2 0.1 0 0.2 0 0.4 0 0.1 0 0.1 0 0.2 0 0.1 0 0.3 0.1 0.4 0.1 0.2 0.3 0.4 0.4 0.5 0.2 0.1 0.4 0.6 0.6 0.6 0.2 0 0.4-0.1 0.5-0.1 0.2 0 0.4 0 0.6-0.1 0.2-0.1 0.1-0.3 0.3-0.4 0.1-0.1 0.3 0 0.4-0.1 0.2-0.1 0.3-0.3 0.4-0.5 0-0.1 0-0.1 0-0.2 0-0.1 0.1-0.2 0.1-0.3 0-0.1-0.1-0.1-0.1-0.2 0-0.1 0-0.2 0-0.3 0-0.2 0-0.4-0.1-0.5 -0.4-0.7-1.2-0.9-2-0.8 -0.2 0-0.3 0.1-0.4 0.2 -0.2 0.1-0.1 0.2-0.3 0.2 -0.1 0-0.2 0.1-0.2 0.2 0 0.1 0 0.1 0 0.2 0 0 0 0 0 0M31.1-18.1c0 0.1 0 0.1 0 0.2 -0.1 0.1-0.1 0.1-0.2 0.1 0 0.1-0.1 0.3-0.1 0.4 -0.2 0.1 0 0.2 0 0.4 0 0.1 0 0.1 0 0.2 0 0.1 0 0.3 0.1 0.4 0.1 0.2 0.3 0.4 0.4 0.5 0.2 0.1 0.4 0.6 0.6 0.6 0.2 0 0.4-0.1 0.5-0.1 0.2 0 0.4 0 0.6-0.1 0.2-0.1 0.1-0.3 0.3-0.4 0.1-0.1 0.3 0 0.4-0.1 0.2-0.1 0.3-0.3 0.4-0.5 0-0.1 0-0.1 0-0.2 0-0.1 0.1-0.2 0.1-0.3 0-0.1-0.1-0.1-0.1-0.2 0-0.1 0-0.2 0-0.3 0-0.2 0-0.4-0.1-0.5 -0.4-0.7-1.2-0.9-2-0.8 -0.2 0-0.3 0.1-0.4 0.2 -0.2 0.1-0.1 0.2-0.3 0.2 -0.1 0-0.2 0.1-0.2 0.2 0 0.1 0 0.1 0 0.2 0 0 0 0 0 0M23.5-18.1c0 0.1 0 0.1 0 0.2 -0.1 0.1-0.1 0.1-0.2 0.1 0 0.1-0.1 0.3-0.1 0.4 -0.2 0.1 0 0.2 0 0.4 0 0.1 0 0.1 0 0.2 0 0.1 0 0.3 0.1 0.4 0.1 0.2 0.3 0.4 0.4 0.5 0.2 0.1 0.4 0.6 0.6 0.6 0.2 0 0.4-0.1 0.5-0.1 0.2 0 0.4 0 0.6-0.1 0.2-0.1 0.1-0.3 0.3-0.4 0.1-0.1 0.3 0 0.4-0.1 0.2-0.1 0.3-0.3 0.4-0.5 0-0.1 0-0.1 0-0.2 0-0.1 0.1-0.2 0.1-0.3 0-0.1-0.1-0.1-0.1-0.2 0-0.1 0-0.2 0-0.3 0-0.2 0-0.4-0.1-0.5 -0.4-0.7-1.2-0.9-2-0.8 -0.2 0-0.3 0.1-0.4 0.2 -0.2 0.1-0.1 0.2-0.3 0.2 -0.1 0-0.2 0.1-0.2 0.2 0 0.1 0 0.1 0 0.2 0 0 0 0 0 0M15.8-18.1c0 0.1 0 0.1 0 0.2 -0.1 0.1-0.1 0.1-0.2 0.1 0 0.1-0.1 0.3-0.1 0.4 -0.2 0.1 0 0.2 0 0.4 0 0.1 0 0.1 0 0.2 0 0.1 0 0.3 0.1 0.4 0.1 0.2 0.3 0.4 0.4 0.5 0.2 0.1 0.4 0.6 0.6 0.6 0.2 0 0.4-0.1 0.5-0.1 0.2 0 0.4 0 0.6-0.1 0.2-0.1 0.1-0.3 0.3-0.4 0.1-0.1 0.3 0 0.4-0.1 0.2-0.1 0.3-0.3 0.4-0.5 0-0.1 0-0.1 0-0.2 0-0.1 0.1-0.2 0.1-0.3 0-0.1-0.1-0.1-0.1-0.2 0-0.1 0-0.2 0-0.3 0-0.2 0-0.4-0.1-0.5 -0.4-0.7-1.2-0.9-2-0.8 -0.2 0-0.3 0.1-0.4 0.2 -0.2 0.1-0.1 0.2-0.3 0.2 -0.1 0-0.2 0.1-0.2 0.2 0 0.1 0 0.1 0 0.2 0 0 0 0 0 0M8.2-18.1c0 0.1 0 0.1 0 0.2 -0.1 0.1-0.1 0.1-0.2 0.1 0 0.1-0.1 0.3-0.1 0.4 -0.2 0.1 0 0.2 0 0.4 0 0.1 0 0.1 0 0.2 0 0.1 0 0.3 0.1 0.4 0.1 0.2 0.3 0.4 0.4 0.5 0.2 0.1 0.4 0.6 0.6 0.6 0.2 0 0.4-0.1 0.5-0.1 0.2 0 0.4 0 0.6-0.1 0.2-0.1 0.1-0.3 0.3-0.4 0.1-0.1 0.3 0 0.4-0.1 0.2-0.1 0.3-0.3 0.4-0.5 0-0.1 0-0.1 0-0.2 0-0.1 0.1-0.2 0.1-0.3 0-0.1-0.1-0.1-0.1-0.2 0-0.1 0-0.2 0-0.3 0-0.2 0-0.4-0.1-0.5 -0.4-0.7-1.2-0.9-2-0.8 -0.2 0-0.3 0.1-0.4 0.2 -0.2 0.1-0.1 0.2-0.3 0.2 -0.1 0-0.2 0.1-0.2 0.2 0 0.1 0 0.1 0 0.2 0 0 0 0 0 0M0.5-18.1c0 0.1 0 0.1 0 0.2 -0.1 0.1-0.1 0.1-0.2 0.1 0 0.1-0.1 0.3-0.1 0.4 -0.2 0.1 0 0.2 0 0.4 0 0.1 0 0.1 0 0.2 0 0.1 0 0.3 0.1 0.4 0.1 0.2 0.3 0.4 0.4 0.5 0.2 0.1 0.4 0.6 0.6 0.6 0.2 0 0.4-0.1 0.5-0.1 0.2 0 0.4 0 0.6-0.1 0.2-0.1 0.1-0.3 0.3-0.4 0.1-0.1 0.3 0 0.4-0.1 0.2-0.1 0.3-0.3 0.4-0.5 0-0.1 0-0.1 0-0.2 0-0.1 0.1-0.2 0.1-0.3 0-0.1-0.1-0.1-0.1-0.2 0-0.1 0-0.2 0-0.3 0-0.2 0-0.4-0.1-0.5 -0.4-0.7-1.2-0.9-2-0.8 -0.2 0-0.3 0.1-0.4 0.2 -0.2 0.1-0.1 0.2-0.3 0.2 -0.1 0-0.2 0.1-0.2 0.2C0.5-18.1 0.5-18.2 0.5-18.1c0 0 0 0 0 0"/><path fill="#FFFFFF" d="M69.4-10.4c0 0.1 0 0.1 0 0.2 -0.1 0.1-0.1 0.1-0.2 0.1 0 0.1-0.1 0.3-0.1 0.4C69-9.7 69.2-9.5 69.2-9.4c0 0.1 0 0.1 0 0.2 0 0.1 0 0.3 0.1 0.4 0.1 0.2 0.3 0.4 0.4 0.5 0.2 0.1 0.4 0.6 0.6 0.6 0.2 0 0.4-0.1 0.5-0.1 0.2 0 0.4 0 0.6-0.1 0.2-0.1 0.1-0.3 0.3-0.4 0.1-0.1 0.3 0 0.4-0.1 0.2-0.1 0.3-0.3 0.4-0.5 0-0.1 0-0.1 0-0.2 0-0.1 0.1-0.2 0.1-0.3 0-0.1-0.1-0.1-0.1-0.2 0-0.1 0-0.2 0-0.3 0-0.2 0-0.4-0.1-0.5 -0.4-0.7-1.2-0.9-2-0.8 -0.2 0-0.3 0.1-0.4 0.2 -0.2 0.1-0.1 0.2-0.3 0.2 -0.1 0-0.2 0.1-0.2 0.2 0 0.1 0 0.1 0 0.2 0 0 0 0 0 0M61.8-10.4c0 0.1 0 0.1 0 0.2 -0.1 0.1-0.1 0.1-0.2 0.1 0 0.1-0.1 0.3-0.1 0.4 -0.2 0.1 0 0.2 0 0.4 0 0.1 0 0.1 0 0.2 0 0.1 0 0.3 0.1 0.4 0.1 0.2 0.3 0.4 0.4 0.5 0.2 0.1 0.4 0.6 0.6 0.6 0.2 0 0.4-0.1 0.5-0.1 0.2 0 0.4 0 0.6-0.1 0.2-0.1 0.1-0.3 0.3-0.4 0.1-0.1 0.3 0 0.4-0.1 0.2-0.1 0.3-0.3 0.4-0.5 0-0.1 0-0.1 0-0.2 0-0.1 0.1-0.2 0.1-0.3 0-0.1-0.1-0.1-0.1-0.2 0-0.1 0-0.2 0-0.3 0-0.2 0-0.4-0.1-0.5 -0.4-0.7-1.2-0.9-2-0.8 -0.2 0-0.3 0.1-0.4 0.2 -0.2 0.1-0.1 0.2-0.3 0.2 -0.1 0-0.2 0.1-0.2 0.2 0 0.1 0 0.1 0 0.2 0 0 0 0 0 0M54.1-10.4c0 0.1 0 0.1 0 0.2 -0.1 0.1-0.1 0.1-0.2 0.1 0 0.1-0.1 0.3-0.1 0.4 -0.2 0.1 0 0.2 0 0.4 0 0.1 0 0.1 0 0.2 0 0.1 0 0.3 0.1 0.4 0.1 0.2 0.3 0.4 0.4 0.5 0.2 0.1 0.4 0.6 0.6 0.6 0.2 0 0.4-0.1 0.5-0.1 0.2 0 0.4 0 0.6-0.1 0.2-0.1 0.1-0.3 0.3-0.4 0.1-0.1 0.3 0 0.4-0.1 0.2-0.1 0.3-0.3 0.4-0.5 0-0.1 0-0.1 0-0.2 0-0.1 0.1-0.2 0.1-0.3 0-0.1-0.1-0.1-0.1-0.2 0-0.1 0-0.2 0-0.3 0-0.2 0-0.4-0.1-0.5 -0.4-0.7-1.2-0.9-2-0.8 -0.2 0-0.3 0.1-0.4 0.2 -0.2 0.1-0.1 0.2-0.3 0.2 -0.1 0-0.2 0.1-0.2 0.2 0 0.1 0 0.1 0 0.2 0 0 0 0 0 0M46.5-10.4c0 0.1 0 0.1 0 0.2 -0.1 0.1-0.1 0.1-0.2 0.1 0 0.1-0.1 0.3-0.1 0.4 -0.2 0.1 0 0.2 0 0.4 0 0.1 0 0.1 0 0.2 0 0.1 0 0.3 0.1 0.4 0.1 0.2 0.3 0.4 0.4 0.5 0.2 0.1 0.4 0.6 0.6 0.6 0.2 0 0.4-0.1 0.5-0.1 0.2 0 0.4 0 0.6-0.1 0.2-0.1 0.1-0.3 0.3-0.4 0.1-0.1 0.3 0 0.4-0.1 0.2-0.1 0.3-0.3 0.4-0.5 0-0.1 0-0.1 0-0.2 0-0.1 0.1-0.2 0.1-0.3 0-0.1-0.1-0.1-0.1-0.2 0-0.1 0-0.2 0-0.3 0-0.2 0-0.4-0.1-0.5 -0.4-0.7-1.2-0.9-2-0.8 -0.2 0-0.3 0.1-0.4 0.2 -0.2 0.1-0.1 0.2-0.3 0.2 -0.1 0-0.2 0.1-0.2 0.2 0 0.1 0 0.1 0 0.2 0 0 0 0 0 0M38.8-10.4c0 0.1 0 0.1 0 0.2 -0.1 0.1-0.1 0.1-0.2 0.1 0 0.1-0.1 0.3-0.1 0.4 -0.2 0.1 0 0.2 0 0.4 0 0.1 0 0.1 0 0.2 0 0.1 0 0.3 0.1 0.4 0.1 0.2 0.3 0.4 0.4 0.5 0.2 0.1 0.4 0.6 0.6 0.6 0.2 0 0.4-0.1 0.5-0.1 0.2 0 0.4 0 0.6-0.1 0.2-0.1 0.1-0.3 0.3-0.4 0.1-0.1 0.3 0 0.4-0.1 0.2-0.1 0.3-0.3 0.4-0.5 0-0.1 0-0.1 0-0.2 0-0.1 0.1-0.2 0.1-0.3 0-0.1-0.1-0.1-0.1-0.2 0-0.1 0-0.2 0-0.3 0-0.2 0-0.4-0.1-0.5 -0.4-0.7-1.2-0.9-2-0.8 -0.2 0-0.3 0.1-0.4 0.2 -0.2 0.1-0.1 0.2-0.3 0.2 -0.1 0-0.2 0.1-0.2 0.2 0 0.1 0 0.1 0 0.2 0 0 0 0 0 0M31.1-10.4c0 0.1 0 0.1 0 0.2 -0.1 0.1-0.1 0.1-0.2 0.1 0 0.1-0.1 0.3-0.1 0.4 -0.2 0.1 0 0.2 0 0.4 0 0.1 0 0.1 0 0.2 0 0.1 0 0.3 0.1 0.4 0.1 0.2 0.3 0.4 0.4 0.5 0.2 0.1 0.4 0.6 0.6 0.6 0.2 0 0.4-0.1 0.5-0.1 0.2 0 0.4 0 0.6-0.1 0.2-0.1 0.1-0.3 0.3-0.4 0.1-0.1 0.3 0 0.4-0.1 0.2-0.1 0.3-0.3 0.4-0.5 0-0.1 0-0.1 0-0.2 0-0.1 0.1-0.2 0.1-0.3 0-0.1-0.1-0.1-0.1-0.2 0-0.1 0-0.2 0-0.3 0-0.2 0-0.4-0.1-0.5 -0.4-0.7-1.2-0.9-2-0.8 -0.2 0-0.3 0.1-0.4 0.2 -0.2 0.1-0.1 0.2-0.3 0.2 -0.1 0-0.2 0.1-0.2 0.2 0 0.1 0 0.1 0 0.2 0 0 0 0 0 0M23.5-10.4c0 0.1 0 0.1 0 0.2 -0.1 0.1-0.1 0.1-0.2 0.1 0 0.1-0.1 0.3-0.1 0.4 -0.2 0.1 0 0.2 0 0.4 0 0.1 0 0.1 0 0.2 0 0.1 0 0.3 0.1 0.4 0.1 0.2 0.3 0.4 0.4 0.5 0.2 0.1 0.4 0.6 0.6 0.6 0.2 0 0.4-0.1 0.5-0.1 0.2 0 0.4 0 0.6-0.1 0.2-0.1 0.1-0.3 0.3-0.4 0.1-0.1 0.3 0 0.4-0.1 0.2-0.1 0.3-0.3 0.4-0.5 0-0.1 0-0.1 0-0.2 0-0.1 0.1-0.2 0.1-0.3 0-0.1-0.1-0.1-0.1-0.2 0-0.1 0-0.2 0-0.3 0-0.2 0-0.4-0.1-0.5 -0.4-0.7-1.2-0.9-2-0.8 -0.2 0-0.3 0.1-0.4 0.2 -0.2 0.1-0.1 0.2-0.3 0.2 -0.1 0-0.2 0.1-0.2 0.2 0 0.1 0 0.1 0 0.2 0 0 0 0 0 0M15.8-10.4c0 0.1 0 0.1 0 0.2 -0.1 0.1-0.1 0.1-0.2 0.1 0 0.1-0.1 0.3-0.1 0.4 -0.2 0.1 0 0.2 0 0.4 0 0.1 0 0.1 0 0.2 0 0.1 0 0.3 0.1 0.4 0.1 0.2 0.3 0.4 0.4 0.5 0.2 0.1 0.4 0.6 0.6 0.6 0.2 0 0.4-0.1 0.5-0.1 0.2 0 0.4 0 0.6-0.1C17.9-8 17.8-8.2 18-8.3c0.1-0.1 0.3 0 0.4-0.1 0.2-0.1 0.3-0.3 0.4-0.5 0-0.1 0-0.1 0-0.2 0-0.1 0.1-0.2 0.1-0.3 0-0.1-0.1-0.1-0.1-0.2 0-0.1 0-0.2 0-0.3 0-0.2 0-0.4-0.1-0.5 -0.4-0.7-1.2-0.9-2-0.8 -0.2 0-0.3 0.1-0.4 0.2 -0.2 0.1-0.1 0.2-0.3 0.2 -0.1 0-0.2 0.1-0.2 0.2 0 0.1 0 0.1 0 0.2 0 0 0 0 0 0M8.2-10.4c0 0.1 0 0.1 0 0.2 -0.1 0.1-0.1 0.1-0.2 0.1C7.9-10 7.9-9.8 7.9-9.7 7.7-9.7 7.9-9.5 7.9-9.4 7.9-9.4 7.8-9.3 7.8-9.2c0 0.1 0 0.3 0.1 0.4 0.1 0.2 0.3 0.4 0.4 0.5 0.2 0.1 0.4 0.6 0.6 0.6C9.1-7.7 9.3-7.8 9.5-7.8c0.2 0 0.4 0 0.6-0.1 0.2-0.1 0.1-0.3 0.3-0.4 0.1-0.1 0.3 0 0.4-0.1 0.2-0.1 0.3-0.3 0.4-0.5 0-0.1 0-0.1 0-0.2 0-0.1 0.1-0.2 0.1-0.3 0-0.1-0.1-0.1-0.1-0.2 0-0.1 0-0.2 0-0.3 0-0.2 0-0.4-0.1-0.5 -0.4-0.7-1.2-0.9-2-0.8 -0.2 0-0.3 0.1-0.4 0.2 -0.2 0.1-0.1 0.2-0.3 0.2 -0.1 0-0.2 0.1-0.2 0.2 0 0.1 0 0.1 0 0.2 0 0 0 0 0 0M0.5-10.4c0 0.1 0 0.1 0 0.2 -0.1 0.1-0.1 0.1-0.2 0.1C0.3-10 0.2-9.8 0.2-9.7 0.1-9.7 0.2-9.5 0.2-9.4c0 0.1 0 0.1 0 0.2 0 0.1 0 0.3 0.1 0.4C0.3-8.7 0.5-8.5 0.7-8.3c0.2 0.1 0.4 0.6 0.6 0.6C1.5-7.7 1.7-7.8 1.8-7.8 2-7.9 2.2-7.8 2.4-7.9c0.2-0.1 0.1-0.3 0.3-0.4 0.1-0.1 0.3 0 0.4-0.1 0.2-0.1 0.3-0.3 0.4-0.5C3.5-8.9 3.5-9 3.5-9.1c0-0.1 0.1-0.2 0.1-0.3 0-0.1-0.1-0.1-0.1-0.2 0-0.1 0-0.2 0-0.3 0-0.2 0-0.4-0.1-0.5 -0.4-0.7-1.2-0.9-2-0.8 -0.2 0-0.3 0.1-0.4 0.2 -0.2 0.1-0.1 0.2-0.3 0.2 -0.1 0-0.2 0.1-0.2 0.2 0 0.1 0 0.1 0 0.2 0 0 0 0 0 0"/><path fill="#FFFFFF" d="M69.4-2.8c0 0.1 0 0.1 0 0.2C69.4-2.5 69.3-2.5 69.2-2.5c-0.1 0.1-0.1 0.3-0.1 0.4C69-2 69.2-1.9 69.2-1.7c0 0.1 0 0.1 0 0.2 0 0.1 0 0.3 0.1 0.4 0.1 0.2 0.3 0.4 0.4 0.5 0.2 0.1 0.4 0.6 0.6 0.6C70.4 0 70.6-0.1 70.8-0.2c0.2 0 0.4 0 0.6-0.1 0.2-0.1 0.1-0.3 0.3-0.4 0.1-0.1 0.3 0 0.4-0.1 0.2-0.1 0.3-0.3 0.4-0.5 0-0.1 0-0.1 0-0.2 0-0.1 0.1-0.2 0.1-0.3 0-0.1-0.1-0.1-0.1-0.2 0-0.1 0-0.2 0-0.3 0-0.2 0-0.4-0.1-0.5 -0.4-0.7-1.2-0.9-2-0.8 -0.2 0-0.3 0.1-0.4 0.2 -0.2 0.1-0.1 0.2-0.3 0.2 -0.1 0-0.2 0.1-0.2 0.2 0 0.1 0 0.1 0 0.2 0 0 0 0 0 0M61.8-2.8c0 0.1 0 0.1 0 0.2C61.7-2.5 61.6-2.5 61.6-2.5c0 0.1-0.1 0.3-0.1 0.4 -0.2 0.1 0 0.2 0 0.4 0 0.1 0 0.1 0 0.2 0 0.1 0 0.3 0.1 0.4 0.1 0.2 0.3 0.4 0.4 0.5 0.2 0.1 0.4 0.6 0.6 0.6C62.7 0 62.9-0.1 63.1-0.2c0.2 0 0.4 0 0.6-0.1 0.2-0.1 0.1-0.3 0.3-0.4 0.1-0.1 0.3 0 0.4-0.1 0.2-0.1 0.3-0.3 0.4-0.5 0-0.1 0-0.1 0-0.2 0-0.1 0.1-0.2 0.1-0.3 0-0.1-0.1-0.1-0.1-0.2 0-0.1 0-0.2 0-0.3 0-0.2 0-0.4-0.1-0.5 -0.4-0.7-1.2-0.9-2-0.8 -0.2 0-0.3 0.1-0.4 0.2 -0.2 0.1-0.1 0.2-0.3 0.2C61.9-3.1 61.8-3 61.8-2.9c0 0.1 0 0.1 0 0.2 0 0 0 0 0 0M54.1-2.8c0 0.1 0 0.1 0 0.2C54-2.5 54-2.5 53.9-2.5c0 0.1-0.1 0.3-0.1 0.4 -0.2 0.1 0 0.2 0 0.4 0 0.1 0 0.1 0 0.2 0 0.1 0 0.3 0.1 0.4 0.1 0.2 0.3 0.4 0.4 0.5 0.2 0.1 0.4 0.6 0.6 0.6C55.1 0 55.3-0.1 55.4-0.2c0.2 0 0.4 0 0.6-0.1 0.2-0.1 0.1-0.3 0.3-0.4 0.1-0.1 0.3 0 0.4-0.1 0.2-0.1 0.3-0.3 0.4-0.5 0-0.1 0-0.1 0-0.2 0-0.1 0.1-0.2 0.1-0.3 0-0.1-0.1-0.1-0.1-0.2 0-0.1 0-0.2 0-0.3 0-0.2 0-0.4-0.1-0.5 -0.4-0.7-1.2-0.9-2-0.8 -0.2 0-0.3 0.1-0.4 0.2 -0.2 0.1-0.1 0.2-0.3 0.2C54.3-3.1 54.1-3 54.1-2.9c0 0.1 0 0.1 0 0.2 0 0 0 0 0 0M46.5-2.8c0 0.1 0 0.1 0 0.2 -0.1 0.1-0.1 0.1-0.2 0.1 0 0.1-0.1 0.3-0.1 0.4 -0.2 0.1 0 0.2 0 0.4 0 0.1 0 0.1 0 0.2 0 0.1 0 0.3 0.1 0.4 0.1 0.2 0.3 0.4 0.4 0.5 0.2 0.1 0.4 0.6 0.6 0.6C47.4 0 47.6-0.1 47.8-0.2c0.2 0 0.4 0 0.6-0.1 0.2-0.1 0.1-0.3 0.3-0.4 0.1-0.1 0.3 0 0.4-0.1 0.2-0.1 0.3-0.3 0.4-0.5 0-0.1 0-0.1 0-0.2 0-0.1 0.1-0.2 0.1-0.3 0-0.1-0.1-0.1-0.1-0.2 0-0.1 0-0.2 0-0.3 0-0.2 0-0.4-0.1-0.5 -0.4-0.7-1.2-0.9-2-0.8 -0.2 0-0.3 0.1-0.4 0.2 -0.2 0.1-0.1 0.2-0.3 0.2C46.6-3.1 46.5-3 46.5-2.9c0 0.1 0 0.1 0 0.2 0 0 0 0 0 0M38.8-2.8c0 0.1 0 0.1 0 0.2 -0.1 0.1-0.1 0.1-0.2 0.1 0 0.1-0.1 0.3-0.1 0.4 -0.2 0.1 0 0.2 0 0.4 0 0.1 0 0.1 0 0.2 0 0.1 0 0.3 0.1 0.4 0.1 0.2 0.3 0.4 0.4 0.5 0.2 0.1 0.4 0.6 0.6 0.6C39.8 0 40-0.1 40.1-0.2c0.2 0 0.4 0 0.6-0.1 0.2-0.1 0.1-0.3 0.3-0.4 0.1-0.1 0.3 0 0.4-0.1 0.2-0.1 0.3-0.3 0.4-0.5 0-0.1 0-0.1 0-0.2 0-0.1 0.1-0.2 0.1-0.3 0-0.1-0.1-0.1-0.1-0.2 0-0.1 0-0.2 0-0.3 0-0.2 0-0.4-0.1-0.5 -0.4-0.7-1.2-0.9-2-0.8 -0.2 0-0.3 0.1-0.4 0.2 -0.2 0.1-0.1 0.2-0.3 0.2C38.9-3.1 38.8-3 38.8-2.9c0 0.1 0 0.1 0 0.2 0 0 0 0 0 0M31.1-2.8c0 0.1 0 0.1 0 0.2 -0.1 0.1-0.1 0.1-0.2 0.1 0 0.1-0.1 0.3-0.1 0.4 -0.2 0.1 0 0.2 0 0.4 0 0.1 0 0.1 0 0.2 0 0.1 0 0.3 0.1 0.4 0.1 0.2 0.3 0.4 0.4 0.5 0.2 0.1 0.4 0.6 0.6 0.6C32.1 0 32.3-0.1 32.5-0.2c0.2 0 0.4 0 0.6-0.1 0.2-0.1 0.1-0.3 0.3-0.4 0.1-0.1 0.3 0 0.4-0.1 0.2-0.1 0.3-0.3 0.4-0.5 0-0.1 0-0.1 0-0.2 0-0.1 0.1-0.2 0.1-0.3 0-0.1-0.1-0.1-0.1-0.2 0-0.1 0-0.2 0-0.3 0-0.2 0-0.4-0.1-0.5 -0.4-0.7-1.2-0.9-2-0.8 -0.2 0-0.3 0.1-0.4 0.2 -0.2 0.1-0.1 0.2-0.3 0.2C31.3-3.1 31.1-3 31.1-2.9c0 0.1 0 0.1 0 0.2 0 0 0 0 0 0M23.5-2.8c0 0.1 0 0.1 0 0.2 -0.1 0.1-0.1 0.1-0.2 0.1 0 0.1-0.1 0.3-0.1 0.4 -0.2 0.1 0 0.2 0 0.4 0 0.1 0 0.1 0 0.2 0 0.1 0 0.3 0.1 0.4 0.1 0.2 0.3 0.4 0.4 0.5 0.2 0.1 0.4 0.6 0.6 0.6C24.4 0 24.6-0.1 24.8-0.2c0.2 0 0.4 0 0.6-0.1 0.2-0.1 0.1-0.3 0.3-0.4 0.1-0.1 0.3 0 0.4-0.1 0.2-0.1 0.3-0.3 0.4-0.5 0-0.1 0-0.1 0-0.2 0-0.1 0.1-0.2 0.1-0.3 0-0.1-0.1-0.1-0.1-0.2 0-0.1 0-0.2 0-0.3 0-0.2 0-0.4-0.1-0.5 -0.4-0.7-1.2-0.9-2-0.8 -0.2 0-0.3 0.1-0.4 0.2 -0.2 0.1-0.1 0.2-0.3 0.2 -0.1 0-0.2 0.1-0.2 0.2 0 0.1 0 0.1 0 0.2 0 0 0 0 0 0M15.8-2.8c0 0.1 0 0.1 0 0.2 -0.1 0.1-0.1 0.1-0.2 0.1 0 0.1-0.1 0.3-0.1 0.4 -0.2 0.1 0 0.2 0 0.4 0 0.1 0 0.1 0 0.2 0 0.1 0 0.3 0.1 0.4 0.1 0.2 0.3 0.4 0.4 0.5 0.2 0.1 0.4 0.6 0.6 0.6C16.8 0 17-0.1 17.1-0.2c0.2 0 0.4 0 0.6-0.1 0.2-0.1 0.1-0.3 0.3-0.4 0.1-0.1 0.3 0 0.4-0.1 0.2-0.1 0.3-0.3 0.4-0.5 0-0.1 0-0.1 0-0.2 0-0.1 0.1-0.2 0.1-0.3 0-0.1-0.1-0.1-0.1-0.2 0-0.1 0-0.2 0-0.3 0-0.2 0-0.4-0.1-0.5 -0.4-0.7-1.2-0.9-2-0.8 -0.2 0-0.3 0.1-0.4 0.2 -0.2 0.1-0.1 0.2-0.3 0.2 -0.1 0-0.2 0.1-0.2 0.2 0 0.1 0 0.1 0 0.2C15.8-2.7 15.8-2.8 15.8-2.8M8.2-2.8c0 0.1 0 0.1 0 0.2C8.1-2.5 8-2.5 8-2.5c0 0.1-0.1 0.3-0.1 0.4 -0.2 0.1 0 0.2 0 0.4C7.9-1.7 7.8-1.6 7.8-1.6c0 0.1 0 0.3 0.1 0.4 0.1 0.2 0.3 0.4 0.4 0.5 0.2 0.1 0.4 0.6 0.6 0.6C9.1 0 9.3-0.1 9.5-0.2c0.2 0 0.4 0 0.6-0.1 0.2-0.1 0.1-0.3 0.3-0.4 0.1-0.1 0.3 0 0.4-0.1 0.2-0.1 0.3-0.3 0.4-0.5 0-0.1 0-0.1 0-0.2 0-0.1 0.1-0.2 0.1-0.3 0-0.1-0.1-0.1-0.1-0.2 0-0.1 0-0.2 0-0.3 0-0.2 0-0.4-0.1-0.5 -0.4-0.7-1.2-0.9-2-0.8C9-3.5 8.8-3.4 8.7-3.4c-0.2 0.1-0.1 0.2-0.3 0.2C8.3-3.1 8.2-3 8.2-2.9 8.2-2.8 8.2-2.9 8.2-2.8 8.2-2.7 8.1-2.8 8.1-2.8M0.5-2.8c0 0.1 0 0.1 0 0.2C0.4-2.5 0.4-2.5 0.3-2.5 0.3-2.4 0.2-2.2 0.2-2.1 0.1-2 0.2-1.9 0.2-1.7c0 0.1 0 0.1 0 0.2 0 0.1 0 0.3 0.1 0.4C0.3-1 0.5-0.8 0.7-0.7c0.2 0.1 0.4 0.6 0.6 0.6C1.5 0 1.7-0.1 1.8-0.2 2-0.2 2.2-0.2 2.4-0.2c0.2-0.1 0.1-0.3 0.3-0.4 0.1-0.1 0.3 0 0.4-0.1 0.2-0.1 0.3-0.3 0.4-0.5C3.5-1.3 3.5-1.3 3.5-1.4c0-0.1 0.1-0.2 0.1-0.3 0-0.1-0.1-0.1-0.1-0.2 0-0.1 0-0.2 0-0.3 0-0.2 0-0.4-0.1-0.5 -0.4-0.7-1.2-0.9-2-0.8C1.3-3.5 1.2-3.4 1-3.4c-0.2 0.1-0.1 0.2-0.3 0.2C0.6-3.1 0.5-3 0.5-2.9 0.5-2.8 0.5-2.9 0.5-2.8 0.5-2.7 0.5-2.8 0.5-2.8"/></pattern><path fill="#4E2A84" d="M46.8 6.2c-1.4 0-3.7 0.2-5.6 0.2 -1.8 0-3.4-0.2-5.1-0.2 0.1 0 0.1 0 0.1 0 -0.5 0-0.9 0.3-0.9 0.8 0.1 1.3 1.8 1.1 3.2 1.7 1.5 0.6 2.9 1.7 2.9 5.3v23.3c0 0.1 0 0.2 0 0.3 -0.1-0.1-0.2-0.2-0.4-0.4L14.5 7.5c-0.3-0.3-0.8-1.3-1.6-1.4 -0.9 0-1.8 0.2-2.6 0.2C9.5 6.4 8.7 6.2 7.7 6.2c0 0 0 0 0 0 0 0 0 0-0.1 0C7.3 6.2 6.7 6.4 6.6 7c0 0.7 0.6 1 1.2 1.1 1.9 0.6 5.4 0.7 5.5 9.3v20.5c0 3.9-1.2 5-2.3 5.6 -0.6 0.3-1.2 0.4-1.7 0.6 -0.5 0.2-0.9 0.5-0.9 1.1 0 0.2 0 0.4 0.2 0.6 0.2 0.2 0.4 0.3 0.8 0.3 0.4 0 3.3-0.2 5.2-0.2 2.7 0 4.3 0.2 5.6 0.2 0.8 0 0.9-0.7 0.9-1 -0.1-1.1-1.5-0.9-2.6-1.2 -1.2-0.3-2.2-0.9-2.3-3.4V17.8c0-0.5 0-0.8 0.1-1 0-0.1 0-0.1 0-0.1l0 0c0.1-0.1 0.9 0.8 1 1l23.9 26.9c1.2 1.3 1.8 1.6 2.3 1.6 0.4 0 0.6-0.4 0.7-0.8 0.1-0.4 0.1-1 0.1-1.8V11.4c0-2 0.7-2.6 1.5-3 0.7-0.4 1.7-0.5 1.8-1.5C47.7 6.5 47.3 6.2 46.8 6.2zM70.1 5.7c-11.5 0-20.7 8.5-20.7 20.2 0 5.9 1.9 11.1 5.3 14.7 3.4 3.7 8.4 5.8 14.5 5.8 6.3 0 11.6-2 15.3-5.7 3.8-3.6 5.9-8.9 5.9-15.2C90.4 14 81.6 5.7 70.1 5.7zM71.5 44.3C60.7 44.3 54 34.5 54 24.3c0-8.7 5.3-16.3 14.4-16.3 10.7 0 17.4 9.7 17.4 19.7C85.9 37.9 79.5 44.3 71.5 44.3zM127.6 45.2c0-0.4-0.3-0.7-0.7-0.8 -1-0.3-3.1-0.2-6.1-4.7l-9.1-13.8c3.8-1.7 6.9-5.4 6.9-9.7 0-9.1-8.7-9.9-12.1-9.9 -0.7 0-1.2 0-1.3 0 -2.9 0-6.1 0.2-9.3 0.2 -2.8 0-2.5-0.2-3.6-0.2 0 0 0 0 0 0 -0.7 0-1.3 0.3-1.4 0.9 0 0.6 0.4 0.9 0.9 1.1 1.5 0.5 3.8 0.1 3.9 3.9v28.3c0 2-0.9 2.8-1.9 3.3 -0.9 0.5-2.1 0.6-2.2 1.6 0 0.4 0.3 0.9 0.8 0.9 2.1 0 4.2-0.2 6.3-0.2 4.6 0 5.9 0.2 6.4 0.2 0.1 0 0.2 0 0.4 0 0.2 0 0.4 0 0.5-0.1 0.2-0.1 0.3-0.3 0.3-0.6 -0.1-1.3-1.7-1.2-3.1-1.6 -1.4-0.4-2.7-1.1-2.7-3.3V28.7c0-0.2 0-0.4 0-0.5 0-0.4 0-0.7 1.2-0.8 0.6 0 1.1 0 1.6 0 4.5 0.1 3.7 0 5.6 2.8l6.2 9.7c2.1 3.2 4.4 6.1 8.6 6.1 0.3 0 1.2 0 2-0.1 0.4 0 0.8-0.1 1.2-0.2C127.3 45.7 127.6 45.6 127.6 45.2zM106.5 25c-0.9 0-1.9 0-2.8 0 -0.9 0-1.7 0-2.2-0.1 -0.6-0.1-0.8-0.3-0.8-0.4V10.3c0.1-1.8 0.7-1.7 2.4-1.8 0.2 0 0.4 0 0.5 0 5.4 0 10.4 2.2 10.4 8.8C113.9 24.1 108.8 25 106.5 25zM125.4 14.9c1 0 1-1 1.2-1.5 1.1-3.1 0.9-3.7 4.3-3.7h9.1c0.1 0 0.2 0.1 0.2 0.4 0.1 0.3 0.1 0.7 0.1 1 0 0.4 0 0.8 0 0.9v28.9c0 1.5-1 2.1-2 2.6 -1 0.5-2.3 0.5-2.4 1.5 0 0.3 0 0.5 0.2 0.7 0.2 0.2 0.4 0.2 0.7 0.2 0.4 0 1.4-0.2 7.6-0.2 1.6 0 3.1 0.2 4.5 0.2 0 0 0 0 0 0 0.3 0 0.5-0.1 0.6-0.3 0.1-0.2 0.1-0.4 0.1-0.5 0 0 0-0.1 0-0.1 0-0.6-0.4-0.9-0.9-1 -1.4-0.5-3.6-0.2-3.6-3.5V12.2c0-0.5 0-1 0-1.3 0.1-1.3-0.1-1.1 1.1-1.2 0.2 0 0.5 0 0.9 0h8c2.8 0 3.3 1 3.5 1.9 0.1 0.5 0.1 1 0.2 1.5 0.1 0.4 0.4 0.9 1.1 0.9 0.3 0 0.6-0.1 0.7-0.3 0.1-0.2 0.2-0.5 0.2-0.7 0-0.2 0-0.3 0-0.5l-0.3-4.4c0-0.6-0.1-1.1-0.4-1.4 -0.3-0.3-0.8-0.4-1.4-0.4 -1.1 0-6.2 0.2-16.3 0.2 -7.2 0-11.4-0.2-15.8-0.2 0 0 0 0 0 0V6.2c-1.3 0.1-1.2 1.8-1.2 2.4l-0.6 5.4C124.6 14.4 124.8 14.9 125.4 14.9zM205.6 45.2c-0.1-1.1-1.5-1-2.7-1.5 -1.2-0.4-2.4-1.1-2.4-3V11.2c0-1.8 0.8-2.4 1.7-2.8 0.4-0.2 0.9-0.3 1.3-0.4 0.3-0.1 0.7-0.3 0.8-0.7 0-0.2 0-0.5-0.3-0.8 -0.3-0.2-0.7-0.4-1.5-0.4 -1.2 0-2 0.2-4 0.2 -1 0-3.9-0.2-5.8-0.2 0 0 0 0 0 0 -0.4 0-0.7 0.1-0.9 0.2 -0.2 0.2-0.2 0.4-0.2 0.6 0.1 1 1.3 0.9 2.2 1.4 1 0.4 1.9 1 1.9 2.8l0 11.4c0 0.1 0 0.2 0 0.4 0 0.2 0 0.5-0.1 0.7 -0.1 0.2-0.1 0.2-0.1 0.2l-20.4 0c-0.4 0-0.5-0.1-0.5-0.1 0 0-0.1-0.3-0.1-0.7V11.2c0-2 0.9-2.6 1.8-3 0.9-0.4 2-0.3 2.2-1.2 0-0.1 0-0.4-0.3-0.6 -0.2-0.2-0.5-0.2-1-0.2 -1.7 0-3.5 0.2-5.2 0.2 -2 0-4-0.2-6.1-0.2 0 0 0 0 0 0 -0.4 0-1.1 0.2-1.1 0.9 0 0.5 0.5 0.7 0.9 0.8 1.4 0.4 3.9 0.5 3.9 3.3v28.5c0 2.7-1 3.4-2 3.9 -0.5 0.2-1 0.3-1.5 0.4 -0.4 0.1-0.9 0.4-0.8 1 0 0.3 0 0.6 0.2 0.8 0.1 0.2 0.4 0.3 0.7 0.3 0.3 0 0.8-0.2 4.8-0.2 2.9 0 7 0.2 7.7 0.2 0.5 0 1.1-0.1 1.1-0.7 -0.1-1.2-1.6-1.2-2.8-1.6 -1.3-0.4-2.5-0.9-2.5-2.7V27.2c0.1-0.7-0.1-0.6 0.4-0.7h20.5c0.3 0.1 0.2 0 0.2 0.3 0 0.2 0 0.5 0 0.9v13.4c0 1.6-0.9 2.2-1.8 2.6 -0.9 0.4-2 0.5-2.1 1.4 0 0.4 0.1 0.7 0.4 0.8 0.2 0.1 0.5 0.2 0.7 0.2 0.2 0 0.3 0 0.5 0 1.1 0 2.6-0.2 6.2-0.2 2 0 3.7 0.2 5.2 0.2C205.4 46 205.6 45.5 205.6 45.2zM235.3 30c0.1-0.2 0.2-0.2 0.2-0.2 0 0 0 0 0 0 0 0 0.1 0.2 0.2 0.3l6.1 14.6c0.8 1.8 1 2.2 1.7 2.3 1.1 0 1.5-1.2 1.8-2l14.3-33.7c0.9-2.2 1.7-2.8 2.2-3.1 0.5-0.3 1.1-0.3 1.1-1.1 0-0.3-0.1-0.6-0.3-0.7 -0.2-0.1-0.4-0.1-0.6-0.1 -1.3 0-3 0.2-4.6 0.2 -1.3 0-2.6-0.2-3.9-0.2v0c0 0 0 0 0 0v0c-0.6 0-0.9 0.6-0.9 1.1 0.1 0.9 1.1 0.9 2 1.3 0.9 0.3 1.6 0.8 1.6 1.8 0 0.6-0.1 1.2-0.4 1.7l-10.1 24.9c-0.2 0.6-0.5 1.1-0.6 1.5 -0.2 0.4-0.3 0.4-0.3 0.4 -0.1 0-0.5-0.3-1-1.6l-4.7-11.5c-0.3-0.8-0.7-2.1-0.7-2.6 0-0.5 0-0.9 0.5-2l3.9-9.1c1.2-2.9 2.2-3.8 2.8-4.1 0.3-0.2 0.5-0.2 0.7-0.4 0.2-0.2 0.4-0.5 0.4-0.9 0-0.4-0.3-0.6-0.6-0.6 -1 0-1.6 0.2-4.1 0.2 -1.2 0-2.4-0.2-3.6-0.2 0 0 0 0 0 0 -0.3 0-1.2-0.1-1.3 0.8 0.1 0.9 1 1.1 1.8 1.4 0.8 0.4 1.5 0.8 1.5 1.8 0 0 0 0 0 0.1 0 0.5-0.3 1.4-0.5 1.9l-2.7 6.5c-0.2 0.4-0.3 0.7-0.4 1 0 0.1-0.1 0.1-0.1 0.2 -0.1-0.2-0.3-0.6-0.5-1.2l-2.9-7.3c-0.3-0.7-0.4-0.9-0.4-1.6 0-0.8 0.5-1.1 1-1.4 0.5-0.3 1.2-0.4 1.3-1.1 0-0.4-0.1-0.9-0.6-0.9 -1.3 0-2.7 0.2-5.4 0.2 -0.8 0-3.7-0.2-5.6-0.2 0 0 0 0 0 0h0 0c-0.3 0-0.5 0-0.7 0.1 -0.2 0.1-0.4 0.4-0.4 0.7 0 0.6 0.4 0.9 0.8 1.1 1.3 0.4 3.6 0 4.6 2.6l5.6 13.4c0.3 0.7 0.6 1.4 0.5 1.6 0 0.2-0.2 1.1-0.6 2.2l-4.1 9.8c-0.2 0.6-0.5 0.9-0.5 0.8 0 0 0 0-0.1-0.1 -0.2-0.2-0.5-0.8-0.6-1.2l-10.6-26.2c-0.2-0.5-0.3-1-0.3-1.3 0-0.8 0.5-1.2 1.1-1.5 0.5-0.3 1.3-0.5 1.3-1.2 0-0.4-0.2-0.9-0.7-0.9 -1.4 0-2.7 0.2-4 0.2 -1.6 0-3.3-0.2-4.9-0.2 0 0 0 0 0 0 -0.6 0-1.5 0.2-1.5 1.1 0.1 0.8 0.9 0.9 1.7 1.3 0.8 0.4 1.7 0.9 2.4 2.5l12.2 30.3c1.6 3.8 1.8 5.5 3 5.6 0 0 0 0 0.1 0 0.7 0 1.2-0.4 1.6-1.6L235.3 30zM267.5 8.2c2.8 0.4 2.8 2.8 2.8 5.4v25.4c0 2.6-0.1 4-1.4 4.6 -0.9 0.4-1.5 0.6-1.8 0.8 -0.4 0.2-0.7 0.4-0.7 0.8 0 0.7 0.6 0.8 1.1 0.8 2.2 0 4.6-0.2 6.8-0.2 0.6 0 1.2 0 1.8 0 3.6 0 7.2 0.2 10.9 0.2 0.2 0 0.5 0 0.7 0 0.1 0 0.2 0 0.2 0 1.9 0 3.1-0.2 4.7-2 1.3-1.5 2.8-3.4 2.8-5.6 0-0.1 0-0.8-0.7-0.9 -0.5 0.1-0.6 0.5-1.1 1 -1.4 1.6-4.8 4.7-14.4 4.8 -3.9-0.1-3.9-0.7-4-2.9 0-0.4 0-0.9 0-1.4l0-10.2c0-0.2 0-0.4 0-0.6 0-0.7 0-0.9 0.8-1h8.2c2.2 0 2.8 1.1 3.1 2.3 0.2 0.6 0.2 1.2 0.4 1.7 0.1 0.5 0.4 0.9 1 0.9 0.2 0 0.5-0.1 0.6-0.3 0.2-0.2 0.2-0.4 0.2-0.7 0-1.5-0.1-3-0.1-4.4 0-1.8 0.1-3.7 0.1-5.6 0-0.5-0.1-1.2-0.9-1.3 -1 0.1-0.8 1.4-1.4 2.4 -0.5 1-1.4 2.1-4.3 2.1h-6c-1 0-1.5 0-1.7-0.1 -0.1-0.1-0.2-0.3-0.2-1 0-0.1 0-0.3 0-0.5h0V12.3c0-0.2 0-0.3 0-0.4 0-1.5 0.1-2.2 0.4-2.4 0.3-0.3 1.2-0.4 3-0.4 0.5 0 1 0 1.5 0 0.6 0 1.4 0 2.3 0 2.6 0 6 0.2 6.9 1.5 0.4 0.5 0.4 1.5 0.5 2.3 0 0.8 0.2 1.7 1.1 1.7 0.7-0.1 1.3-0.7 1.4-6.9 0-0.7-0.1-1.4-0.8-1.5 -1.7 0-6.9 0.2-8 0.2 -2.3 0-5.2-0.2-15.7-0.2 0 0 0 0 0 0h0c-0.8 0-1.3 0.1-1.7 0.2 -0.4 0.1-0.5 0.4-0.5 0.7C265.8 8.1 267.1 8.1 267.5 8.2zM326.8 34.5c0-7.8-5.8-10.2-11.5-11.9 -5.7-1.7-11.2-2.8-11.1-7.8 0-4.9 4.5-7 8.8-7 4.8 0 8.8 2.4 10.4 7.1 0.2 0.5 0.5 1.7 1.4 1.8 0.3 0 0.5-0.1 0.7-0.3 0.2-0.2 0.2-0.4 0.2-0.6 0-0.1 0-0.1 0-0.2l-0.8-7.6c0-0.7-0.5-1-0.9-1 -0.8 0.1-0.9 0.7-1.2 0.6 -0.3 0-0.9-0.5-2.4-1 -1.4-0.5-3.6-1-7-1 -6.5 0-12.6 3.5-12.6 10.7 0 7.4 5.8 9.7 11.5 11.3 5.7 1.7 11.2 2.8 11.1 8 0 5.7-5 8.5-10.2 8.5 -7.5 0-10.8-5.7-11.4-8.2 -0.1-0.6-0.2-1-0.4-1.4 -0.1-0.4-0.5-0.7-0.9-0.6 -0.6 0-0.9 0.6-0.9 1.3 0 0.2 0 0.5 0.1 0.7h0l1.4 7.2c0.2 0.8 1.6 1.4 3.4 2.1 1.8 0.6 4.1 1.2 6.2 1.2 6.4 0 10.4-1.8 12.9-4.2C326 39.9 326.8 36.9 326.8 34.5zM365 8c0-0.6-0.1-1.1-0.4-1.4 -0.3-0.3-0.8-0.4-1.4-0.4 -1.1 0-6.2 0.2-16.3 0.2 -7.2 0-11.4-0.2-15.8-0.2 0 0 0 0 0 0v0c0 0 0 0 0 0 0 0 0 0 0 0 -1.3 0.1-1.1 1.8-1.2 2.4l-0.6 5.4c0 0.4 0.3 0.9 0.8 0.9 1 0 1-1 1.2-1.5 1.1-3.1 0.9-3.7 4.3-3.7h9.1c0.1 0 0.2 0.1 0.2 0.4 0.1 0.3 0.1 0.7 0.1 1 0 0.4 0 0.8 0 0.9v28.9c0 1.5-1 2.1-2 2.6 -1 0.5-2.3 0.5-2.4 1.5 0 0.3 0 0.5 0.2 0.7 0.2 0.2 0.4 0.2 0.7 0.2 0.4 0 1.4-0.2 7.6-0.2 1.6 0 3.1 0.2 4.5 0.2 0 0 0 0 0 0 0.3 0 0.5-0.1 0.6-0.3 0.1-0.2 0.1-0.4 0.1-0.5 0 0 0-0.1 0-0.1 0-0.6-0.4-0.9-0.9-1 -1.4-0.5-3.6-0.2-3.6-3.5l0-28.4c0-0.5 0-1 0-1.3 0.1-1.3-0.1-1.1 1.1-1.2 0.2 0 0.5 0 0.9 0h8c2.8 0 3.2 0.9 3.5 1.9 0.1 0.5 0.1 1 0.2 1.5 0.1 0.4 0.4 0.9 1.1 0.9 0.3 0 0.6-0.1 0.7-0.3 0.1-0.2 0.2-0.5 0.2-0.7 0-0.2 0-0.3 0-0.5L365 8zM397 37.6c-0.5 0.1-0.6 0.5-1.1 1 -1.4 1.6-4.8 4.7-14.4 4.8 -3.9-0.1-3.9-0.7-4-2.9 0-0.4 0-0.9 0-1.4v-10.2c0-0.2 0-0.4 0-0.6 0.1-0.7 0-0.9 0.8-1h8.2c2.2 0 2.8 1.1 3.1 2.3 0.2 0.6 0.2 1.2 0.4 1.7 0.1 0.5 0.4 0.9 1 0.9 0.2 0 0.5-0.1 0.6-0.3 0.2-0.2 0.2-0.4 0.2-0.7 0-1.5-0.1-3-0.1-4.4 0-1.8 0.1-3.7 0.1-5.6 0-0.5-0.1-1.2-0.9-1.3 -1 0.1-0.8 1.4-1.4 2.4 -0.5 1-1.4 2.1-4.3 2.1l-6 0c-1 0-1.5 0-1.7-0.1 -0.1-0.1-0.2-0.3-0.2-1 0-0.1 0-0.3 0-0.5V12.3c0-0.2 0-0.3 0-0.4 0-1.5 0.1-2.2 0.4-2.4 0.3-0.3 1.2-0.4 3-0.4 0.5 0 1 0 1.5 0 0.6 0 1.4 0 2.3 0 2.6 0 6 0.2 6.9 1.5 0.4 0.5 0.4 1.5 0.4 2.3 0 0.8 0.2 1.7 1.1 1.7 0.7-0.1 1.3-0.7 1.4-6.9 0-0.6-0.1-1.4-0.8-1.5 -1.7 0-6.9 0.2-8 0.2 -2.3 0-5.2-0.2-15.7-0.2h0 0c-0.8 0-1.3 0.1-1.7 0.2 -0.4 0.1-0.5 0.4-0.5 0.7 0.1 1 1.5 1 1.9 1.1 2.8 0.4 2.8 2.8 2.8 5.4v25.4c0 2.6-0.1 4-1.4 4.6 -0.9 0.4-1.5 0.6-1.8 0.8 -0.4 0.2-0.7 0.4-0.7 0.8 0 0.7 0.6 0.8 1.1 0.8 2.2 0 4.6-0.2 6.8-0.2 0.6 0 1.2 0 1.8 0 3.6 0 7.2 0.2 10.9 0.2 0.2 0 0.5 0 0.7 0 0.1 0 0.2 0 0.2 0 1.9 0 3.1-0.2 4.7-2 1.3-1.5 2.8-3.4 2.8-5.6C397.7 38.4 397.7 37.7 397 37.6zM435.6 44.4c-1-0.3-3.1-0.2-6.1-4.7l-9.1-13.8c3.8-1.7 6.9-5.4 6.9-9.7 0-9.1-8.7-9.9-12.1-9.9 -0.7 0-1.2 0-1.3 0 -2.9 0-6.1 0.2-9.3 0.2 -2.8 0-2.5-0.2-3.6-0.2l0 0c-0.7 0-1.3 0.3-1.4 0.9 0 0.6 0.4 0.9 0.9 1.1 1.5 0.5 3.8 0.1 3.9 3.9v28.3c0 2-0.9 2.8-1.9 3.3 -0.9 0.5-2.1 0.6-2.2 1.6 0 0.4 0.3 0.9 0.8 0.9 2.1 0 4.2-0.2 6.3-0.2 4.6 0 5.9 0.2 6.4 0.2 0.1 0 0.2 0 0.4 0 0.2 0 0.4 0 0.5-0.1 0.2-0.1 0.3-0.3 0.3-0.6 -0.1-1.3-1.7-1.2-3.1-1.6 -1.4-0.4-2.7-1.1-2.7-3.3V28.7c0-0.2 0-0.4 0-0.5 0.1-0.4 0-0.7 1.2-0.8 0.6 0 1.1 0 1.6 0 4.5 0.1 3.7 0 5.6 2.8l6.2 9.7c2.1 3.2 4.4 6.1 8.6 6.1 0.3 0 1.2 0 2-0.1 0.4 0 0.8-0.1 1.2-0.2 0.3-0.1 0.6-0.2 0.7-0.6C436.3 44.7 436 44.4 435.6 44.4zM415.1 25c-0.9 0-1.9 0-2.8 0 -0.9 0-1.7 0-2.2-0.1 -0.6-0.1-0.8-0.3-0.8-0.4V10.3c0.1-1.8 0.7-1.7 2.4-1.8 0.2 0 0.3 0 0.5 0 5.4 0 10.4 2.2 10.4 8.8C422.6 24.1 417.5 25 415.1 25zM477 6.2c-1.4 0-3.7 0.2-5.6 0.2 -1.8 0-3.4-0.2-5.1-0.2 0 0 0 0 0 0 -0.4 0-0.9 0.3-0.9 0.8 0.1 1.3 1.8 1.1 3.2 1.7 1.5 0.6 2.9 1.7 2.9 5.3v23.3c0 0.1 0 0.2 0 0.3 -0.1-0.1-0.2-0.2-0.4-0.4l-26.5-29.6c-0.3-0.3-0.8-1.3-1.6-1.4 -0.9 0-1.8 0.2-2.6 0.2 -0.8 0-1.7-0.2-2.6-0.2 0 0 0 0 0 0 0 0 0 0-0.1 0 -0.4 0-0.9 0.2-1 0.8 0 0.7 0.6 1 1.2 1.1 1.9 0.6 5.4 0.7 5.5 9.3v20.5c0 3.9-1.2 5-2.3 5.6 -0.6 0.3-1.2 0.4-1.7 0.6 -0.5 0.2-0.9 0.5-0.9 1.1 0 0.2 0 0.4 0.2 0.6 0.2 0.2 0.4 0.3 0.8 0.3 0.4 0 3.3-0.2 5.2-0.2 2.7 0 4.3 0.2 5.6 0.2 0.7 0 0.9-0.7 0.9-1 -0.1-1.1-1.5-0.8-2.6-1.2 -1.2-0.3-2.2-0.9-2.3-3.4V17.8c0-0.5 0-0.8 0.1-1 0-0.1 0-0.1 0-0.1l0 0c0.1-0.1 0.9 0.8 1 1l23.9 26.9c1.2 1.3 1.8 1.6 2.3 1.6 0.4 0 0.6-0.4 0.7-0.8 0.1-0.4 0.1-1 0.1-1.8v-32.2c0-2 0.7-2.6 1.5-3 0.7-0.4 1.7-0.5 1.8-1.5C477.8 6.5 477.4 6.2 477 6.2zM154.4 64.2c-0.7 0-1.4 0.2-2.1 0.2 -1.5 0-3-0.2-4.5-0.2 -0.3 0-0.6 0.2-0.6 0.6 0 0.5 0.4 0.8 0.7 0.9 1.1 0.4 2.8 0.1 2.8 2.9v12.4c0 4.5-1.5 9-8.6 9 -5.1 0-8.9-2.7-8.9-8.7V67.6c0-1.3 0.5-1.6 1.1-1.8 0.3-0.1 0.6-0.1 0.9-0.3 0.3-0.1 0.6-0.3 0.6-0.7 -0.1-0.7-0.9-0.6-1.2-0.6 -0.1 0-0.2 0-0.3 0 -1.2 0-2.4 0.2-3.6 0.2 -1 0-2-0.2-3-0.2 -0.1 0-0.4 0-0.6 0.1 -0.2 0.1-0.5 0.2-0.5 0.5 0.1 0.9 1 0.9 1.7 1.1 0.8 0.2 1.4 0.4 1.4 1.4v12.9c0 3 0.5 5.9 2.3 8.1s4.9 3.7 10 3.7c0 0 0 0 0 0 5.2 0 8-2.1 9.4-4.5 1.4-2.4 1.5-5.2 1.5-6.5 0-0.2 0-0.4 0-0.6V68.7c0-1.7 0.5-2.3 1-2.6 0.5-0.3 1.2-0.4 1.2-1.2C155.1 64.4 154.8 64.2 154.4 64.2zM184.5 64.2c-0.9 0-2.6 0.2-3.9 0.2 -1.2 0-2.3-0.2-3.5-0.2 -0.3 0-0.7 0.2-0.7 0.6 0.1 1 1.3 0.8 2.3 1.2 1 0.4 2 1.2 2 3.6v16c0 0-0.1-0.1-0.1-0.2l-18.3-20.4c-0.2-0.2-0.5-0.9-1.2-1 -0.6 0-1.2 0.2-1.8 0.2 -0.6 0-1.1-0.2-1.8-0.2 -0.3 0-0.7 0.1-0.8 0.6 0 0.5 0.5 0.7 0.9 0.8 1.3 0.4 3.7 0.4 3.7 6.3v14.2c0 2.6-0.8 3.4-1.5 3.8 -0.4 0.2-0.8 0.3-1.1 0.4 -0.3 0.1-0.7 0.4-0.7 0.8 0 0.1 0 0.3 0.1 0.4 0.1 0.2 0.4 0.2 0.6 0.2 0.3 0 2.3-0.2 3.6-0.2 1.9 0 2.9 0.2 3.9 0.2 0.6 0 0.7-0.6 0.7-0.8 -0.1-0.9-1.1-0.7-1.9-0.9 -0.8-0.2-1.5-0.6-1.5-2.2l0-15.7c0-0.3 0-0.5 0.1-0.6 0 0 0 0 0 0 0.2 0.2 0.5 0.5 0.6 0.6l16.5 18.6c0.8 0.9 1.2 1.1 1.6 1.2 0.4 0 0.5-0.3 0.5-0.6 0.1-0.3 0.1-0.7 0.1-1.3l0-22.2c0-1.3 0.5-1.7 1-2 0.5-0.3 1.2-0.3 1.3-1.1C185.1 64.5 184.8 64.2 184.5 64.2zM195.8 90.1c-0.8-0.3-1.5-0.6-1.5-1.7V67.8c0-1.4 0.6-1.7 1.2-2 0.6-0.3 1.4-0.2 1.5-1 0-0.2 0-0.4-0.3-0.5 -0.2-0.1-0.4-0.1-0.7-0.1 -1.2 0-2.4 0.2-3.6 0.2 -1.4 0-2.8-0.2-4.2-0.2 -0.2 0-0.3 0-0.5 0.2 -0.1 0.2-0.1 0.3-0.1 0.5 0.1 0.8 1 0.6 1.7 0.9 0.7 0.3 1.4 0.6 1.4 1.9v19.6c0 1.8-0.7 2.3-1.3 2.6 -0.3 0.1-0.7 0.2-1 0.3 -0.3 0.1-0.6 0.3-0.6 0.7 0 0.2 0 0.5 0.2 0.6 0.2 0.2 0.5 0.2 0.8 0.2 0.6 0 1.4-0.2 3.7-0.2 1.6 0 3.3 0.2 4.2 0.2 0.3 0 0.6 0 0.8-0.1 0.2-0.1 0.3-0.4 0.3-0.5C197.5 90.4 196.5 90.4 195.8 90.1zM226.3 64.2c-0.6 0-1.1 0.2-3 0.2 -0.8 0-1.7-0.2-2.5-0.2 -0.2 0-0.4 0-0.6 0.2s-0.2 0.4-0.2 0.6c0.1 0.8 0.9 0.7 1.4 0.9 0.6 0.2 1 0.3 1 1 0 0.1 0 0.2 0 0.4 0 0.7-0.4 1.7-0.6 2.2l-6.7 16.5c-0.1 0.2-0.2 0.5-0.3 0.7 -0.1 0.2-0.2 0.2-0.2 0.2 0 0-0.2-0.1-0.4-0.6 -0.2-0.5-0.5-1.2-0.9-2.2l-6.7-15.8c-0.1-0.3-0.3-0.9-0.3-1.4 0-0.6 0.3-0.8 0.7-1.1 0.3-0.3 0.8-0.3 0.9-0.9v0c0-0.5-0.5-0.6-0.8-0.6 -0.6 0-2 0.2-3 0.2 -1.1 0-2.3-0.2-3.5-0.2 -0.2 0-0.4 0.1-0.6 0.2 -0.1 0.2-0.2 0.4-0.2 0.6 0.1 0.7 0.8 0.7 1.3 0.9 0.6 0.2 1.2 0.5 1.7 1.6l0.2-0.1 -0.2 0.1 9.5 22.4c0.2 0.4 0.4 1 0.6 1.5 0.3 0.5 0.5 1 1 1.1 0.9-0.1 1-1.5 1.5-2.4l9.6-22.6c0.5-1.3 1-1.6 1.4-1.7 0.3-0.1 0.8-0.2 0.8-0.8 0-0.2-0.1-0.4-0.3-0.6C226.7 64.3 226.5 64.2 226.3 64.2zM248.9 85.9c-0.4 0.1-0.5 0.3-0.8 0.7 -1 1.1-3.3 3.2-9.9 3.3 -2.7-0.1-2.6-0.4-2.7-2 0-0.3 0-0.6 0-1v-7.1c0-0.1 0-0.3 0-0.4 0-0.5 0-0.6 0.4-0.6h5.7c1.5 0 1.8 0.7 2.1 1.5 0.1 0.4 0.2 0.8 0.3 1.2 0.1 0.3 0.3 0.7 0.8 0.7 0.2 0 0.4-0.1 0.5-0.2 0.1-0.1 0.2-0.3 0.2-0.5 0-1-0.1-2-0.1-3 0-1.2 0.1-2.5 0.1-3.9 0-0.3-0.1-0.9-0.7-1 -0.8 0.1-0.6 1-1 1.7 -0.3 0.7-0.9 1.4-2.9 1.4h-4.1c-0.7 0-1.1 0-1.1-0.1 0 0-0.1-0.1-0.1-0.6 0-0.1 0-0.2 0-0.3v-7.1c0-0.1 0-0.2 0-0.3 0-1 0.1-1.5 0.3-1.6 0.2-0.2 0.8-0.3 2.1-0.2 0.3 0 0.7 0 1.1 0 0.4 0 1 0 1.6 0 1.8 0 4.2 0.2 4.7 1 0.2 0.3 0.3 1 0.3 1.6 0 0.5 0.1 1.2 0.8 1.3 0.6-0.1 1-0.6 1-4.8 0-0.4 0-1-0.6-1.1 -1.2 0-4.7 0.2-5.5 0.2 -1.6 0-3.6-0.2-10.9-0.2 -0.6 0-0.9 0-1.2 0.1 -0.3 0.1-0.4 0.4-0.4 0.6 0.1 0.8 1.1 0.8 1.3 0.9 1.9 0.3 1.9 1.9 1.9 3.6v17.5c0 1.8-0.1 2.7-0.9 3.1 -0.6 0.3-1 0.4-1.3 0.6 -0.3 0.1-0.5 0.3-0.6 0.6 0 0.5 0.5 0.7 0.8 0.7 1.5 0 3.2-0.1 4.7-0.2 0.4 0 0.8 0 1.2 0 2.5 0 5 0.2 7.5 0.2 0.2 0 0.3 0 0.5 0 0.1 0 0.1 0 0.2 0 1.3 0 2.2-0.2 3.3-1.4 0.9-1 2-2.4 2-3.9C249.4 86.5 249.4 86 248.9 85.9zM275.5 90.6c-0.7-0.2-2.1-0.1-4.2-3.2l-6.2-9.5c2.6-1.2 4.7-3.7 4.7-6.8 0-6.4-6.1-6.9-8.4-6.9 -0.5 0-0.8 0-0.9 0 -2 0-4.2 0.2-6.4 0.2 -1.9 0-1.7-0.1-2.5-0.2 -0.5 0-1 0.2-1 0.7 0 0.5 0.4 0.7 0.7 0.8 1.1 0.3 2.6 0 2.6 2.6v19.5c0 1.4-0.6 1.8-1.3 2.2 -0.6 0.4-1.5 0.4-1.5 1.2 0 0.3 0.2 0.7 0.6 0.7 1.5 0 2.9-0.2 4.4-0.2 3.2 0 4 0.2 4.4 0.2 0.1 0 0.2 0 0.3 0 0.1 0 0.3 0 0.4-0.1 0.2-0.1 0.2-0.3 0.2-0.5 -0.1-1-1.3-0.9-2.2-1.2 -1-0.3-1.8-0.7-1.8-2.2v-8.1c0-0.1 0-0.3 0-0.4 0.1-0.3-0.1-0.4 0.8-0.5 0.4 0 0.8 0 1.1 0 3.1 0.1 2.4-0.1 3.8 1.9l4.3 6.7c1.5 2.2 3 4.3 6 4.3 0.2 0 0.8 0 1.4-0.1 0.3 0 0.6-0.1 0.8-0.1 0.2-0.1 0.5-0.2 0.5-0.5C276.1 90.8 275.8 90.6 275.5 90.6zM261.4 77.2c-0.6 0-1.3 0-2 0 -0.6 0-1.1 0-1.5-0.1 -0.4-0.1-0.5-0.2-0.5-0.2v-9.7c0.1-1.2 0.4-1.1 1.6-1.2 0.1 0 0.2 0 0.4 0 3.7 0 7.1 1.5 7.1 6C266.4 76.6 263 77.2 261.4 77.2zM288 75.6c-4-1.2-7.6-1.9-7.6-5.3 0-3.3 3-4.7 6-4.7 3.3 0 6 1.6 7.1 4.8 0.2 0.3 0.3 1.2 1 1.3 0.2 0 0.4-0.1 0.5-0.2 0.1-0.1 0.1-0.3 0.1-0.5 0-0.1 0-0.1 0-0.2l-0.6-5.2c0-0.5-0.4-0.8-0.7-0.8 -0.6 0.1-0.7 0.5-0.8 0.4 -0.1 0-0.6-0.3-1.6-0.7 -1-0.3-2.5-0.7-4.8-0.7 -4.5 0-8.8 2.4-8.8 7.5 0 5.2 4.1 6.7 8 7.9 3.9 1.2 7.6 2 7.6 5.4 0 3.9-3.4 5.8-7 5.8 -5.2 0-7.4-3.9-7.8-5.6 -0.1-0.4-0.1-0.7-0.2-1 -0.1-0.3-0.4-0.5-0.7-0.5 -0.5 0-0.7 0.5-0.7 1 0 0.2 0 0.3 0.1 0.5l0 0 1 5c0.2 0.6 1.1 1 2.4 1.5 1.3 0.4 2.9 0.8 4.3 0.8 0 0 0 0 0 0 4.4 0 7.2-1.2 8.9-2.9 1.7-1.7 2.3-3.7 2.3-5.4C295.9 78.4 291.9 76.7 288 75.6zM306.8 90.1c-0.8-0.3-1.5-0.6-1.5-1.7V67.8c0-1.4 0.6-1.7 1.2-2 0.6-0.3 1.4-0.2 1.5-1 0-0.2-0.1-0.4-0.3-0.5 -0.2-0.1-0.4-0.1-0.7-0.1 -1.2 0-2.4 0.2-3.6 0.2 -1.4 0-2.8-0.2-4.2-0.2 -0.2 0-0.3 0-0.5 0.2 -0.1 0.2-0.1 0.3-0.1 0.5 0.1 0.8 1 0.6 1.7 0.9 0.7 0.3 1.4 0.6 1.4 1.9h0v19.7c0 1.8-0.7 2.3-1.3 2.6 -0.3 0.1-0.7 0.2-1 0.3 -0.3 0.1-0.6 0.3-0.6 0.7 0 0.2 0 0.5 0.2 0.6 0.2 0.2 0.5 0.2 0.8 0.2 0.6 0 1.3-0.2 3.7-0.2 1.6 0 3.3 0.2 4.2 0.2 0.3 0 0.6 0 0.8-0.1 0.2-0.1 0.3-0.4 0.3-0.5C308.6 90.4 307.6 90.4 306.8 90.1zM335.8 65.6c0-0.4-0.1-0.8-0.3-1 -0.3-0.2-0.6-0.3-1.1-0.3 -0.8 0-4.3 0.2-11.2 0.2 -4.9 0-7.9-0.2-10.9-0.2 -1 0.1-0.9 1.3-0.9 1.7l-0.4 3.7c0 0.3 0.2 0.7 0.6 0.7 0.7 0 0.8-0.8 0.9-1.1 0.8-2.1 0.6-2.4 2.9-2.5h6.3c0 0 0 0 0.1 0.2 0 0.2 0.1 0.4 0.1 0.7 0 0.3 0 0.5 0 0.6h0v20c0 1-0.6 1.4-1.4 1.7 -0.7 0.3-1.6 0.3-1.7 1.1 0 0.2 0 0.4 0.2 0.6 0.2 0.2 0.4 0.2 0.5 0.2 0.3 0 0.9-0.2 5.3-0.2 1.1 0 2.2 0.2 3.1 0.2 0.5 0 0.6-0.5 0.6-0.6 0 0 0-0.1 0-0.1 0-0.4-0.3-0.7-0.7-0.8 -1-0.4-2.4-0.1-2.5-2.4V68.5c0-0.4 0-0.7 0-0.9 0.1-0.9-0.2-0.6 0.7-0.7 0.2 0 0.4 0 0.6 0h5.5c1.9 0 2.2 0.6 2.3 1.3 0.1 0.3 0.1 0.7 0.1 1 0.1 0.3 0.3 0.7 0.8 0.6 0.2 0 0.5-0.1 0.6-0.3 0.1-0.2 0.1-0.3 0.1-0.5 0-0.1 0-0.2 0-0.3L335.8 65.6zM360.4 64.2c-1.1 0-2.2 0.2-3.3 0.2 -0.9 0-1.9-0.2-2.8-0.2 -0.4 0-1.1 0.1-1.1 0.8 0.1 0.8 1 0.7 1.6 0.9 0.7 0.2 1.2 0.3 1.2 1.1 0 0.9-0.5 1.5-0.8 2l-4 6.4c-0.1 0.2-0.3 0.4-0.4 0.5 -0.1 0.1-0.1 0.1-0.1 0.1 0 0-0.3-0.1-0.6-0.6l-4.6-7.4c-0.2-0.4-0.7-0.9-0.7-1.4 0-0.4 0.3-0.6 0.8-0.9 0.4-0.2 1-0.4 1-1 -0.1-0.6-0.7-0.6-1-0.6 -0.4 0-1.4 0.2-2.7 0.2 -2.6 0-3.3-0.2-4.4-0.2 -0.5 0-0.7 0.4-0.7 0.8 0.1 0.7 0.7 0.6 1.2 0.8 0.6 0.2 1.2 0.4 1.7 1.2l0.2-0.1 -0.2 0.1 6.4 10.2c0.3 0.5 0.9 1.2 0.8 1.8v9.3c0 1.3-0.6 1.5-1.3 1.8 -0.7 0.2-1.6 0.2-1.7 1 0 0.2 0.1 0.5 0.3 0.6 0.2 0.1 0.4 0.1 0.5 0.1 0.4 0 1.7-0.2 3.5-0.2 1.4 0 3.6 0.2 4.2 0.2 0.3 0 0.5 0 0.7-0.1 0.2-0.1 0.4-0.3 0.4-0.6 -0.1-0.9-1-0.9-1.7-1.2 -0.7-0.3-1.4-0.7-1.4-2.3v-9.4c0-0.4 0.2-0.6 0.9-1.6l5.4-8.4c0.6-1 1.1-2 2.1-2.6 0.2-0.1 1-0.2 1-0.9C361.1 64.6 360.9 64.3 360.4 64.2z"/></svg>